<mxfile host="Electron" agent="Mozilla/5.0 (Windows NT 10.0; Win64; x64) AppleWebKit/537.36 (KHTML, like Gecko) draw.io/27.0.9 Chrome/134.0.6998.205 Electron/35.4.0 Safari/537.36" version="27.0.9">
  <diagram name="Página-1" id="IKVGy_DopQR0RWY-qbrC">
    <mxGraphModel dx="1720" dy="2371" grid="1" gridSize="10" guides="1" tooltips="1" connect="1" arrows="1" fold="1" page="1" pageScale="1" pageWidth="827" pageHeight="1169" math="0" shadow="0">
      <root>
        <mxCell id="0" />
        <mxCell id="1" parent="0" />
        <mxCell id="niHBlkHj75Q52Ek4L3QL-21" value="" style="endArrow=none;html=1;rounded=0;exitX=0.75;exitY=1;exitDx=0;exitDy=0;" edge="1" target="niHBlkHj75Q52Ek4L3QL-22" parent="1" source="TiZIH5PmXgbemmZ_yq_U-24">
          <mxGeometry relative="1" as="geometry">
            <mxPoint x="940" y="775" as="sourcePoint" />
            <mxPoint x="1000" y="775" as="targetPoint" />
          </mxGeometry>
        </mxCell>
        <mxCell id="TiZIH5PmXgbemmZ_yq_U-3" value="Pedido" style="whiteSpace=wrap;html=1;align=center;fillColor=#f0a30a;strokeColor=#BD7000;fontColor=#000000;" parent="1" vertex="1">
          <mxGeometry x="760" y="240" width="100" height="40" as="geometry" />
        </mxCell>
        <mxCell id="TiZIH5PmXgbemmZ_yq_U-4" value="Lista" style="shape=ext;margin=3;double=1;whiteSpace=wrap;html=1;align=center;fillColor=#f0a30a;fontColor=#000000;strokeColor=#BD7000;" parent="1" vertex="1">
          <mxGeometry x="760" y="390" width="100" height="40" as="geometry" />
        </mxCell>
        <mxCell id="TiZIH5PmXgbemmZ_yq_U-5" value="Flor" style="whiteSpace=wrap;html=1;align=center;fillColor=#f0a30a;strokeColor=#BD7000;fontColor=#000000;" parent="1" vertex="1">
          <mxGeometry x="770" y="530" width="100" height="40" as="geometry" />
        </mxCell>
        <mxCell id="TiZIH5PmXgbemmZ_yq_U-13" value="Contiene" style="shape=rhombus;perimeter=rhombusPerimeter;whiteSpace=wrap;html=1;align=center;fillColor=#76608a;fontColor=#ffffff;strokeColor=#432D57;" parent="1" vertex="1">
          <mxGeometry x="764" y="320" width="90" height="40" as="geometry" />
        </mxCell>
        <mxCell id="TiZIH5PmXgbemmZ_yq_U-14" value="" style="endArrow=none;html=1;rounded=0;exitX=0;exitY=0.5;exitDx=0;exitDy=0;entryX=0;entryY=1;entryDx=0;entryDy=0;" parent="1" source="TiZIH5PmXgbemmZ_yq_U-13" target="TiZIH5PmXgbemmZ_yq_U-3" edge="1">
          <mxGeometry relative="1" as="geometry">
            <mxPoint x="741" y="310" as="sourcePoint" />
            <mxPoint x="694" y="340" as="targetPoint" />
          </mxGeometry>
        </mxCell>
        <mxCell id="TiZIH5PmXgbemmZ_yq_U-15" value="(1,1)" style="resizable=0;html=1;whiteSpace=wrap;align=right;verticalAlign=bottom;" parent="TiZIH5PmXgbemmZ_yq_U-14" connectable="0" vertex="1">
          <mxGeometry x="1" relative="1" as="geometry">
            <mxPoint x="34" as="offset" />
          </mxGeometry>
        </mxCell>
        <mxCell id="TiZIH5PmXgbemmZ_yq_U-16" value="" style="endArrow=none;html=1;rounded=0;exitX=1;exitY=0.5;exitDx=0;exitDy=0;entryX=1;entryY=0;entryDx=0;entryDy=0;" parent="1" source="TiZIH5PmXgbemmZ_yq_U-13" target="TiZIH5PmXgbemmZ_yq_U-4" edge="1">
          <mxGeometry relative="1" as="geometry">
            <mxPoint x="741" y="310" as="sourcePoint" />
            <mxPoint x="914" y="340" as="targetPoint" />
          </mxGeometry>
        </mxCell>
        <mxCell id="TiZIH5PmXgbemmZ_yq_U-17" value="(1,1)" style="resizable=0;html=1;whiteSpace=wrap;align=right;verticalAlign=bottom;" parent="TiZIH5PmXgbemmZ_yq_U-16" connectable="0" vertex="1">
          <mxGeometry x="1" relative="1" as="geometry">
            <mxPoint as="offset" />
          </mxGeometry>
        </mxCell>
        <mxCell id="TiZIH5PmXgbemmZ_yq_U-18" value="Tiene" style="shape=rhombus;perimeter=rhombusPerimeter;whiteSpace=wrap;html=1;align=center;fillColor=#76608a;fontColor=#ffffff;strokeColor=#432D57;" parent="1" vertex="1">
          <mxGeometry x="764" y="460" width="90" height="40" as="geometry" />
        </mxCell>
        <mxCell id="TiZIH5PmXgbemmZ_yq_U-19" value="" style="endArrow=none;html=1;rounded=0;exitX=0;exitY=0.5;exitDx=0;exitDy=0;entryX=0;entryY=1;entryDx=0;entryDy=0;" parent="1" source="TiZIH5PmXgbemmZ_yq_U-18" target="TiZIH5PmXgbemmZ_yq_U-4" edge="1">
          <mxGeometry relative="1" as="geometry">
            <mxPoint x="741" y="450" as="sourcePoint" />
            <mxPoint x="694" y="480" as="targetPoint" />
          </mxGeometry>
        </mxCell>
        <mxCell id="TiZIH5PmXgbemmZ_yq_U-20" value="(1,N)" style="resizable=0;html=1;whiteSpace=wrap;align=right;verticalAlign=bottom;" parent="TiZIH5PmXgbemmZ_yq_U-19" connectable="0" vertex="1">
          <mxGeometry x="1" relative="1" as="geometry">
            <mxPoint x="34" as="offset" />
          </mxGeometry>
        </mxCell>
        <mxCell id="TiZIH5PmXgbemmZ_yq_U-21" value="" style="endArrow=none;html=1;rounded=0;exitX=1;exitY=0.5;exitDx=0;exitDy=0;entryX=1;entryY=0;entryDx=0;entryDy=0;" parent="1" source="TiZIH5PmXgbemmZ_yq_U-18" target="TiZIH5PmXgbemmZ_yq_U-5" edge="1">
          <mxGeometry relative="1" as="geometry">
            <mxPoint x="741" y="450" as="sourcePoint" />
            <mxPoint x="914" y="480" as="targetPoint" />
          </mxGeometry>
        </mxCell>
        <mxCell id="TiZIH5PmXgbemmZ_yq_U-22" value="(1,M)" style="resizable=0;html=1;whiteSpace=wrap;align=right;verticalAlign=bottom;" parent="TiZIH5PmXgbemmZ_yq_U-21" connectable="0" vertex="1">
          <mxGeometry x="1" relative="1" as="geometry">
            <mxPoint as="offset" />
          </mxGeometry>
        </mxCell>
        <mxCell id="TiZIH5PmXgbemmZ_yq_U-24" value="Especie" style="whiteSpace=wrap;html=1;align=center;fillColor=#f0a30a;strokeColor=#BD7000;fontColor=#000000;" parent="1" vertex="1">
          <mxGeometry x="764" y="670" width="100" height="40" as="geometry" />
        </mxCell>
        <mxCell id="TiZIH5PmXgbemmZ_yq_U-25" value="Pertenece" style="shape=rhombus;perimeter=rhombusPerimeter;whiteSpace=wrap;html=1;align=center;fillColor=#76608a;fontColor=#ffffff;strokeColor=#432D57;" parent="1" vertex="1">
          <mxGeometry x="774" y="600" width="90" height="40" as="geometry" />
        </mxCell>
        <mxCell id="TiZIH5PmXgbemmZ_yq_U-26" value="" style="endArrow=none;html=1;rounded=0;exitX=0;exitY=0.5;exitDx=0;exitDy=0;entryX=0;entryY=1;entryDx=0;entryDy=0;" parent="1" source="TiZIH5PmXgbemmZ_yq_U-25" target="TiZIH5PmXgbemmZ_yq_U-5" edge="1">
          <mxGeometry relative="1" as="geometry">
            <mxPoint x="751" y="590" as="sourcePoint" />
            <mxPoint x="704" y="620" as="targetPoint" />
          </mxGeometry>
        </mxCell>
        <mxCell id="TiZIH5PmXgbemmZ_yq_U-27" value="(1,N)" style="resizable=0;html=1;whiteSpace=wrap;align=right;verticalAlign=bottom;" parent="TiZIH5PmXgbemmZ_yq_U-26" connectable="0" vertex="1">
          <mxGeometry x="1" relative="1" as="geometry">
            <mxPoint x="34" as="offset" />
          </mxGeometry>
        </mxCell>
        <mxCell id="TiZIH5PmXgbemmZ_yq_U-28" value="" style="endArrow=none;html=1;rounded=0;exitX=1;exitY=0.5;exitDx=0;exitDy=0;entryX=1;entryY=0;entryDx=0;entryDy=0;" parent="1" source="TiZIH5PmXgbemmZ_yq_U-25" target="TiZIH5PmXgbemmZ_yq_U-24" edge="1">
          <mxGeometry relative="1" as="geometry">
            <mxPoint x="751" y="590" as="sourcePoint" />
            <mxPoint x="924" y="620" as="targetPoint" />
          </mxGeometry>
        </mxCell>
        <mxCell id="TiZIH5PmXgbemmZ_yq_U-29" value="(1,1)" style="resizable=0;html=1;whiteSpace=wrap;align=right;verticalAlign=bottom;" parent="TiZIH5PmXgbemmZ_yq_U-28" connectable="0" vertex="1">
          <mxGeometry x="1" relative="1" as="geometry">
            <mxPoint as="offset" />
          </mxGeometry>
        </mxCell>
        <mxCell id="niHBlkHj75Q52Ek4L3QL-1" value="" style="endArrow=none;html=1;rounded=0;exitX=1;exitY=0;exitDx=0;exitDy=0;" edge="1" target="niHBlkHj75Q52Ek4L3QL-2" parent="1" source="TiZIH5PmXgbemmZ_yq_U-3">
          <mxGeometry relative="1" as="geometry">
            <mxPoint x="860" y="195" as="sourcePoint" />
            <mxPoint x="920" y="195" as="targetPoint" />
          </mxGeometry>
        </mxCell>
        <mxCell id="niHBlkHj75Q52Ek4L3QL-2" value="&lt;u&gt;Número_Pedido&lt;/u&gt;" style="ellipse;whiteSpace=wrap;html=1;align=center;" vertex="1" parent="1">
          <mxGeometry x="895" y="190" width="95" height="30" as="geometry" />
        </mxCell>
        <mxCell id="niHBlkHj75Q52Ek4L3QL-3" value="" style="endArrow=none;html=1;rounded=0;exitX=1;exitY=0;exitDx=0;exitDy=0;" edge="1" target="niHBlkHj75Q52Ek4L3QL-4" parent="1" source="TiZIH5PmXgbemmZ_yq_U-3">
          <mxGeometry relative="1" as="geometry">
            <mxPoint x="810" y="185" as="sourcePoint" />
            <mxPoint x="870" y="185" as="targetPoint" />
          </mxGeometry>
        </mxCell>
        <mxCell id="niHBlkHj75Q52Ek4L3QL-4" value="Fecha" style="ellipse;whiteSpace=wrap;html=1;align=center;" vertex="1" parent="1">
          <mxGeometry x="845" y="170" width="50" height="30" as="geometry" />
        </mxCell>
        <mxCell id="niHBlkHj75Q52Ek4L3QL-5" value="" style="endArrow=none;html=1;rounded=0;exitX=0.75;exitY=0;exitDx=0;exitDy=0;" edge="1" target="niHBlkHj75Q52Ek4L3QL-6" parent="1" source="TiZIH5PmXgbemmZ_yq_U-3">
          <mxGeometry relative="1" as="geometry">
            <mxPoint x="750" y="185" as="sourcePoint" />
            <mxPoint x="810" y="185" as="targetPoint" />
          </mxGeometry>
        </mxCell>
        <mxCell id="niHBlkHj75Q52Ek4L3QL-6" value="Importe_Toral" style="ellipse;whiteSpace=wrap;html=1;align=center;" vertex="1" parent="1">
          <mxGeometry x="750" y="170" width="85" height="30" as="geometry" />
        </mxCell>
        <mxCell id="niHBlkHj75Q52Ek4L3QL-7" value="" style="endArrow=none;html=1;rounded=0;exitX=1;exitY=0;exitDx=0;exitDy=0;" edge="1" target="niHBlkHj75Q52Ek4L3QL-8" parent="1" source="TiZIH5PmXgbemmZ_yq_U-5">
          <mxGeometry relative="1" as="geometry">
            <mxPoint x="905" y="515" as="sourcePoint" />
            <mxPoint x="965" y="515" as="targetPoint" />
          </mxGeometry>
        </mxCell>
        <mxCell id="niHBlkHj75Q52Ek4L3QL-8" value="&lt;u&gt;Nombre_Científico&lt;/u&gt;" style="ellipse;whiteSpace=wrap;html=1;align=center;" vertex="1" parent="1">
          <mxGeometry x="910" y="500" width="120" height="30" as="geometry" />
        </mxCell>
        <mxCell id="niHBlkHj75Q52Ek4L3QL-9" value="" style="endArrow=none;html=1;rounded=0;exitX=1;exitY=0.25;exitDx=0;exitDy=0;" edge="1" target="niHBlkHj75Q52Ek4L3QL-10" parent="1" source="TiZIH5PmXgbemmZ_yq_U-5">
          <mxGeometry relative="1" as="geometry">
            <mxPoint x="928" y="550" as="sourcePoint" />
            <mxPoint x="988" y="550" as="targetPoint" />
          </mxGeometry>
        </mxCell>
        <mxCell id="niHBlkHj75Q52Ek4L3QL-10" value="Nombre" style="ellipse;whiteSpace=wrap;html=1;align=center;" vertex="1" parent="1">
          <mxGeometry x="945" y="530" width="50" height="30" as="geometry" />
        </mxCell>
        <mxCell id="niHBlkHj75Q52Ek4L3QL-11" value="" style="endArrow=none;html=1;rounded=0;exitX=1;exitY=0.5;exitDx=0;exitDy=0;" edge="1" target="niHBlkHj75Q52Ek4L3QL-12" parent="1" source="TiZIH5PmXgbemmZ_yq_U-5">
          <mxGeometry relative="1" as="geometry">
            <mxPoint x="910" y="575" as="sourcePoint" />
            <mxPoint x="970" y="575" as="targetPoint" />
          </mxGeometry>
        </mxCell>
        <mxCell id="niHBlkHj75Q52Ek4L3QL-12" value="Precio_Venta" style="ellipse;whiteSpace=wrap;html=1;align=center;" vertex="1" parent="1">
          <mxGeometry x="945" y="560" width="85" height="30" as="geometry" />
        </mxCell>
        <mxCell id="niHBlkHj75Q52Ek4L3QL-13" value="" style="endArrow=none;html=1;rounded=0;exitX=1;exitY=0;exitDx=0;exitDy=0;" edge="1" target="niHBlkHj75Q52Ek4L3QL-14" parent="1" source="TiZIH5PmXgbemmZ_yq_U-24">
          <mxGeometry relative="1" as="geometry">
            <mxPoint x="905" y="655" as="sourcePoint" />
            <mxPoint x="965" y="655" as="targetPoint" />
          </mxGeometry>
        </mxCell>
        <mxCell id="niHBlkHj75Q52Ek4L3QL-14" value="&lt;u&gt;Nombre_Especie&lt;/u&gt;" style="ellipse;whiteSpace=wrap;html=1;align=center;" vertex="1" parent="1">
          <mxGeometry x="940" y="640" width="120" height="30" as="geometry" />
        </mxCell>
        <mxCell id="niHBlkHj75Q52Ek4L3QL-15" value="" style="endArrow=none;html=1;rounded=0;exitX=1;exitY=0.25;exitDx=0;exitDy=0;" edge="1" target="niHBlkHj75Q52Ek4L3QL-16" parent="1" source="TiZIH5PmXgbemmZ_yq_U-24">
          <mxGeometry relative="1" as="geometry">
            <mxPoint x="940" y="690" as="sourcePoint" />
            <mxPoint x="1000" y="690" as="targetPoint" />
          </mxGeometry>
        </mxCell>
        <mxCell id="niHBlkHj75Q52Ek4L3QL-16" value="Época_Floración" style="ellipse;whiteSpace=wrap;html=1;align=center;" vertex="1" parent="1">
          <mxGeometry x="940" y="670" width="125" height="30" as="geometry" />
        </mxCell>
        <mxCell id="niHBlkHj75Q52Ek4L3QL-17" value="" style="endArrow=none;html=1;rounded=0;exitX=1;exitY=0.5;exitDx=0;exitDy=0;" edge="1" target="niHBlkHj75Q52Ek4L3QL-18" parent="1" source="TiZIH5PmXgbemmZ_yq_U-24">
          <mxGeometry relative="1" as="geometry">
            <mxPoint x="945" y="715" as="sourcePoint" />
            <mxPoint x="1005" y="715" as="targetPoint" />
          </mxGeometry>
        </mxCell>
        <mxCell id="niHBlkHj75Q52Ek4L3QL-18" value="Estación_Plantación" style="ellipse;whiteSpace=wrap;html=1;align=center;" vertex="1" parent="1">
          <mxGeometry x="940" y="700" width="130" height="30" as="geometry" />
        </mxCell>
        <mxCell id="niHBlkHj75Q52Ek4L3QL-19" value="" style="endArrow=none;html=1;rounded=0;exitX=1;exitY=0.75;exitDx=0;exitDy=0;" edge="1" target="niHBlkHj75Q52Ek4L3QL-20" parent="1" source="TiZIH5PmXgbemmZ_yq_U-24">
          <mxGeometry relative="1" as="geometry">
            <mxPoint x="945" y="745" as="sourcePoint" />
            <mxPoint x="1005" y="745" as="targetPoint" />
          </mxGeometry>
        </mxCell>
        <mxCell id="niHBlkHj75Q52Ek4L3QL-20" value="Tipo_Suelo_Apropiado" style="ellipse;whiteSpace=wrap;html=1;align=center;" vertex="1" parent="1">
          <mxGeometry x="960" y="730" width="140" height="30" as="geometry" />
        </mxCell>
        <mxCell id="niHBlkHj75Q52Ek4L3QL-22" value="Tiempo_Exposición_Recomendado" style="ellipse;whiteSpace=wrap;html=1;align=center;" vertex="1" parent="1">
          <mxGeometry x="945" y="760" width="235" height="30" as="geometry" />
        </mxCell>
        <mxCell id="b2keQUZmHNxBtzfLSA8D-120" value="" style="shape=image;verticalLabelPosition=bottom;labelBackgroundColor=default;verticalAlign=top;aspect=fixed;imageAspect=0;image=data:image/png,iVBORw0KGgoAAAANSUhEUgAAAtgAAADaCAYAAACchDUnAAAAAXNSR0IArs4c6QAAAARnQU1BAACxjwv8YQUAAAAJcEhZcwAADsMAAA7DAcdvqGQAAP+lSURBVHhe7J13WBTX+se/W+iCoNGIREEla+wiXmNvxPAzscYoXmwYS7hJsBtbYjfE5BqjJteS2KLGhBtjrGALRaSJgjTBIFKku+wiRcrOvL8/lrplFhATzT2f5/F5kpkz55y3nndnzjAiIiIwGAwGg8FgMBiMZkGseYDBYDAYDAaDwWA0HVZgMxgMBoPBYDAYzQgrsBkMBoPBYDAYjGaEFdgMBoPBYDAYDEYzwgpsBoPBYDAYDAajGWEFNoPBYDAYDAaD0YywApvBYDAYDAaDwWhGWIHNYDAYDAaDwWA0I6zA/ttQhszYu8jlNY83kpI0RN3JQJnmcQaDwWAwGAxGg2haga3KxM3f9mHZ5OEYOmQIhgybgHkrV2P1x8vxkcckjB46FMNn/AcJqqr2pcHYMPhltLSfhH2JnEZnzQifgZ/mdoVNaycs9S3QPKsBj4yf5qKrTWs4LfWFoda64ZHj/2/MHuqI1hamaGk/BPMPxaJUsxkAgEfu6bno3MIV+/IaXgWXJF7Et2tnYszQoRg5YRbe9/SEp6cnFni8C9cRIzD3+3tQRh3HMhdHOI7ciuAKzR4aA4/UA7MxaPACHM1p+BybTiF++1cfdBu7DWFFmucYDAaDwWAwXkyaVmBL7fCPSXMxoUMmwkJCEHJThUFrP8fnX+zAN0d+wvdLXoMiIR1F1TVaWSaSkh+hKDsJ9+XPssBW4I/4DBQqUpDw4DGER+Kh+CMeGYUKpCQ8wGPhxjopCv4a2/xM8NbiT+D15isozwjBoQ/fx+672p1x6Sfw4UfH8KBS84wwFq+9hQ8/mYJ2SWG422oqdu3bh3379uG7Iz44ttYZxamPYO3kjqUTZXj6j96L4bDwB4SGfIc57Qy5Bo/8W5G4ry1qwyn2x2/XbeH5xXIMtNQ8yWAwGAwGg/FiYqiKEkAEIyMpRPWOlSM3pxQO73yGVWOtas+1csOhW7dwIzoQ3kOM613RrEh7Y92lKISER+GXDxwg0TxfDyl6r7uEqJBwRP3yARyEG+uAQ1G7SfDe7oXpUz2w8cg2TLQWg1SFUGpW66p7OLBoDS5kN7EalZjD3LS+pgEx2o5Zg3VTbAGIYWVpoWGLJmJhD6c+HWCqeVyTknDsWn8E96qfUjSBigQ5+u06Bq9eBkdjMBgMBoPBeGF4igJbBxU3cezYbVSK22Ki11x0kwLgC5EU7IfAuGwo0xPxR0HdrQdFuHvxAD7fsh0HLiSgEABQitTwS/D19YWvXyDi5RxKks7jG+9vcTW9ukAtRJLfQXyxaQO27jmFKDkPgEPWrUu4FJYCxaM/cDe9vHaYwiT4HfwCmzZsxZ5TUZDzAJd1C5cuhSFF8Qh/3E1HbWse8ju/Ya/3Jmz+8hD8koqge7OEBO0dO6NF1f/xxQVQVpqj+5yN+KB/3R8R5Yj5+hOEOE1BH2mdw1Xw+WE4un07jobl6xlHN3xuNKIyWqGvUycAgFiku7zmFCmIvB6EsMQ8aO4eKU2PRWI+h7KsO4hILKi641+GzJgE1O4Q4aG8H47A69FIL5QjK7sEfH4Yds+ZiR0RqYi+7Af/uDpzL81C7I0ABN1Kq32CAQCl6YhNzAdXloU7EYko4ADjAfOw8LUcJNXbOK6C/F44/K8F4GaK0sBTCAaDwWAwGIznj+YrsIlD7rmD+DVFfUvT0tYWlmIA4pawbxOL7e+8jbfGzcXemKo9ElwafOYNwPBt2RjtMQB3Vw3BsEUXkMebo51NHL6c8jbeGjcLXx3/EhOGTcKitUux/LsYgM/ErwsHY8jGdAx9xwYBa6Zh8NCluFIowcsdi/HTgvF4660JWHNWDh4An/krFg4ego3pQ/GOTQDWTBuMoUuvoPjljij+aQHGv/UWJqw5CzkPACrcO+wG50FLEObogbldQ/BRv154d398nQJckwrk3TmFjXO34vdyC7SyMal3tiTsc2z6Yyo+m95eh7LL4b/BDfNWr8a8qZ/imv5B6sMV4s7RPTiVKnT7WImwrz3gttoHselJOLt8GLq7boZ/Pg8+LwyHFo+Co2wMNu7bjneHDsagAR7Y538SH7/piC7DNyGoDAAqELPbA14/ZkBVloBDMwbi3e9T8ChLDjObFuD5cpQolSgsVQHgke23BQuW70dgzE38vHwoZMPX4Wp+DsIOLcYoRxnGbNyH7e8OxeBBA+Cxzx8nP34Tjl1GYGv1xnEuBcfnDMSUXXfwKCcE3q4yDN0UqmdPO4PBYDAYDMZzCjWZcgpeJiMpQJA60puzxlAXcynZLfClMs2mJSfp3RYigqQzefmXERFHeSenUVuxMY3YmUocPaEL82xJYjyAtsapiJ6cplmtxQSRGdm/s4du3j5BSya7kff1x6Q4PYfsJEb0jy3xpFLdpe1DzEhkPIC2JaiIKmNoo7MRAcY0ek8mcaSg03PsSGL0D9oSryLV3e00xExExgO2UYKqkmI2OpMRQMaj91AmR8RlH6XJrcUkajmNfi4m9TxeEpOo5Vjan85pSqVGlUbXdi+ht2QtSAwQxC3pjT3J6nOK3+njyYvpwiOOVH98ToOMQDB+k/bmVvelotTjs0jWsiXJZh6jB6q6HdehzI8WviIh0y6jaNr06TR92gR63b47LfKv1fTjw+PJ1Madfnmi/n/FxfdJ1m0JBVb9P5UE0/JuxmQ7/SfK4Yi4tJ000tiMei2+THmKeLrqd4fkHEfZ37qQidU0+rmEiMpDaEXPvrQqTN0Jl3OCtu6Jp0riKOsbFzK1m08Xq6bA5Z6kGaNWU1h51f+n7aQRxkbktD6KKrk02jnSmMx6LabLeQqKv+pHd+QccdnfkouJDblXTVp19zN63dyZNsVWElElRazpSaZ911NUZZUMDAaDwWAwGC8A2jdVm4LkVUz9+iJ+3z8F7XX2SKj//l0Zrp+7ikc8j2z/PVi7ej1OxjwBVcbh5q269ysl6DthBvo7uWPnrz9h9VAJAn69gGxOBAvLFhBJXsPy05G4Ef4rlnfTsYm6NAC/XsgGJ7KAZQsRJK8tx+nIGwj/dTl0NS/6/QyuFfAQt2yNVlIAIitYtRCBHl+Hb8BjzeZqJB0x2msnLkRcwfohLSHmHyP4wjWAz8f59XsgWbwJb7XWqRQAEtjP+AFJSiWSjs00sA9cBKuhS3D05Emc/PkMAk/8CzIdW07UFODcdz8hw7EPnKq3N5u/DrdJMjw6/yN8lYDYzAzGYiv0dxmGNtbd4eLaG63EYlhatqjdyy21g8w+DV9NGI45n51CvJEb1n3UHbqGLQ04Db/Mezi/wxve3t7YfuIJXDduxmxnM0BsBjNjMaz6u2BYG2t0d3FF71ZiiC0t0aKOaiQyTxwNOgEvhwwEHNqOw2EK8OVPUNaYvTMMBoPBYDAYfzH6Kr/GI5Ki47QPMbVzdflVitSUbI1G1RQj71ExeIjQevBCbPv8CxyLUIDjS/Db7Dp/TkLcEi+3M69zXQlyc4vAg0d+Tg5UACRtumNQXzvU35hRRUkucot4gM9HTo4KgARtug9CXztdrXk8zi9AGQEiY2MYiwBUl5pUAaX8sfAe6ZYDsdp7LhylAEEEVNyAz49n4D3SGiKRCNJXVyO0EkDFZfyr4yQceco/S2fiPBXv9jTSPKyGy0X6w1LwFRV1/p61FA72dhBXKKF4rJZE165tkUhUe1zcEfOOXcE+N0sEbpuGfl0HY/HpdB37onkU5cvxxKQbJq1cgzVrqv+txpIJXdUFue7B6h8WS/EkejcWeB5CVp/34DnaFuKn/ssoDAaDwWAwGH8uzVdgA4DxAMye3Q9GAPisUzh8JlezRRUWaNPaAmJwSIyMrHq5URdiiOvd1bVAu3ZWEINDclAAUrUrvfpYtEM7KzHAJSMoIFVHYVgXMVp1fAUtxQDxPHgCgDKUVwIQW6J9h9b1lcUXIPyHr3D4Rm5N4W0kk6GjWIqer78OSGV4e9HHWLVqFVatWoWPPV3wigSAtAve+ugd9Kp+D5JXIjkiAvcLBct3bUxfxsvWeswnaY9Xu1iBi49E7QMBHhXlFRC/0gdOtnqu04TLQNzDDvDYfQ2J8eewtnc69nptw1WtveJiWLW3hXmiDw5eU9Qe5lLgeyEGQjvF61J8cSkmrpVj6jdb4O7ctuZOOauxGQwGg8FgvEg0sNLSDc9XFYWkQmUFD8AEL7drBXFxLPZ9sBl3bOyrWmrcqYQZhk8Yg5fEPJQXdsA7QA4ePLIu7sbRqAoA1QUuD1W9vxttjtFuk9BBApSH/wdbfs0EB6D07gX4xlcAINRMiecA89Fwm9QBEpQj/D9b8GsmB6AUdy/4Ir5CXUhXNQYHwGLMHEztJAUV5CK3EkDZI8gLeUhemYR/vmFRdyLg832w/v0VmDdmGKZ+eQUp8iwE7/0J0XbuWOvZE5B2h9t6b3z++ef4/PPP8dnyMeggBiDugvEfz4azCQCocHPTaPQeOBC9XTYjUl8lShWorCRUVur/I9ocxwHEV8nfEuMWeaKX4hR2HkpS//UQPgdXAjIwZNEHGFZ1A5+gQqXGmDzHg4hX/2jgMuDzxX7cLgVMHd7C2k+nwsHcBKYiMUxNTYDH2cgqyEd4cAxEY+bCvVMq9ruNxIzN38Pn1FF4z1+FEIvO6kKZAJX2YOBB4IkHwKPwfgpyi9OR9KAYZRmBOBeaDa60ENnR4Ygrrn8pg8FgMBgMxnOL5qbsBlH5kCJ+20vzepmSqOrFvt7vLKKPV62gRfMm06COFiSSdqFFAVVvvJX8TNNa1n3JUf1y4C//6kvWEhGJTNtQ1wFj6L09EfSYSijpl/nUw0hEEJlQr/nHKVpe5wVDLo+ufjqC2hmJSGRkQ12cR9HU9ecpnVNR6pU1NMJGTICE2o/7gm5kc8TlXaVPR7QjI5GIjGy6kPOoqbT+fDpVpF6hNSNsSAyQpP04+uJGNhFxVHB9G73Z0ZaGf3yYDq8YRu06utLWQDlpveJYGUNfj2lHRiIQAILIhOyGfkDH4ks0WxIR6XnJsZzC1/UhU5GIzJw+pQgdL/MV371MB9e/TR0kIEn70bT8m7MUq6zf5knieVrv2o4kEnuatO0MxT0mIqqk1LPraIKzE42cvoD+9d4s8vwqkHI5Ik5+m06ueYNsJRKyc11HJyMfEUdExQnnaMPY9iSROtCkbRco6fENWju4C/V9w4M+3riZVi9cSN7XcogjIlXyYfqnzIZayybRjrAiIiIqSThOXqMdycbEmKw6DqGFR+KohJPT7ZNr6A1bCUnsXGndyUh6pB6Mzm0YS+0lUuo0+TO6mFRGXOZpWjSgHVnadKHh8/eS/w8eZG/dmcZ9EUoaIjMYDAaDwWA8t4iInv77fwYp+xUz7abixOPOWPJ7PHYOq94fwaHwQRTupKvQtpsTXmura2+0bkoyonH7fglsZE7o2b7uPm1dlCAj+jbul9hA5tQTBpuX5yLhVgJyRe3Qw7kb2ur7Ng5fjPSY2/ijQATrTr3Qt5O1gY/b6IBX4N7NexB3/Qcc9W35YDAYDAaDwWC8MDzbArs0Al8t/AZGi9xxd9o47M1ywuaoMHzao9FlKIPBYDAYDAaD8ULQpAJbpOergYzG0QTVMxgMBoPBYDCec9ieBAaDwWAwGAwGoxlp0h1sBoPBYDAYDAaDoRt2B5vBYDAYDAaDwWhGWIHNYDAYDAaDwWA0I6zAZjAYDAaDwWAwmhFWYDMYDAaDwWAwGM0IK7AZDAaDwWAwGIxmhBXYDAaDwWAwGAxGM8IKbAaDwWAwGAwGoxlhBTaDwWAwGAwGg9GMsAKbwWAwGAwGg8FoRliBzWAwGAwGg8FgNCOswGYwGAwGg8FgMJoRVmAzGAwGg8FgMBjNCCuwGQwGg8FgMBiMZoQV2AwGg8FgMBgMRjPCCmwGg8FgMBgMBqMZYQU2g8FgMBgMBoPRjLACm8FgMBgMBoPBaEZYgc1gMBgMBoPBYDQjrMBmMBgMBoPBYDCaEVZgMxgMBoPBYDAYzQgrsF8E+EKkRgYjNC4HZQDKMmNxN5fXbNVISpAWdQcZZZrHXwR4FKXEIln5tDp4QSnLROzdXNRK/yLb8q+jJC0Kd15wpWnlgpI0RN3JwIstFaNZ4IuQEpuM/9U0+SLyZ+ckvigFscnKOmvJ3witdbIMmbF38dSlUyNoUoHNZ4fh511L8M6IoRg6bDw++PdxXE/jqs6WI/n3Q9g6//8wzGUGPvnuGpLLNTr4G1ORcg6fL1uKzcduIp8HuMwoRGVV66bxcA988LHndpwLPYN1Y7rAoVt3OHQZia3BFZpNGwWfegCzBw3GgqM5f0pwFf72L/TpNhbbwoo0TzUKLuN37PAYgE493HAgUaV5+u8Nr0TU8WVwcXTEyK3BqPaAP9uWfwv4VByYPQiDFxxFzguoNF4ZhePLXODoWDcX8Eg9MBuDBi/A0RdRqP9xuHvfYFLXfph99D6eLrNxyPh9BzwGdEIPtwNobJrkMm/gh889MWH4UAwd8Q6W7PoZoZlNX8MYDeTPzElcBn7f4YEBnXrA7UDiU/rbc4bWOslDGXUcy1wc4ThyK56ydGoc1FRU8bT1H0YklS2j4HLNk0RPzs+nfvPPU4nmib8zXB75bFpCW1a9Q91bmpDtwOk0130dnVFoNmwgXA79MLk9vXVATkQcPbq6mWbM/CcNMLYh91+eaLZuJMWUejua0hvSDZdHkTeTSaV5vMEU0ek5Pcj16xhqyHCGKA9eRjKT12hlqA7H+7vDpdOuUSZk4/5LHV02wpaMGopTb1P0C6w0Ln0XjTLRyAXFqXQ7Or1Z4uwv56nzTvPA5UXSzeRnPQuOHnz9JvWc+ws95DTPNYVyCl4mI5PXVlKT0mTlHdrQz4iM+m2gO5WaJ/XBUV7kTXrmqtLLXz3+06OVk55lDJQH0zKZCb22MpSa4iLPNVrrJEfpu0aRiY07PXXp1AiadAcbACB6Ca1tRBBZWsNaRy/iljZ45aXWkGqe+Jvj5P4J1n5+CrdjrmC7+zCMW7Uc46w1WzWQijBcDS6BhZUpADFau3yK49+MQVsd+m48FrB36oMOpprHtSkJ34X1R+41/VduRQLk/XbhmFcvNGA4g0isrWEl0jz6P4LYCpYWmsI33JaMWizsndDnBVaa2MoS2q5gD6c+HZolzv5qnjrvNAslCN+1HkfuPetZFCJBMgXHv5kCu2bJ7xJYW1tB0z0ajMgCFmbQu77rpCQcu9YfwTNXlT7+6vGbAc2c9ExjQGIN67/rQqq1TophZWnR9HhoIg0NnWagBOmxSZDzQEVuPEJCEpCn4TUq+T2E+19DwM0UKAWfSPEoehCPlCIenCIZYUHhSNZxQWlWLG4EBOFWWpH2o/OSTMQEByH0bh7KK3KRkloEPjsaV/x84et3HYlKHuCycOuSL3x9LyHsQWm9y3X2LW4DW+Ms/CHnYdJOhn7OffFaO8v6SlbJcS/cH9cCbiJFx5yrKU+PwKXLYbhfyOFRwlX4XgpBchEAsUink3CKFEReD0JYYl7N1oEaStMRm5gPriwLdyISUVA1bFlmDBLqPIvilfcRHngd0emFkGdlowQ88sN2Y87MHYhIjcZlP3/E5Ve3L0VW7A0EBN1CWlFd7ZYiPTYR+VwZsu5EILGAA4wHYN7C15CTVHc/lArye+HwvxaAmylK6NdENSoUJEcgMCgKGU80z6nRaROdctWhNAuxNwIQdCsN9cRo5Pz0+24pMmLU+744ZQoiQ6KQXj2BilwkhATjTlbdPXeGfFsMkQ4H0LSlkJ+VpsciMZ9DWdYdRCQW6JGNh/J+OAKvRyO9UI6s7CJkR1+Bn68v/K4nQh0et3DJ1xe+l8KgER71KEmPRZI68BEfEoIEzcAXsB0AlGXH4UZgMKLTCrXOwZDvA6jIS0RoQADCkxX1ZS3LREyC5rYaDoqUSFwPCkNinq7e1PDyeAT4+cLX1xe+l8KRWgoApUgNvwRfXz8ExMs1L1GjJxb1x5OAb+nMBWXIjEmoesRciHs3LqnnWPefXzCSqjbm6u1bVxzXhS/A3SC/qj79EJyktk1R8g1c8vWFX3BS7d5ffTFWko7YJDl4VCA3PgQhCXlVhYRA3hHwa8E410C/3HXg8xG2ew5m7ohAavRl+PnHIZ/Xb0PtPnkU3A2CX5Xe/YKTUKhWEm5cqm8HwAR9R/SAIlLT/ppxKCQVAFUBkiMCERSVAZ1pUp8tGoT+NZzPD8PuOTOxIyIV0Zf94B+XXxtX+sbUqUf9Y9S5UCtWBMcXpAHj6Zs/AKACeYmhCAgIR7JC05G056lGwKY1OalpMdCQXKsqSEZEYBCi9CykhvJpXfiiB4hPKQLPKZAcFoTwZM21UmAd1Wl/XXEkjO61Q3udFGseABqc75vKn1Bg88iPOIoloxwhG+uNkwcXwvVtd8x6uy96TdqPZA4AOKQcn4OBU3bhzqMchHi7QjZ0E0J1LNpcRhD2zB8A++7u2HNiE97s9zrGvDEI3WSjsflGoboRnw2/LQuwfH8gYm7+jOVDZRi+7irkPACUIv6IJ96etR2X4hMR9NV0OHXqjskHEsG36ohXcn/AwokLcDBBBUhaoUPbJOyeMQHLfLLUzqGn7/zcCBxdMgqOsrHwPnkQC13fhvust9G31yTsVwsJLuU45gycgl13HiEnxBuusqHYpEtIAFRRgkJlCSpBqCwphFL5GGWcVnQDUCLsaw+4rfZBbHoSzi4fhu6um+GfzwN8HsIOLcYoRxnGbNyH7e8OxeBBA+Cxzx8nP34Tjl2GY1OQuririNkND68fkaEqQ8KhGRj47vdIrVAiS24GmxY8+PISKJWFKFUBfLYftixYjv2BMbj583IMlQ3Huqv5yAk7hMWjHCEbsxH7tr+LoYMHYYDHPvif/BhvOnbBiOp9w1wKjs8ZiCm77uBRTgi8XWUYuikUujUBoDQWB2a5Yv7BaGQmn8Nar/24Vzfw9NhEzuuRSwUAPLL9tmDB8v0IjLmJn5cPhWz4OlyV842cnz7f5VEQeRzL35Dh1REb4XNqA2ZM98B7Uwah28Dl8Is8hg/GTcbc96diYLdh2BBa2jDf1oBXRGnZUp+f8XlhOLR4FBxlY7Bx33a8O3QwBg2Yi2NatWAFYnZ7wOvHDKjKEnBoxkC8+306rDq+gtwfFmLigoNQh0cHtE3ajRkTlsFHx3sGfL7hmBCyHVCI0C8mYfyGMFSaFOLChwPR7R+j8ObbU7DVv1TY99UTQMC22fD491Wk5cVgzwQZ+nudQbZKgagqnxy+Kaj2hUBlGL72cMNqn1ikJ53F8mHd4brZX11UaSA2a4GSK59i2jh37E1tizamAGCK1pIb2Lr2PEqsW9S/QE8szj0m1xNPcvB6fat+12p4KKJO4uM3HdFl+CYElQGouIuj2/YjPLMASqUSykeR2LdgAqasOY88Cenpm0eerjieewz13ERsgdYmifjPvPGYuO02rNtbQAzA/OUWiNi5A5HSVjAX64mx/FxEHF2CUY4yjPU+iYMLXfG2+yy83bcXJu1PBsfrzjv6/Br68pd2bSEQr5rtAF6ZBbmZDVrwPMpLlFAqHiJcpw3z9PQphkVrEyT+Zx7GT9yG29btYaFWElpE7MSOSClamYsF7K8rDlP13s0sjT2AWa7zcTA6E8nn1sJr/706BY0eW6gDzQCG1nAeyiw5zGxagOfLUaJUorBUpX/M/BwdsfAPuG/6VmCMqpno1FU+CnSOL4QhmdRtdM6/Smd8fgC2zfbAv6+mIS9mDybI+sPrTDZ4vfMUsCmvkZMaGQMNyrUoReyBWXCdfxDRmck4t9YL++stpAbyaV24DATtmY8B9t3hvucENr3ZD6+PeQODuskwevMNFEJgndebC/XFkebgVQiuHQ2gEfm+yWjuGWkwXC7tfdOYjJw3U5yOPVrl11fShNXVe3tUdP/LIWRs1Z8Wn0mhciJS/jKD2poMpS/vq4hUd+mz183JeVMsVRJRZcQa6mnal9ZH6eiYiMpDVlBXI1savcGPHlYSlSR8R5PtJGTsvJHuVHKUe3IGjVodVjU2R2k7R5CxkROtj6qkot+XUE+nlXSjenN4eQiteM2Eeq6JoEoiUiVspQGmXWnFjapdSeU3aEVXMxr0+R+kIuG+Vfe/pCHGVtR/8RlKUQtJM9qa0NAv75OKVHT3s9fJ3HkTxaqFpDU9Tanv+ijSLSURlfxAE02tyc2nzk72x4dpvGntvkvFxfdJ1m0JBVbvKyoJpuXdjMl2+k+UwxERl0Y7RxqTWa/FdDlPQfFX/eiOnCMu+1tyMbGiaT+XEFE5hazoSX1Xhan3K3E5dGLrHoqvJCIui75xMSW7+RepjNR2PzljFK0Oq9IPl0Y7RxiTkdN6iqrkKG3nSDI260WLL+eRIv4q+d2RE8dl07cutfuhVHc/o9fNnWmTWhEUsaYnmfZdT7rNXULBK3tT57lnqHore/H5eWRnVL0HW8gmJXrl4nJP0oxRq6lWjJ00wtiInNZHUVlj5ifouxxlfeNCJuYDaU1gNqmIqPz2p9TXqCUNWnWZHlYSUWUUfdrXhDp7+VOZQd8mInpMh8eb1tuDXd+Wwn7Gpe2kkcZm1GvxZcpTxNNVvzsk19zzWR5CK3r2pVVhVbvXck7Q1j3xVEkqStg6gEy7rqDa8FhBXc0G0ed/6N4lKBwTQrarpMrYLfSPFv1pS7y678rbn1Bvky60KEDdWtj3Ocr+0Y0cXb+lNI6IqJLivhxBrdrPodPFRFTlk1bTfq56T0RBF9+XUbclgTV6LQleTt2MbWn6TzmkqSIiIioJpCUyE+q2MkQdG8RRztFZNH1fuu72umIxP1t/PJUJ+ZZ2LiDiKPtbFzKxmkY/lxBRZRydP59YlV+KKOQTZ2phPYw+jyoz6Lc647hqlFoqKXbLP8jMbi6dUaqPcFmH6cOVvlREwjFWqbpPXw4xJqv+i+mM2jHolxltyWTol3RfRdp5R9CvBfKXJoJya8NlfUMupnY0/6J6FjptmBcv2Gdl7Bb6h5kdza1VEh3+cCX5qpWk3/4l+uJQByXBtLJ3Z5pb88JPMZ2fZ0dGVXuwBW1Rt59qVMn0xRAjMh6xsyp+DKzhVbnO1G4+1ahKaExdepRXCI8hpKtK7fENIyyT8Pyz6Uc3R3L9Nk0dF5Vx9OWIVtR+zmkqFpqnkE01c1KjYsBQriUqCV5JvTvPrX0nrPg8zbMzqtmDLZxPq47VpTyEVnQ1ItvRG8hPvVjRd5PtSGLsTBvvVAqv87rsbyCO6iO8duhaJx8fHk+mNXuwm5Dvm0DT72CLRRCJRAAIpHkOAHgOkFR3L0GLFhaQWPaFq2snGAOwkL2KDuJCKAsIkMjgeTQIJ7wckBFwCNsPh0HBl+NJme6fEmIzM5hK2mDwRBfYSQHzbh7YtKAvKDYQgbnFCDjth8x757HD2xve3ttx4okrNm6eDWezQlzYdxxFr78JZ/OqziQt0bJFQ9VQKtA3IGnRAhYSS/R1dUUntZB4tYMYhcoCECSQeR5F0AkvOGQE4ND2wwhT8Ch/UtbAR1m6KMC5735ChmMfOFVv2zJ/HW6TZHh0/kf4KgGIzWBmLIZVfxcMa2ON7i6u6N1KDLGlJVrUPDGRwk5mj7SvJmD4nM9wKt4Ibus+QnddG+hLA3DaLxP3zu+At7c3vLefwBPXjdg82xlmEMPMzBhiq/5wGdYG1t1d4Nq7FcRiS1jW0bFE5omjQSfg5ZCBgEPbcThMAb78CXSau9gPe4+koNfIUajeym7ayQG2kuoGQjbRL1dpwGn4Zd7D+R3e8Pb2xvYTT+C6cTNmO5s1bn6CvitGCwtziIw7oV//dpAAMJY5wl4KdOg3BHZSAFIH2LcXoVChABn0bV0TgIYthf1MbGYGY7EV+rsMQxvr7nBx7Y1Wmu4vtYPMPg1fTRiOOZ+dQryRG9Z91L1J71MIx4SQ7QBVagoyKmof9Uk7dUIHZCE19UkDfF8B35N+MHHqj3ZiAJCix4oAyDOPYJIFALElLGuVBhScw3c/ZcCxj1PN/mXz190wSfYI53/0hbK2ZS3mQ+D10VBkHv0Kp3J5gEuDzwUjTJ7aQfejQV2xaBqkP54EfUsXYlhatqjdNiLtgbff7gopeMj9VmHuvx9i1BeHsaKviUG/1RnH9QcDIEX3eZ54o/Q09vtkggeHeyfD8fK00WgB4RiDpAVaWEhg2dcVrmrHgOzVDhAXKlGgc0ER8mv9ca6FoNwNQJcN27wm2Ke0+zx4vlGK0/t9kMkD3L2TCH95GkarlaTf/o2Iw2K/vTiS0gsjR9VkSXRysEV1mhS0RYMwsIbrQHBMXXpsZSQ8hpCuNAdvEMIyCc5f4YuTfiZw6t9OHRfSHlgRIEfmkUmwEJqnkE01c5IWQjFgKNcWw2/vEaT0GolaF+kEh5qF1FA+rTpWF7EZzEwlaDN4IlzUixU8Ni1AX4pFYGAuRELrqC77G4ij+givHQZpSr5vAto5s8GYwdxUDCotQYkO+fmiYsDCsibA1cV4LSKJBCIQeAIAMaRPorF7gScOZfXBe56jYSvWHbS6kaJLj1dhgUqUP3mMfPkTmHSbhJVr1mBN9b/VSzDBMQ/3U4shNTbSsXexAfBF+vvuKgVEGnsiRRJIRACphYRY+gTRuxfA81AW+rznidG2Yt0/ThoKl4v0h6XgKyrq/N1bKRzs7SCuUELxuMowuoQViersURKj47xjuLLPDZaB2zCtX1cMXnwa6dpP/cEX5UP+xATdJq2slX/NGqxeMgFdpdA3WP39UGIpnkTvxgLPQ8jq8x48R9tCn7m5jET8oQQkUj2uKmgTYz1y8SjKl+OJSTdMWlnnmjWrsWRCV0gbMT9Dvqvp9xCJIapndRHEYoD09l/Ht8v1NKpnS8N+pstC9RB3xLxjV7DPzRKB26ahX9fBWHw6Xc9ebQMIxYSg7aQwfn0c3nw5CdcuPQAHoPxuItJsXDB+RAvDvq/IR96jMigL1D9ctKm+QaCGy03Hw1IeFRV19sNLHWBvJ0aFUoHqUKqPBJ1nL8VU0wv4al8syuKPw//l6RjXSrNdHTSULxxPwr6lC5GmvgHwmT7wWngQ5dO+xf55XapysqG+NXvRjdh2GjynWMJ//0HElUTgp/s9McPJGICBGNPMCRBBonYMPfYS8uuG5y/DcjcALdUY6FNsi2meU2Dpvx8H40oQ8dN99JzhBGND9jduaBxyyEj8A0pIoDtNGrJFw9DMZfXXcE0aMKaWHoXHENRVQ4XQQP94wvMXyfPwqEyJAoW28ILzFLRp/ZykC/0xAOFcy2UgUb2Q6i76DOVT3QlQC2mXHnjVAqgsLwcZWke1RDUQR3UxsHYYomn5vvHo1HXDMEanzh0gyryHpGLNcxxSYx6iVdeONQW2IMUXsXTiWsinfoMt7s5oW60fPbpVQ6A6SqgsLQPftht6vmKD9rbmSPQ5iGuK2vNcii8uxLaATUvgYWQYHmhnKTUSKSQ6kgYRB4it9PcdY2jPVzEuLp2ItfKp+GaLO5wbJqQwkvZ4tYsVuPhI3KrZp8SjorwC4lf6wMm2oeblkBH3EB08duNaYjzOre2N9L1e2HZV+w+Yi63aw9Y8ET4Hr6FWBRxSfC/AoAqqKL64FBPXyjH1my1wd25bk+B1aULU6iW0kpYh7lY06s+GwPMwYJNyPXJVwqq9LcwTfXCw/kXwvRADZSPm1zTfNYQe327fkGhqBj/jMhD3sAM8dl9DYvw5rO2djr1e23C1HJBIJTqKIALpiychBG2ngrjNJOzc6wGTa19jy84d+Oy0GT72PYb5DhLDvv+KLTramSHX92dcKqg9L/fdjxNJ2pOVtH8VXaw4xEfeqt1rz1egvEKMV/o4QW8otXTFkvd74+53n2Pzt7fRY+YoVD8cawiC8aRsBt9SJWH/gkX4zepf+P7rKbAVA7wiD/Lm6BsA0AJvenpAFn8YX20+icIR09FZAgBiwRhrYKqog5BfNzx/PZN4bUCfLd70hIcsHoe/2oyThSMwXa0kYfuX64/D+ojQ6qVWkJbF4Va0xkniwTe7LRpC848pqKumdCiI8Pzp5Y6wM8uF78+XUJte5PDdfwJ/WAjMs8E21YVQDBhA1AovtZKiLO4WtF2EN5xP9SZAgOovVijj26Jbz/Z40ph1FA2LoxoMrB2GaHK+byRP0Y0xBs57H0PEV7H7s2vIrVmzKpDl742Pr/WEx5sWVcd4cJwKxNcpXInUwc/z4AvvIyW3GOlJD1BcloHAc6HI5kpRmB2N8Dit6l0Nn4+01KpzfBbOno1BT88PMNrUAmPmuqNT6n64jZyBzd/74NRRb8xfFQILx/b4v3dGwiz8c8z4YC8uRdzC70cO4/fs2gVX0tYO7YwzEXb5NnLz7uLC3iO4IVchP+MBHhVJ9PfdWQqe46AivuaONUAgkFpGvhD3U3JRnJ6EB8VlyAg8h9BsDqWF2YgOj6sZvx4VFaikClSU13FgjgNX1SfQEuMWeaKX4hR2HkpSv0DI5+BKQAaGLPoAw0yqriFAVanhdDwHnqqKVHDI8PkC+2+XAqYOeGvtp5jqYA4TUxEgNoWpCfA4OwsF+eEIvj8Ec907IXW/G0bO2IzvfU7hqPd8rAqxQGdpzWAaCZQHx6t/SfPgUXg/BbnF6Uh6UIyyjECcC80GV1qI7OhwaJpb3GY8Zo17CSkHl2Lt+XRUoBxpt+OQxymQmZaDwlIBe3cW6ZXLYsxcuHdKxX63kZix+Xv4nDoK7/mrEGLhgJJGzM+Q73I8X7XIVUNqv6hJGur/5vk6RZ9e3wYADhynToo1fda1ZQP8jKCCpjvUg8uAzxf7oVbbW1j76VQ4mJvAVCRBW7t2MM4Mw+Xbuci7ewF7j9yAXJWPjAePUKTjA2SCMQEh20kBxUWs2ZCByV9vw2qvpdj0xSbM6lv9fNOQ77fE2LnT0CHnGN5/Zwn+4/MrTuz4EB4+Ugx2lFT5JKkXFwBoOQ6LPHtBcWonDiWp3ybnc64gIGMIFn0wDNWhpI0U3RcswbjK/+Lr+EGY6Wzg7olmLFqM0RtPDiXCvlU/F6jhOR5U42+liPz8Pay50QWrD2+Di426jcL3DK5kG+hbZxzrRuo0DwuHyfHjKcL4ca1rjuuPsc6Q8hw4lfpOYf0lga/64ayRd6JzBPw6Rm+ca2IoXjURm5rCBI+RnVWA/PBgxJRq27BBfUqdMG/hMMh/PAUaPw41WhKwf2eRvjisGboKMdqMn4VxL6Xg4NK1OJ9eAZSn4XZcHjhFJtJyCiESsoVmdwCAcpSXA6SqRCVBHS8CazgghqnaYMgqyEd4cIzhMTVjwdAYQrqSao9fWnoTe+aMwz83X0K2zjuSwuMJ+m/LsZg7rQNyjr2Pd5b8Bz6/nsCODz3gIx0MRyuBeQraVCMnNSoG4oRzrbgNxs8ah5dSDmLp2vNQu8htxOVxUGSmIafQyEA+repSCx75aalQezmPrLNnEdPTEx+MNja8zjcljmowsHboWCc59QF1fmlyvm8kmpuyGwdHj258Qwvf6EPd+g4hlzfHkMuIYfTGrM/ocnrtxnRlzCla69KWJEYymr7jIsUnXadDiwaTtdicnOZ/R8EZGXR60QBqZ2lDXYbPp73+P5CHvTV1HvcFhVa9F1KXyqhPqY+xLQ2cNp8+XLqMPpw5mdw+OUdpNe9ZlVDCcS8a7WhDJsZW1HHIQjoSV/WioCqLLm8YT93atCArh1G01MeXNvQ3q3nJkegxBW8dQx2trMjOaSp94X+RVjq/SiPmbKTjNx/p71sZQ6fWulBbiRHJpu+gi/FJdP3QIhpsLSZzp/n0XXAGZZ5eRAPaWZJNl+E0f68//eBhT9adx9EXOoSsTLlG/1k0lFqLxdR21Era/99QelicSOfXu1I7iYTsJ22jM3GPiaiSUs+uownOTjRy+gL613uzyPOrQMrliIiT0+2Ta+gNWwlJ7Fxp3clIesQRUXECndswltpLpOQwaRtdSHpMN9YOpi593yCPjzfS5tULaaH3taoXG1SUfPifJLNpTbJJOyisiIhKEui412hytDEhY6uONGThEYor4Uh++yStecOWJBI7cl13kiLVg1HCuQ00tr2EpJ0m02cXk4jLPE2LBrQjS5suNHz+XvL/wYPsrTvTuC9CSVsTRJwigr71GEj2Ntbk0H88fbRxHg3sNIjcPzlModmcfptQuYBcRCUJx8lrtCPZmBiTVcchtPBIHJUQNW5+XKZe3/09/CxtGGtHEmlnmrL9HMWmRdOvWyZQR4mUOk/2pt/uPKBIn/X0lp1aN96+yVQi6NtPKPH8enJtJyGJ/STadiZOhy1L9frZ536BdHLNG2QrkZCd6zo6GflI98sc5Tdo7eAu1PcND/p442ZavXAheV+revHjcTBtHdORrKzsyGnqF+R/cSU5vzqC5mw8TjcfafRmMCYyBWxHxGX+SDPtTUgEEEQiEhuZklXbV2mE5zG6W07Cvk+k7vuEF42WtSHLlnbU330HXc/T8EmHSbTtQpK6eWUqnV03gZydRtL0Bf+i92Z50leBubp1VI8yClziTOMPZOpvqy8WSV88CftWaI52LihOOEcbxrYnidSBJm27QLEBa6i3qZisnd1pxapVtGrVKvp4yRwa/to/6WSRvr4/J79AXXEsjOLXeTRu8x2tF+Z0x5iSYk6tJZe2EjKSTacdF+Mp6fohWjTYmsTmTjT/u2DK5DTzDqfXr78IzROM83oI6VQruNUv+x3+p4xsWsto0peXKFiXDRvap+JXmjdus/aHW/TZXygOteBIEfEteQy0JxtrB+o//iPaOG8gdRrkTp8cDqVsTp8ttFE9DKGTX82lPhYiEls60Zztx+jSFR/hNTyTI1XyYfqnzIZayybRjrAiIn321xMLBuuETE6/roi0xucyD9Pkdtb0UtshtDlWU+kNG0/n/Ks7KEmgE16jSdbGklra9Sf3Hdcpz1BM67WprpzUiBi4csNwruUUFPGtBw20tyFrh/40/qONNG9gJxrk/gkdDs1uQD7VoDKKPu1jTLYDp9H8D5fSsg9n0mS3T+hcVSGmdx393I8Cddi/wXFUg761Q3udfJJ4nta7tiOJxJ4mbTtD6tKpqfm+4YiI9O/+fF5RRa9H/0FnMD7kFrY46f793WC4BGwd2B8/jwlE1Gf/0PNrnsH4c2hW337B4TPPYvP+Irzj4QT+kQKFxaUoVmThzs9Hkb3AF3vGNNt9hqeDT8c+j21os2s/plTdJWYwGM8DFQhe+wFuzd+PxVXbchjNhCoa6/sPwpnxIbi1xYnVTjp4ii0izwE6H/swGH8D/td9m8/EMa8luNP5/9C7c3f0HTAEI0aPwdtTpsK1/z/QQ70f6S+FKy6AooxHccheXLGdibdZcc1gPEfwkIccwPnWMzGbFdfPkP/1xUo/L2SBrSoowGOuEHJFM3x5R/UIjwpVKFY+btB+QwbjWdKsvv1CI4V1OzP8vvh1jJ65GOs2b8PWDR/j/Vn/wq+dF2J+l794wVTFYNtIW7Rt2w6vLSrA7KVD/hafJ2cw/i7wilhE8+OwcflIsN++zwBVAQoecyiUKwx+8fF/lRdui0h58hUc+W8QUgtVkFo7YOS0uXDpbKzZrGFwmbhx7EdcSpKj0sgGnUe7YcFIB81WDMafQrP69t+CcmSGn8fZgFhklUpgY98PYyb+H3q1/ouLawCACmmX9uFE3Et4c/Y09G/zQt6rYDAYjMZTnowrR/6LoNRCqKTWcBg5DXNdOuN/ebXSxQtXYDMYDAaDwWAwGM8z7LYLg8FgMBgMBoPRjLACu0lwUNyLxYMSzeN/IXwRUmKToWyO9w2asy8Gg8FgMBiM/zFYgd1IuLTfsWN2P3TqPQ8n0rS/CPfnwyHj9x3wGNAJPdwOIPGp3tRszr4YDAaDwWAw/jdhBXYjkdiPxkdzh8FG5/c7/wok6DDaCwtGtK7zdcCm0pS+eOTfisT95+G3BoPBYDAYDMZzACuwm4DEwhIWz5XmJLC2toLWF3SbRCP7KgnHrvVHcI/d7WYwGAwGg8EAmqPArshLRGhAAMKTFah7E7M0PRaJ+RzKsu4gIrGg9lxpFmJvBCDoVhqK6u3xVUF+Lxz+1wJwM0VZry+gFOmxicjnypB1JwKJBfXP8tnRuOLnC1+/60hU8gCXhVuXfOHrewlhD0pr2pWkxyJJzgMVuYgPCUFCnkZVqJLjXrg/rgXcRIpS4JasSFRVgBJU+XcRFhaPnDKNNgJ98cr7CA+8juj0QsizslFvK7de/ehAVYDkiEAERWXgieY5NG9fKvk9hPtfQ8DNFFSLw+eHYfecmdgRkYroy37wj8uv+ZPznCIFkdeDEJaYp/U3MgXlZzAYDAaDwXjBaXqBzecjYNtsePz7KtLyYrBnggz9vc4gMycMhxaPgqNsDDbu2453hw7GoAFzcUzOI9tvCxYs34/AmJv4eflQyIavw1U5D3ApOD5nIKbsuoNHOSHwdpVh6KZQlIJHXtghLB7lCNmYjdi3/V0MHTwIA+Yeg7zOVMStOuKV3B+wcOICHExQAZJW6NA2CbtnTMAynyxU5kfg6JJRcJSNhffJg1jo+jbcZ72Nvr0mYX+yulrkUo5jzsAp2HXnEXJCvOEqG4pNobXFuTaE3AteGOw0GC5De8Gh20TsiiwGDPRVEbMbHl4/IkNVhoRDMzDw3e+RqgIAAf3ooDT2AGa5zsfB6Ewkn1sLr/336vwoac6+OKQcn4OBU3bhzqMchHi7QjZ0E0JLeSiz5DCzaQGeL0eJUonCUhUAJcK+9oDbah/Epifh7PJh6O66Gf756rH1y89gMBgMBoPxN4GaBEfZP7qRo+u3lMYREVVS3JcjqFX7OXS6mIhL20kjjc2o1+LLlKeIp6t+dyg/+yTNGLWawsqrekjbSSOMjchpfRSV3f2MXjd3pk2xlURUSRFrepJp3/UUVakeK23nSDI260WLL+eRIv4q+d2RE1d/QqRK2EoDTLvSihtVA5TfoBVdzWjQ53+QiohU97+kIcZW1H/xGUopJyLlLzSjrQkN/fI+qUhFdz97ncydN5F6ChG0pqcp9V0fRZUa4xARVUasoZ7GdjRhdwTJVUTFsd/RVAcjMum/mWIqhfoqp5AVPanvqjB6QkTE5dCJrXsovpKIy9WvH605lATTyt6dae4ZRdWBYjo/z46MXltJoeXN2xep7tJnr5uT86ZYUouzhnqa9qX1UZVExFHWNy5kajefLpapr1ZcfJ9k3ZZQ4JPa/pd3Mybb6T9RDqdffgaDwWAwGIy/C028g62A70k/mDj1RzsxAEjRY0UA5JlHMMkCEJuZwVhshf4uw9DGujtcXHvDNOg0/DLv4fwOb3h7e2P7iSdw3bgZs53NIJF54mjQCXg5ZCDg0HYcDlOAL3+CMh4AxDAzM4bYqj9chrWBdXcXuPZu1ehb75IWLWAhsURfV1d0MgZgIcOrHcQoVBaAIIHM8yiCTnjBISMAh7YfRpiCR/mTspotD1pIbPEPl35oJQEser6HHcuGQhQbhOuPRAJ9SWEns0faVxMwfM5nOBVvBLd1H6G7FCgN0K8fTYr99uJISi+MHGVddcQUnRxsUf19u+bsCxIZPI8G4YSXAzICDmH74TAo+HI8URtHgwKc++4nZDj2gVP1d6PNX4fbJBkenf8Rvkr98jMYDAaDwWD8XWhsnaqGkyPvURmUBQq9f0uj/ktyPIry5Xhi0g2TVq7BmjXV/1ZjyYSukIqleBK9Gws8DyGrz3vwHG0Lcb2OG/zKnX5q9k1X/78EEhFAvHogsfQJoncvgOehLPR5zxOjbcV6ZdNGjDadO8FaxEFVKdSXGB3nHcOVfW6wDNyGaf26YvDi00jnDOin3lgcMhL/gBISSHVarzn7AgAxpE+isXuBJw5l9cF7nqNhW984tXC5SH9YCr6iArVb0qVwsLeDuEIJxWPokb9eLwwGg8FgMBgvNHrLKkEkL6OjnRlyfX/GpYLqgzzkvvtxIklXtSSGVXtbmCf64OA1Re1hLgW+F2KgvLgUE9fKMfWbLXB3bltTBOop43QjkUICQlW9XAORrvloUoyLSydirXwqvtniDue2jZ9Baf4jPOnYF/1eLhXoi0NG3EN08NiNa4nxOLe2N9L3emHb1UpB/dTfoixCq5daQVoWh1vR5fXOgHjwBnTduL4AFF/E0olrIZ/6Dba4O0NQNZL2eLWLFbj4SNyq2b7Oo6K8AuJX+sDJlvTIrzE2g8FgMBgMxgtM0wpstMTYudPQIecY3n9nCf7j8ytO7PgQHj5SDHZUby4gqFBZp5qzGDMX7p1Ssd9tJGZs/h4+p47Ce/4qhFg4oOR+CnKL05H0oBhlGYE4F5oNrrQQ2dHhiCtW9wZVpUZxWB9JWzu0M85E2OXbyM27iwt7j+CGXIX8jAd4VFQGnuOgIr7mjjVAIBB4ngfPF+J+Si6K05PwoLgMGYHnEJrNobQwG9HhcRojVUGlKFRWFYZlsTh4/D7+79PFGCQV6isGGT5fYP/tUsDUAW+t/RRTHcxhYioS0E9njbvOYrQZPwvjXkrBwaVrcT69AihPw+24PHCKTKTlFELUjH0VF95HSm4x0pMeoLgsA4HnQpHNlaIwOxrhcaUwNTUBHmcjqyAf4cFpGL3IE70Up7DzUJL6r4fwObgSkIEhiz7AMBNOr/zg5biyyQ3/3OqPOj8LGAwGg8FgMF44JBs3btyoebAhmL7qgje7FOLm+ZP44afLSLYchy07/oVeFdH4+atdOHY9EWkKHu279UH39uYQGXfCiDc643H0Ffz640mcuZGDV+buwNZJHWDToSUe+R/Hf3YewtX8rpj5tgmu/eaPrI6TMMn6Br7ddQzXE9Og4NujW5/uaG+uY8uIaSe8wofi8I7Pse9iBrrM+SdeighDkU0r2Lxsgvsn9+FQ0F3kcS3h2L01ci/uw76ToUgsILTvNQITe5XD//h/sPPQVeR3nYm3Ta7hN/8sdHxnLoa8Ur2hWI3Yxh4djO/hl13/wW8htxB6ORImc/bgi3c7wVjUAh1aPtLT1yx0TNqLjV+dQtSDB4gNDIVi0GpscHdECxN9+nkFRvVGB0SWPTBmRBukXfoen2/9Br+EF6CNTREecK1g26oz+vQfhrfHNE9ffQcPgp3cH8f/sxOHruaj68y3YXLtN/hndcQ7c0ehc9tK3D37PfYfiYXDu/PgMvAN/F+vElzZ9TkO+t9ChJ8fHv5jE/YscoaliEPGta91y0/ZuPTlevyQ1Rsz3PrDpok//RgMBoPBYDD+akREDf9mH4PBYDAYDAaDwRCG3SdkMBgMBoPBYDCaEVZgMxgMBoPBYDAYzQgrsBkMBoPBYDAYjGaEFdgMBoPBYDAYDEYzwgpsBoPBYDAYDAajGWEFNoPBYDAYDAaD0Yw83wU2X4jUyGCExuWgDEBZZizu5vKarRpHSRqi7mTU+ZQ3ox5PrR8eRSmxSFZW26kEaVF3kNH0Dp9DypAZexdP64pNQ3Psv6N+mwNNP3ze+fvZlS9KQWyyUv1FWAAlaVG4IyjQi2az5xy+CCmxyXg+1Klp2wb4d7PMvwHjNArNOGW8WGj64bOlaQV2RQr8j3yGBW8Nw5ChwzHhX5/j4MV4FGm2ewq4Bz742HM7zoWewboxXeDQrTscuozE1uAKzaaNgEfqgdkYNHgBjub8OQou/O1f6NNtLLaFNad2nhVPpx8u43fs8BiATj3ccCBR/d1NPvUAZg8ajAVHc2oW2hcXHsqo41jm4gjHkVvxVK7YaHSP/ffSb/Ogyw+fX/6GduUy8PsODwzo1ANuBxLVX+DlU3Fg9iAMXnAUulLLi2Wz5x0OGb/vgMeATujhdgB/tTp12VbYv5tv/sLjNAbdcfq/BY+0A1PRtc90HEh88RSgyw+fOdRkyujaB/YkMR5OOx5wmiefDi6Hfpjcnt46ICcijh5d3UwzZv6TBhjbkPsvTzRbN47iVLodnU4N6YXLi6SbySrNw42giE7P6UGuX8c0aLzngkboRxflwctIZvIarQwtrzpSTKm3oym9qR0+d3CUvmsUmdi409O6YuPRNXYz65fLo8ibyfQ0Xv88oO2HzzN/gl3/bMqDaZnMhF5bGUo1mSD1NkULCPRi2ex5p5yCl8nI5LWV9DyoU9u2hvy7ueZvaJzGoCtO/4fgMmnv293J/UTqC7s+aPvhs6Vpd7ABABJY2VhBLLJCq9ZP0Y0uKsJwNbgEFlamAMRo7fIpjn8zBm2bYxgLezj16YD6Hz/XRQnCd63HkXtP8UunIgHyfrtwzKtXA8Z7TmiwfnQjsbaGVb0v2VvA3qkPOjS1w+cOMawsLVBPxD8NXWM3r35Lwndh/ZF76ruOLzDafvg88+zt+qcjsYa1hgEs7J3QR0CgF8tmzzsSWFtb/UV5Shtt2xry7+aav6FxGoOuOP0fojQe/NtHsN/dHhLNcy8I2n74bGmGkrUBs1XJcS/cH9cCbiJFyWmerUd5egQuXQ7D/UIOjxKuwvdSCJKLAIhFOkfiFCmIvB6EsMQ8aD60KE2PRWI+h7KsO4hILIB65DJkxiTUeUzJQ3k/HIHXo5FeKEdWdgnA5yNs9xzM3BGB1OjL8POPQ35N+1Jkxd5AQNAtpBXVfehUivTYRORzZci6E4HEAg4wHoB5C19DTlJuncdTKsjvhcP/WgBupiir5iRECdJjkyDngYrceISEJCBPq/rhoEiJxPWgMCTmaWpBh3yCaOqnIeOrUJAcgcCgKGQ80TwHlGXGIEHzuXBFHhJDAxAQngxFPSU0Vj9qSjJjEBwUirt55ajITUFqEY/s6Cvw8/WF3/VEKHmAy7qFS76+8L0Uhgelda/WZ1PdiEU6PbEZbaBfP7rG1qnf0izE3ghA0K001BOpJB2xSXLwqEBufAhCEvKqimke+WG7MWfmDkSkRuOynz/iapxev3545X2EB15HdHoh5FnZEJSML8KD+BQU8RwUyWEICk+GkgPAZyP6ih98ff1wPVEJHhyybl2Cr68vLoU9QH1T6ZELMOiH+uVoiI9rozu/CM1Rv28btGvhPdy45Atf3/r//IKTqvao6u8bpemITcwHV5aFOxGJKNAbVDyKHsQjpYgHp0hGWFA4knXk69KsWNwICMKttCKtx+6qgmREBAYhSpcByjIRk6D5qN6QzZohrng54gP8qnR2CeGpao8qTQ3HJV9f+AXEQ64piAZ/Zn4BgIq8RIQGBCA8WaGRAwXsDACqAiRHBCIoKgPa6jRwrSb64rUeQrIJ21Zn3hKcPwBOgZTI6wgKS4SWO+hBc5yS9FgkqYMd8SEhSNAR7Pr0XxunhuzPQx4fAL+qOL0UnqrOY6WpCL/kC1+/AMTXOJ2QDmvhs6Nxxc8Xvn7XkageELcuqX06rI7DNUQ+LfStC3Vz88N/wPNf/fBYV24uzUDM3Vzw4KBMiURIVHrNWlCRm4CQ4DvI0rEPXl8u0Ztbm2B/Q37YUP03hWYosIXhUo5jzsAp2HXnEXJCvOEqG4pNofWyTz2oogSFyhJUglBZUgil8jHKOF1CKxH2tQfcVvsgNj0JZ5cPQ3fXzfDP58HnheHQ4lFwlI3Bxn3b8e7QwRg0wAP7/E/i4zcd0WX4JgSVAUAFYnZ7wOvHDKjKEnBoxkC8+30qKpRZkJvZoAXPo7xECWVhKVQA+Gw/bFmwHPsDY3Dz5+UYKhuOdVfzkRN2CItHOUI2ZiP2bX8XQwcPwgCPffA/+THedOyCEVuD1cU/l4LjcwZiyq47eJQTAm9XGYZuCq1fQNTAIz/iKJaMcoRsrDdOHlwI17fdMevtvug1aT+Sqz1OGYavPdyw2icW6UlnsXxYd7hu9q/6QaBbPt3hxkMRVVc/DRy/NBYHZrli/sFoZCafw1qv/bhXdY5XROHkx2/CsctwbFIrXC1XwDbM9vg3rqblIWbPBMj6e+FMNt9I/VRRGo8jnm9j1vZLiE8MwlfTndCp+2QcSOTRquMryP1hISYuOIgEFSBp1QFtk3ZjxoRl8MlST1K3TeVahYMgzWYDCOtHs6Ue/Wb7bcGC5fsRGHMTPy8fCtnwdbian4uIo0swylGGsd4ncXChK952n4W3+/bCpP3J4HglsuRmsGnBgy8vgVJZiFKVsH4qYnbDw+tHZKjKkHBoBga++z1SdQrGISNoD+YPsEd39z04selN9Ht9DN4Y1A2y0Ztxo6gVOr6Six8WTsSCgwlQQYJWHdoiafcMTFjmA7Wp9MhVvUgJ+CH02jkfuQ3xcQ1055e5OCYXmGMjfFuXXSvuHsW2/eHILFBCqVTiUeQ+LJgwBWvO50FCevrm8xB2aDFGOcowZuM+bH93KAYPGoC5x+SaQ4LLCMKe+QNg390de05swpv9XseYNwahm2w0Nt8oVDfis+G3ZQGW7w9EzM2fsXyoDMPXXa0qTksRe2AWXOcfRHRmMs6t9cL+2kSAqKpcOHxTUO0L1AZs1mxxJTZDi5Ir+HTaOLjvTUXbNurbmaatJbixdS3Ol1ijhb6V8M/OL3w+ArbNhse/ryItLwZ7JsjQ3+sMsnnD60dp7AHMcp2Pg9GZSD63Fl7779UpTISvrY+BeK1xBwHZBGyry7/VlwjMH4Ay7Gt4uK2GT2w6ks4ux7Durtjsn69Xl5rj8PkROLpkFBxlY+F98iAWur4N91lvo2+vSdhfHexC+q+H2ID9CWYtSnDl02kY574XqW3bqJ8Km7aG5MZWrD1fAusWYmEdaiBu1RGv5P6AhRMX4KB6QHRom4TdMyZgmU8WKhsinyZ8vvC6IDaQmysLEHl8Od6QvYoRG31wasMMTPd4D1MGdcPA5X6IPPYBxk2ei/enDkS3YRtQU/rpySX5Ofpya+PtDwj7IQz5cHOguWek4VTSzXW9yMhkPB1+rHmuGhXd/ex1MnfeRLGVRFQZQWt6mlLf9VFUqdm0LiU/0ERTa3LzKak99vgwjTet3YOtuPg+ybotocDqvVAlwbS8mzHZTv+JcjgiLm0njTQ2o16LL1OeIp6u+t0hOcdR9rcuZGI1jX4uIaLyEFrRsy+tClN3wuWcoK174qmSiLisb8jF1I7mXyxT98/l0skZo2h1WNXeHS6Ndo4wJiOn9RRVyVHazpFkbNaLFl/OI0X8VfK7IyeOy6ZvXUzIxv0XekJEqruf0evmzrRJrQyKWNOTTPuupyi9ylDR/S+HkLFVf1p8JoXKiUj5ywxqazKUvryvIiIFXXxfRt2WBNbsmS4JXk7djG1p+k85xAnIpxsN/Rgcv4SCV/amznPPkKKqh+Lz88jOqHaPE5f9LbmYWNE0dYfEZf9Ibo6u9G2aet9+ZdyXNKJVe5pzurgJ+imi35f0JKeVN6jaU8pDVtBrJj1pTUQlEakoYesAMu26gm5Uma38xgrqajaIPv9DZcCmNYNo8fjweDKt2YfXvDYQ0g9pja1Dv7knacao1VQr0k4aYWxETuujqFJ1n74cYkxW/RfTmZRyIlLSLzPaksnQL+m+ioi4LPrGxZTs5l+kMnVnAvopp5AVPanvqjC13FwOndi6h+L1CUblFLKiKxnZjqYNfg+pkkoo4bvJZCcxJueNd6hSlUBbB5hS1xU3qvbsltONFV3JbNDnpDaVgFyG/FBQDkM+rhtd+SU/W/8cywz4tiG7Vsadp/OJVY2LQugT5xZkPexziiozkFe4NNo50pjMei2my3kKir/qR3fkut+ZKQ9ZQV2NbGn0Bj96WElUkvAdTbaTkLHzRrpTyVHuyRk0anVYlX04Sts5goyNnGh9VCWVBK+k3p3n0plaA9A8O6PaPdhVudBq2s9VsWrAZs0cV0QlFLhERibdVlJIdUrPOUqzpu+jdN3q+AvyC0fZP7qRo+u3pA7/Sor7cgS1aj+HThcbsHNJMK3s3Znm1hqAzs+zI6OqPcyC1+rEQLwKymbIttr+bWj+pLhI78u60ZLaBZ+Cl3cjY9vp9FOOXgNqjaO6/yUNMbai/ovPkDoF/kIz2prQ0C/vk8qA/kkrTg3Yn4hKApeQzKQbrax1Ojo6azrtS+ea4B9EqoStNMC0K62oHZBWdDWjQZ//QSqD8unB0LpgIDer1w0TMh+4hgKzVURUTrc/7UtGLQfRqssPqZKIKqM+pb4mncnLv4yIhHOJrtwqlzfF/gb8sAn6byz6frc3ExLIPI8i6IQXHDICcGj7YYQpeJQ/KXvKXwgFOPfdT8hw7AOn6r1V5q/DbZIMj87/CF8lIDYzg7HYCv1dhqGNdXe4uPZGK7EYlpYtareaSO0gs0/DVxOGY85npxBv5IZ1H3WHtHagWkoDcNovE/fO74C3tze8t5/AE9eN2DzbGWYQw8zMGGKr/nAZ1gbW3V3g2rsVxGJLWNa5NSKReeJo0Al4OWQg4NB2HA5TgC9/gjK9ypCgRQsLSCz7wtW1E4wBWMheRQdxIZQFBBScw3c/ZcCxj1PNnmnz190wSfYI53/0hbIx8gEANPRjaPxiP+w9koJeI0fBuuoK004OsK2zQUtsaYkWdZ5+K3xPws/ECf3bqfUi7bECAfJMHJlk0Xj9FF7AvuNFeP1NZ5hXHZK0bKn/bpQmgjZtIM1sAyH96EJTv6UBp+GXeQ/nd3jD29sb2088gevGzZjtbAZIWqCFhQSWfV3h2skYgAVkr3aAuFCJAqrba01nAvqRwk5mj7SvJmD4nM9wKt4Ibus+Qnd9gkEMMzNTSNoMxkQXO0hhjm4em7CgLyE2MNDgn70SlMuQHwrKYcDH9aArv5gG6Z9jY31b067SHm/j7a5SgJfDb9Vc/PvhKHxxeAX6mhjIK2IzmBmLYdXfBcPaWKO7iyt6t9IdIGIzM5hK2mDwRBfYSQHzbh7YtKAvKDYQgbnFCDjth8x757HD2xve3ttx4okrNm6eDWezYvjtPYKUXiMxqtYAcKifCGBZVyBDNmvmuALMMcTrIwzNPIqvTqkfZaf5XIDR5KnooFsdf0F+UcD3pB9MnPpDHf5S9FgRAHnmEUyyELZzsd9eHEnphZG1BkAnB9uavbJC1+rGQLwWC8hmyLY6/NvQ/AvOfYefMhzRp3bBx+tukyB7dB4/+iqrjmmjOY6kRQtYSCzR19UV6hQow6sdxChUFoAM6L8pmA/xwkdDM3H0q1PI5QEuzQcXjCZjagdxE/zDMMLy6aGx64Im4hawMBfBuFM/9G8nAWAMmaM9pOiAfkPsIAUgdbBHe1EhFAoCUCqQS3TnVlxogv0N+eEz0L8mDU0VTUYsfYLo3QvgeSgLfd7zxGhbsX5DNxQuF+kPS8FXVNT5e81SONjbQVyhhOKxOmto72oERKI6e7nFHTHv2BXsc7NE4LZp6Nd1MBafTte5N40vyof8iQm6TVqJNWvW1PxbvWQCukqhbzTU21opluJJ9G4s8DyErD7vwXO0LcQGlCHS2JspkkggAoEngMtNx8NSHhUVdTY3SR1gbydGhVKBx2i4fNXU04+h8TMS8YcSkEgF3EhUVwcc5HmPUKYsgEKX3I3UD5d1H6nFUhgb6dK9YQzb1DDNawMD+tFFPf3yKMqX44lJN0xaWSvPmjWrsWRCV0g1/REiSCQigHidMSmsHzE6zjuGK/vcYBm4DdP6dcXgxaeRrlsw3Ui7oMerFkBlOcp1TaAGYblEBvxQWA5hHxei/lXCc5Q20rfr27UaHpk+Xlh4sBzTvt2PeV2qVgpDfWv101Ck6NLjVVigEuVPHiNf/gQm3SZhZR0drlm9BBMcs5GoNoDAgiKqp2dDuaN540qNpPNsLJ1qigtf7UNsWTyO+7+M6eNaaTar4U/PL5wceY/KoCxQ6IxH/XbmkJH4B5SQQI86Ba5tBHXi9clj/bI5ZgvbFtD0b0Pz55Cb/hClfAXqu4M97MQVUCoe679hpxlHGusbRBKoUyAZ1n9TkHTG7KVTYXrhK+yLLUP8cX+8PH0cWjXFPxqCkHx60cw1wuuCNprXAyKxCPUuFokhBqkP8UX6c0mV4PW7a5r9DeWYZ6J/DXSP/NRwuP/jEVwtKcbFpROxVj4V32xxh3Pb6lk3zGx6kbTHq12swMVH4lbNJjIeFeUVEL/SB062DRSLy0Dcww7w2H0NifHnsLZ3OvZ6bcPVcs2GgNiqPWzNE+Fz8BoUNUc5pPheQIzOjX/aFF9ciolr5Zj6zRa4O7etudvSVG1I2r+KLlYc4iNv1e6l4ytQXiHGK32cYEsNl68piFq9hFbSMsTdikb9Lgm8Lo+HBC93tINZri9+vlRQc5SX+2L/iSQUNlI/ImsbtMRDRIY90LuwSqQSHYmCQFzz2LR5bSCsH30y1iKGVXtbmCf64OC1WonApcD3Qozu/akCCOuHQ0bcQ3Tw2I1rifE4t7Y30vd6YZtuwWohqpMMK1FaxqNtt55oL5FAbSoNaxOBMyAXZ8APheWod8FTIDxHZSN9WxeqpP1YsOg3WP3re3w9xRZi8FDkyZul71oIVCd2K0vLwLfthp6v2KC9rTkSfQ6ivni+uBBrhZdaSVEWdwvRGuYn3YnAYO5o3riqpiVcl7yP3ne/w+ebv8XtHjMxqvrWtA7+9PwieRkd7cyQ6/szasOfh9x3P04kcQLrhwitXmoFaVkcbmkbAPzTrD164vUVG/2yxVoJ21YbQ/OXoP2rXWDFxSOydsEHX1GOCvEr6ONk2zyFjAH960LI/tW0dF2C93vfxXefb8a3t3tgZpXTNdo/AEAihUTHj3+qO2CzI5Sbm4DYSn8u0Sl40+xvKMc0Sf+NRNe8GgiPirIKED3Bk9L6UVMatw8bQ83gbFaI+ym5KE5PwoPiMmQEnkNoNofSwmxEh8fVu6YeFRWopApUlNfpl+PAgcDzPICWGLfIE70Up7DzUJL6BUI+B1cCMjBk0QcYZqK+hKBCpYaieI4HVSUdcBnw+WI/bpcCpg5vYe2nU+FgbgJTESA2NYUJHiM7qwD54cGIEY3BXPdOSN3vhpEzNuN7n1M46j0fq0Is0FmqHg2qSo0ihgfHqx2TB4/C+ynILU5H0oNilGUE4lxoNrjSQmRHhyOuuN6FVfDgOJX6+mrfJlInHZ4HWo7DIs9eUJzaiUNJ6ldq+ZwrCMgYgkUfDIOJgHz6qKcfA+OL24zHrHEvIeXgUqw9n44KlCPtdhzyOAUy03JQWAqA58BTbWJtOXYupnXIwbH338GS//jg1xM78KGHD6SDO6O4kfoRt/0/vDPSDOGfz8AHey8h4tbvOHL4d2TXRL0Ebe3awTgzDJdv5yLv7gXsPXIDclU+Mh48QpHEkE11w3FclQ7Q7DbQrx9HSDTHhrZ+LcbMhXunVOx3G4kZm7+Hz6mj8J6/CiEWnSHlOXAqAl9nQVCbs6o/sSlMTYDH2VkoyA9H8P0hAvrhkOHzBfarBcNbaz/FVAdzmOgTrAo+Pw2pVbbks87ibExPeH4wGqaStrBrZ4zMsMu4nZuHuxf24sgNOVT5GXjwqAgSAbmMDfmhYOwK+7gQmvlFv+4dUGLAtw3ZFaWR+Py9NbjRZTUOb3OBDaDeUnDmCrIN9K1OTQ1cMfh8pNUaCGfPxqCn5wcYbWqBMXPd0Sl1P9xGzsDm731w6qg35q8KgYWjLcbPGoeXUg5i6drzSK8AytNuIy6PgyIzDTnqRACOp5qC22DuMGreuKpG2n0BloyrxH+/jsegmc4CW0r+ivzSEmPnTkOHnGN4/50l+I/Przix40N4+Egx2FEksH7cRO7oWRj3UgoOLl2L82oD4HZcHjhFJtJyFMjRe63u3FqN3ni10C+bo60B22qtC2K0GS80/0IYjVsEz14KnNp5CGp34JFzJQAZQxbhg+oFXxcaccRzHFTE1ykWCVRVV/CC+lc/LaofpwbsX323VdodC5aMQ+V/v0b8oJlwrra9gA51+wcgaWuHdsaZCLt8G7l5d3Fh7xHckKuQn/EAj4rKDMinB0PrgoHcXAYOPK/xY5rUndSU5EQg8OA5ABDIJVWCa+bWlk2wv8EcI7guaPbWRDQ3ZTeI8vvkf9SbpsqMSCQyJts+o8h17FgaO9aVXIb2pvbm1jTpSB4RcZR5ehENaGdJNl2G0/y9/vSDhz1Zdx5HX4QqNXslIqLKlGv0n0VDqbVYTG1HraT9/w2lh8WJdH69K7WTSMh+0jY6E/eYiCop9ew6muDsRCOnL6B/vTeLPL8KpFyOiJPfppNr3iBbiYTsXNfRychHxBFRccI52jC2PUmkDjRp2wVKenyD1g7uQn3f8KCPN26m1QsXkve1HOKIiFTJdPifMrJpLaNJO8KoiIioJIGOe40mRxsTMrbqSEMWHqG4Eo7kt0/SmjdsSSKxI9d1JynyEUdExZRwbgONbS8haafJ9NnFJOIyT9OiAe3I0qYLDZ+/l/x/8CB768407otQ0qUNZcwpWuvSliRGMpq+4yLFJ12nQ4sGk7XYnJzmf0fBmRxRZSqdXTeBnJ1G0vQF/6L3ZnnSV4G5ahnKBeTTgaZ+IiMNj88pIuhbj4Fkb2NNDv3H00cb59HAToPI/ZPDFHo/js5tGEvtJVJymLSNLiSpX/QoSThBXqNl1MayJdn1d6cd1/OII2q0foiIVFmXacP4btSmhRU5jFpKPr4bqL9Z9UtIRPQ4mLaO6UhWVnbkNPUL8r+4kpxfHUFzNh6nm484PTbVHKWWJ4nnab1rO5JI7GnStjOkdsXmswEJ6Edr7OwEPfo9Tl6jHcnGxJisOg6hhUfiqISUFHNqLbm0lZCRbDrtuBhPSdcP0aLB1iQ2d6L53wVTJqei5MP/JJlNa5JN2kFhRfp8ntQvuqwdTF36vkEeH2+kzasX0kLva6T3fROqpKhP+5Cx7UCaNv9DWrrsQ5o52Y0+OZdW8/LN4+CtNKajFVnZOdHUL/zp4kpnenXEHNp4/CapTaVLLjWCfpit384NijEN9OUX0qt7Yd/OMWjXQgpZ05tMxdbk7L6CVq1aRatWfUxL5gyn1/55kor09f25HwWeXENv2EpIYudK605G0iNtcWqojPqU+hjb0sBp8+nDpcvow5mTye2Tc5RW83ZUCSUc96LRjjZkYmxFHYcspCPVwcIpKOJbDxpob0PWDv1p/Ecbad7ATjTI/RM6HHq/Nhc6TKJtF5KqLjFgs2aOq2rKApeQ8/gDpMO0WvzZ+YWohBJOeNFoWRuybGlH/d130PU89USFfEhJHCkiviWPgfZkY+1A/cd/RBvnDaROg9zpk8OhlJkhdK0uDMerkGyCttW5LgjPX+0OZ2ndBGdyGjmdFvzrPZrl+RUF5goYsVgjjiIj6dRaF2orMSLZ9B10MT6Jrh9aRIOtxWTuNJ++C84U1L9W/n3cAPtXUxZIS5zH0wFNpxPQoW4eU/DWMdTRyorsnKbSF/4XaaXzqzRizkY67h/UAPk0aci6IJSbgyjktw001k5C0s5TaPu5WEqL/pW2TOhIEmlnmuz9G915EEk+698iO4mUOk32Jt/kcr25RCi3Ntr+hvxQYF1oLkREZPApEYPxosAlbMXA/j9jTGAUPvtHc/0MZTw9KkSv749BZ8Yj5NYWODHTPHeootej/6AzGB9yC1v+tgbikb7PA9va7ML+KernAI3hfye/sHhtTvj0ffDY1ga79k+pevrE+F/gKbaIMBgMRuPR+6iS8XzwdzQQV4wCRRn44hDsvWKLmW+zMqeh/B3d4c+BQ3GBAmV8MUL2XoHtzLdZcf0/BiuwGX8rVI8eoVBVDOXjBu45ZfxJqFBQ8BhcoRyKBn+Bi/FnoioowGOuEPK/nYFUiNk2ErZt26Lda4tQMHsphjTx09n/O/mFxevToorZhpG2bdG23WtYVDAbS5vqdIwXFsnGjRs3ah5kMF5EuMwbOOH3EG37doelIgOiV/rCwZr9hvzrKUfylaO4nPcK+vVogYJ0QvvenWFT5+/iMv5aypOv4OjlPLzSrwdaFKSD2vdG57+NgcRo7WCP1q27Y8q6f2PV6JebdGfpfye/sHhtDsStHWDfujW6T1mHf68ajZf/jq7CEITtwWYwGAwGg8FgMJoR9puKwWAwGAwGg8FoRp6bApsvSkFssrLmhYqStCjcyajz2R4teBSlxCJZ+eK+glGWGYu7hr4R/Swoy0Ts3dxn+/JKSRqi7mTU+dKmJs/YfgLj84WpiAwORVxOmWC75qY57F1v7k2lJA0xifnPxv58EVJik/GszPriU4bM2LsCn4YvQVrUHQimPoYODOlVk8bln+aI3Xr8iXnn74ZmrfDXoOk/DYjbp8yNJWkxSMxvysUcFPdi8aBE8/iLinasG64X/xr++gKby8DvOzwwoFMPuB1IVH+ohU/FgdmDMHjBUeTo8Ccu43fs8BiATj3ccCDxxXvZhFdG4fgyFzg6jsTW4D/xDRJeiajjy+Di6IiRW4PVH+h5JvBIPTAbgwYvwFEdBnz29tM3PocHPh/Dc/s5hJ75BK6ynpi0cKqOds1L89hbc+69MPPYA81GwvB5CDvohRGOXfHmF2HNbH8OGb/vgMeATujhdgDPxKwvNDyUUcexzMURjiO3Qp8b8KkHMHvQYCw4mvMXFxAvCg3Ta10ak3+aJ3Y10Zef/mo4pAYdw1cfTcTwocPw1j/fh6enp/rfgjl4581RmLk3odFfhG02dNUKfwG6/Ec4bp8uN/J5YTjoNQKOXd/EF2GN80Eu7XfsmN0PnXrPw4m0Jn13ERUhGzCs61AsOa9Ltj8TPbFuoF78S9H8w9h/CeXBtExmQq+tDKXyqkPFqbcpOv2JRsNayoOXkczkNVoZWn3FiwWXvotGmdiQ+y/6ZXwmcOm0a5QJ2bj/Qs905OJUuh2drneM5rYflxdJN5NrPoGgc3wu5wea3P4tOiAnIu4RXd08kzz3XtVq9yx4WnvrnPuhu5rNDKNKpi+GmNDLc88+A5nLKXiZjExeW0nNZNZmQ8s//hI4St81ikxs3Em/GxRT6u1oEkh9fxlPpUMujyJvJtd+pMQgHOVF3qSGDdcQvdanMfnnaWNXJzry0/NCmf9H1EliQuMPP65/POFrmrcugNSfs/qL0FEr/BVo+4+huH263KhK/oKGmLxMc8/qHUAvZb9/SA4m/WlLfIOCSYNyClv1D3p9dQAVaJ76S9Ad64bqxVoak1eenr/+DjYASKxhbVX/G7cW9k7o00H/n7WRWFtD45IXCrGVJSz+ivmLrWD5ZwxsYQ+nPh2gz4LNa78ShO9ajyP36n63Wnv8irCrCC6xgJUpAHFruHx6DHs9XbTaPQue1t465z73Nc1mhpFYPkP7S2BtbYVn1XvT0eEffwliWFlaGNCPBeyd+kAg9f1FPJ0OS8J3Yf2Rew2/61gSjl3rj6BhwzVEr/VpTP552tjViY789LwgadESLXRUBiZdZ+Gjya8Ifl7+maOjVvgr0PYfQ3H7dLlRYtl0H5RYWMJChz0bBPcQD9ovx8mtI56Tv+GtO9YN1Ys1NCqvPD1NVTsAHkUP4pFSxINTJCMsKBzJSu1HEKVZsbgREIRbaUVajxdUBcmICAxCVMYTjTPqfcIxCZqPJFQoSI5AYFAUdF0CcFCkROJ6UBgS84QfpfBFDxCfUgSeUyA5LAjhyUpozZ5TICXyOoLCEqHVXWk6YhPzwZVl4U5EIgq0Lq6mFFmxNxAQdAtpRXWkEYu0nEQXFXmJCA0IQHiyAhwAPjsaV/x84et3HYlKHuCycOuSL3x9LyHsQWnthSo57oX741rATaTUs4sYIkMD80rcDw/E9eh0FMqzkF1371ZpFmJvBCDoVhrqiqNNGTJjEjQe2Riynx5dAShJj0WSnAcqchEfEoKEvKoI4fMRtnsOZu6IQGr0Zfj5x0G9Ta3u+OVIj7iEy2H3Ucg9QsJVX1wKSUYRNNtVU4G8xFAEBIQjWVHfsCr5PYT7X0PAzRTocHf96LK3XhvVRWjuBuxRkYfE0AAEhCejVgxRHftXICfuBkIS8jQKHxXk98Lhfy0AN1N0xIUmqgIkRwQiKCoDus0qMEcAfMFdBPn5wtfXF75+wUgq5AEUIfnGJfj6+iE4SVnTVl8+abx/NMSWPOTxAfDzVc/tUngqSgGgNBXhl3zh6xeAeLkOgaBfZrHB4APKMmOQUNchSzMQczcXPDgoUyIREpWO6pCsyE1ASPAdZNXdfsgX4UF8Cop4DorkMASFJ+uQTyhXliI9NhH5XBmy7kQg8VGOXh3qk7MWHvlhuzFn5g5EpEbjsp8/4mou1j0HPj8Mu+fMxI6IVERf9oN/XPX7Avr9siF6bXL+0RW7GpRmxKj3aHNKpESGICq9xkLITQhB8J0sjf3W2nmHV95HeOB1RKcXQp6VXWPjxvdtYO1qEqWIjclFT+cuqP5rfXpjTi/686qhXChYKxi4toYGxYUeHwAM+o9W3KIBubGhdhLV8cGKHMTd0KFvfXqouZagyr+LsLB4aL3Co6eeUSlV6NTrJaTd1p8js6OvwM/XF37XE6EuSW7hkq8vfC+FobYkKUF6bBLU7hKPkJAEaE/fUD5WozPWNetFHTWM3ryiT2/NQJMKbC4jCHvmD4B9d3fsObEJb/Z7HWPeGIRustHYfKNQ3YjPht+WBVi+PxAxN3/G8qEyDF93Fer1qBSxB2bBdf5BRGcm49xaL+y/VyUYr0DUyY/xpmMXDN8UVJs4SmNxYJYr5h+MRmbyOaz12o/qSwAAyjB87eGG1T6xSE86i+XDusN1s3/tQlANl4GgPfMxwL473PecwKY3++H1MW9gUDcZRm++garZQxn2NTzcVsMnNh1JZ5djWHdXbPbPB8/nIezQYoxylGHMxn3Y/u5QDB40AHOPyTUGAvhsP2xZsBz7A2Nw8+flGCobjnVX5Vo/NHTC5yNg22x4/Psq0vJisGeCDP29ziDXuiNeyf0BCycuwMEEFSBphQ5tk7B7xgQs88kCB4BLOY45A6dg151HyAnxhqtsKDaF1im+haiIwW4PL/yYoUJZwiHMGPguvk9VqQPJbwsWLN+PwJib+Hn5UMiGr8NVrQKDhyLqJD5+0xFdhm9CULUBDdhPn65U+RE4umQUHGVj4X3yIBa6vg33WW+jb69J2J/MgVdmQW5mgxY8j/ISJZSFxXikNT6hoqQQypJKgCpRUqiE8nEp5Lc02wF8fgC2zfbAv6+mIS9mDybI+sPrTDZ4cEg5PgcDp+zCnUc5CPF2hWzoJjRUrZo03Ea65l4GjheyB4/8gG2Y7fFvXE3LQ8yeCZD198KZ7Dq2qniAn5ZOwwzPhZjo1AuTv7uvLli4FByfMxBTdt3Bo5wQeLvKMHRTqLqw1EFp7AHMcp2Pg9GZSD63Fl7779UpfITmWIvYojVMEv+DeeMnYttta7S3EAMwx8stIrBzRySkrcz15pP83Mb6RylUDbalGGYtSnDl02kY574XqW3bqO84mraG5MZWrD1fAmutW30Nk1kXvCIKJz9+E45dhmNTUBnAFyDy+HK8IXsVIzb64NSGGZju8R6mDOqGgcv9EHnsA4ybPBfvTx2IbsM2ILSUQ0bQHswfYI/u7ntwYtOb6Pf6GLwxqBtkozejOjXrz5U88sIOYfEoR8jGbMS+7e9i6OBB+MesA3igpcMGyskrkSU3g00LHnx5CZTKQpSqhOegzJLDzKYFeL4cJUolCktVjfZLLZqYfwxZjS+IxPHlb0D26ghs9DmFDTOmw+O9KRjUbSCW+0Xi2AfjMHnu+5g6sBuGbQhFqZ78WBGzGx5ePyJDVYaEQzMw8N3vkZLX2L7V6F276k68UahQePckdh2/iwoAvIGcrAv9edVQLhSoFQxeW9OqQXEh6AMC/qMVt1UI58am2aniwU9YOm0GPBdOhFOvyfjuvrpHw3og5F7wwmCnwXAZ2gsO3SZiV2Sx+r0cnfVMXoNzZKuOryD3h4WYuOAg1CVJB7RN2o0ZE5bBJ6sS+RFHsWSUI2RjvXHy4EK4vu2OWW/3Ra9J+6F2l4bmYx3oqhd11jAVOvOKYb09JZp7RhpKecgK6mpkS6M3+NHDSqKShO9osp2EjJ030p1KjnJPzqBRq8Oq9klxlLZzBBkbOdH6qEoqCV5JvTvPpTOKqs6Kz9M8O6PafVVcNn3rYkJW036mEiIiKqHglb2p89wzVHvJPLIzqt4DpaCL78uo25LAmj1tJcHLqZuxLU3/KYe4qmM1lIfQiq5GZDt6A/mpJ0/fTbYjibEzbbxTSaS4SO/LutGSwJreKHh5NzK2nU4/5XBEXBrtHGlMZr0W0+U8BcVf9aM7co1RuFw6OWMUrQ6r2nDFpdHOEcZk5LSeoiqJ6PFhGm+qb18fR9k/upGj67eUxhERVVLclyOoVfs5dLqYSJWwlQaYdqUVN6r6Lr9BK7qa0aDP/yAVqejuZ6+TufMmiq0kosoIWtPTlPquj6JKIiJ6TIfHm+rdg10esoJ69l1FYU+IiDjKObGV9sRXEpd7kmaMWk214uykEcZG5FTTb104yv7WhUysptHPJWTYfgZ0pbr/JQ0xtqL+i89QSjkRKX+hGW1NaOiX90lFRFzWN+RiakfzL1bvDtQcX03JDxPJ1NqNfGqOabTjsulHN0dy/TZN7TOVcfTliFbUfs5pKlbdpc9eNyfnTbGkVusa6mnal9ZHaUuvk3r2NmQjbTTnLmSP8uwfyc3Rlb5VOw9Vxn1JI1q1pzmni4koj/a5mpLloHUUmMcRURH9NseWTEd8RakckeruZ/S6uTNtUk+MItb0JNO+VT6rSUkwrezdmebWBjKdn2dHRlX7DIXmqNVdZSxt+YcZ2c09Q0p1a8o6/CGt9C0iIuF80mj/aKQtSwKXkMykG60Mqbqey6Gjs6bTvnStzGJQ5seHx5OpwF5hLvtbcjGxomnVjstl0TcuJmQ+cA0FZquIqJxuf9qXjFoOolWXH6rnH/Up9TXpTF7+ZURUTiErupKR7Wja4PeQKqmEEr6bTHYSY3LeeIcqDeZKjtJ2jiRjs160+HIeKeKvkt8dOVVq6NCQnPXgsugbF1Oym3+xav+u4TlkfeNCpnbzqdZkwn4prNenyz/CubrKv0zMaeCaQFKb6DZ92teIWg5aRZcfqucb9WlfMunsRf5lRFp5h8opZEVP6rsqTK0PLodObN1D8ZVN6NvQ2tUAKm+uo15GUur0xjx6//336f3355P76FfJzv2/Veux4ZxcD6G8aiAXCtcKwtfWx0BcCPqAAf/RFbcGcmOj7ZS3j1xNLWnQukBSp+3faI6tKY34KpU4A3qojFhDPY3taMLuCJKriIpjv6OpDkZk0n8zxVRWyapZz+TFNyJHqihh6wAy7bqCakuSFdTVbBB9/oeKiFR0/8shZGzVnxafSSG1u8ygtiZD6cv7qkbnY61Y16gX9dUwpJVXhPXWHGjefmkwYjMzmEraYPBEF9hJAfNuHti0oC8oNhCBucUIOO2HzHvnscPbG97e23HiiSs2bp4NZ7Ni+O09gpReIzHKuqoz005wsK3zmSixJSxb1HkMUOyHvUdS0GvkKNRe4oCaSwrO4bufMuDYx6lmT5v5626YJHuE8z/6ovYBcxViM5iZStBm8ES4qCcPj00L0JdiERiYi0fnvsNPGY7o41TTG153mwTZo/P40Vepvt5YDKv+LhjWxhrdXVzRu5WGKksDcNovE/fO74C3tze8t5/AE9eN2DzbGWb1W+pAAd+TfjBx6o92YgCQoseKAMgzj2CShWZbTSSQeR5F0AkvOGQE4ND2wwhT8Ch/Uib4y7gaqZ0M9mlfYcLwOfjsVDyM3Nbho+5SlAachl/mPZzf4Q1vb29sP/EErhs3Y7azLmnEsLRsUftIy5D9DOhK0qIFLCSW6Ovqik7GACxkeLWDGIXKAuj+SpLG+HrRaKfwxUk/Ezj1b6d+tCPtgRUBcmQemQQLiQyeR4NwwssBGQGHsP1wGBR8OZ6UNUSrmjydjQAI2kPhexJ+Jk7or3YeSHusQIA8E0fqOI/5a69jQBsxAFN07NgWUCqg4AGJzBNHg07AyyEDAYe243CYAnz5E+gSs9hvL46k9MLI2kBGJwfbmkfIQnPUQtod8zzfQOnp/fDJ5AHuHk6Gv4xpo1sAKBXIJ03wj0ba0nyIFz4amomjX51CLg9waT64YDQZUztop89GyawDsaUl6qY+iFvAwlwE40790L+dBIAxZI72kKID+g2xgxSA1MEe7UWFUChIfdfdzBSSNoMx0cUOUpijm8cmLOhLiA0MRO4jQ7lSDDMzY4it+sNlWBtYd3eBa+9WWo86n0rOxuZrNM4vtXjK/GMIcQsLmIuM0alff6hNJIOjvRTo0A9D7KQApHCwbw9RoQIKgnbegRR2MnukfTUBw+d8hlPxRnBb9xG6Sxvfd4GhtavBSNBzxk7s27cP+/Z9hxOXfsbS3rW7rxsVc0J5VTAXGqoVhK7VxEBcFAv4gCH/0RG3hnJj0+xkjtdeHwB12u4IddpWgG+IHiS2+IdLP7SSABY938OOZUMhig3C9Ue87nqmzWuNypHCSNCihQUkln3h6toJand5FR3EhVAWUKPzsRYa9aK+GkabBujtKdHMm0+BFF16vAoLVKL8yWPky5/ApNskrFyzBmuq/61eggmO2Uj8QwlIpAKDiyCqs8+Gy0iE+hLdV3C56XhYyqOios7GIqkD7O3EqFAq8LgB2pJ26YFXLYDK8lLkpD9EKV+B+t3Zw05cAaXisVr5Bqo3vigf8icm6DZpZa38a9Zg9ZIJ6KrL1nXh5Mh7VAZlgUI7WTUAsfQJoncvgOehLPR5zxOjbcUN7kfccR6OXdkHN8tAbJvWD10HL8bp9EoU5cvxxKQbJq2sY881q7FkQledL72I6uwZM2Q/g7qqu/8MAEQSSEQA8fqlqju+EPXmKc/DozIlCtSroAZiSJ9EY/cCTxzK6oP3PEfDVqyrXcN4GhsBvIA9HFGY9whlyoKqxdwwErEE4FSoBACxFE+id2OB5yFk9XkPnqNtoVtMDhmJf0AJCXSbVWiOunxGDNtpnphi6Y/9B+NQEvET7vecASdjAHyR/nzSVdoE/2ikLSWdMXvpVJhe+Ar7YssQf9wfL08fh1aa7Rotsw5EdffIQ2PPfNURsQj1nEUkhhik33+kXdBDndxQmtOQXGkocp5Ozibl6wb7pTZPnX8Moel/EEHbRGKgzkeT6+cnMTrOO4Yr+9xgGbgN0/p1xeDFp5HONbZvDrkNWbuagrQ3Zs4eUvtSpua8BGJOOK8K5EIuw2CtoPfahlAnLp481u8DjtnC/gNoxq2h3NgcdpJAnbYrgUbrQYw2nTvBWsSh6nIdId/IHGmAuvUcAIgkEohAULvL045Vv17UXcPo3rrUOL01Hp3mbzgEquMJlaVl4Nt2Q89XbNDe1hyJPgdxTVF7nkvxxYVYK7zUSoqyuFuILq89BwDE63YrUauX0Epahrhb0ah/CYHnAUn7V9HFikN85K3aPXl8BcorxHiljxNs9UhJ9SePMr4tuvXsgA6vdoEVF4/IW7V7cfiKclSIX0EfJ9sGKU1s1R625onwOXgNtSrgkOJ7ATGG3gWRvIyOdmbI9f0ZlwqqD/KQ++7HiSQOkEghqXHOWog4AMW4uHQi1sqn4pst7nBuW71CNMxtuIw4POzggd3XEhF/bi16p++F17bfYdLeFuaJPjhY36DwvRBj8C8DGLLfU+mqGZG83BF2Zrnw/fkSatUuh+/+E0gqvIilE9dCPvUbbHF3RiPVqsHT2QgQw0qvPeLRuqMdzHJ98XOt84CX+2L/iSSDLywWX1yKiWvlmPrNFrg7t60plrRnJkKrl1pBWhaHW9qBDF5wjnp8psWb8PSQIf7wV9h8shAjpndW3/ERW+nPJ01xkOLG27Kl6xK83/suvvt8M7693QMzR5lrNjFgFz0yPyuI6izSlSgt49G2W0906NC0XFmfp5OzKfm64X6pzfOffzhkxD1EB4/duJYYj3NreyN9rxe2XdWIK4NI0L4Z1i7dSPCybRvQg7M4Hd64eQnmVU4gF4paGagVBK7Vh564eMVGvw/EWgn7jzaGcmNz26nxeijNf4QnHfui38t6RmpkjpRIJQDxGqcJZGjBQePHMoTuGuaqhu3QJL01Fj3abSB8PtJSi6v+Owtnz8agp+cHGG1qgTFz3dEpdT/cRs7A5u99cOqoN+avCoGFoy3GzxqHl1IOYuna80ivAMrTbiMuj4MiMw05haUAeHA81RTc4jbjMWvcS0g5uBRrz6ejAuVIux2HPE6BzLQcFBqNwyLPXlCc2olDSepXcfmcKwjIGIJFHwyDSd0518AjPy0V6tnzyDp7FjE9PfHBaFO0HLcInr0UOLXzENTd8ci5EoCMIYvwwbCq3ghQVQpkX4sxmOveCan73TByxmZ873MKR73nY1WIBTpLAXAcOBB4nRHaEmPnTkOHnGN4/50l+I/Przix40N4+Egx2FECSVs7tDPORNjl28jNu4sLe4/ghlyF/IwHeFSYi/spuShOT8KD4jJkBJ5DaDaH0sJsRIfHAeDAceoEpWtkLsMHX+y/jVKYwuGttfh0qgPMTUzRYsxcuHdKxX63kZix+Xv4nDoK7/mrEGLRWecdK57jQaQew6D9RMK64jkOKuLr3B0hUJXueABiU1OY4DGyswqQHx6MmNL641dTUVEJqqhAeZ2D9dq1HIu50zog59j7eGfJf+Dz6wns+NADPtLB6Fx8Hym5xUhPeoDisgwEngtFNleKwuxohMfl4eaeORj3z824VPdFwrrUtTdfaMBG2mjO3ULAHq3HzsW0Djk49v47WPIfH/x6Ygc+9PCBdLAjJDwPntdxp4nnwfM8Cu+nILc4HUkPilGWEYhzodngSguRHR2OuKpQVyNGm/GzMO6lFBxcuhbn1YGM23F54BSZSMsphEhgjrp8BpDCad5CDJP/iFM0HuNaVx8XyCedpY32j+gcIVvWE7IWaXcsWDIOlf/9GvGDZsJZtwCCdlGHPadeZPW4CXgOPNVduLkqe9W5gNSFQo0FiUDgwdd9aS8/DbWp+SzOxvSE5wejYdqyIbmSAFVlvUJZU4f3hwjLWQ+xKUxNgMfZWSjID0dw2mgDcxDDVH0BsgryER4cjRwDfimk16fNP8K5GgDHg9cottQmqo0xIgJ4vuYHbv38xCHD5wvsv10KmDrgrbWfYqqDOUxMRY3u2+DaxctxZZMb/rnVv04hWR9eVQEVVem0LuWJOLjpCipkJgZjrh4CedVRJJALb+YK1wqKHP3X6smjeuNCYL12tDXgP6WacWs4NxoZspMGar1q31TjeR58Q9YTKkWhsqrELIvFweP38X+fLsYg46qONOoZvrAxOVKCtnbtYJwZhsu3c5F39wL2HrkBuSofGQ8eoaiMB8epQHyd+RNVxSvfyLF0xXr9elFfDSPSzCtBobhrSG9Pi+am7IZSGfUp9TG2pYHT5tOHS5fRhzMnk9sn5yit5g2HEko47kWjHW3IxNiKOg5ZSEfiql/cUVDEtx400N6GrB360/iPNtK8gZ1okPsndDj0PiWc20Bj20tI6jCJtl1Iqrokgr71GEj2Ntbk0H88fbRxHg3sNIjcPzlModkcUWUqnV03gZydRtL0Bf+i92Z50leBudovOBIRVUbRp32MyXbgNJr/4VJa9uFMmuz2CZ2rnTxVpp6ldROcyWnkdFrwr/doludXFJjLEXFyun1yDb1hKyGJnSutOxlJj3QOQkQlCXTcazQ52piQsVVHGrLwCMWVENGTRDq/3pXaSSRkP2kbnYmr/wf9qy6mhBNeNFrWhixb2lF/9x10Pa96oMcUvHUMdbSyIjunqfSF/0Va6fwqjZizkY7fzKPM04toQDtLsukynObv9acfPOzJuvM4+iI0hxLPryfXdhKS2E+ibWfiNMYkKr+xlgZ36UtveHxMGzevpoULvela1UsXJQnHyWu0I9mYGJNVxyG08EhczUsvdSlOOEcbxrYnidSBJm27QEllDbCfPl0pY+jUWhdqKzEi2fQddDE+ia4fWkSDrcVk7jSfvgvOJFIl0+F/ysimtYwm7QijHK3xKynl2n9o0dDWJBa3pVEr99N/Qx9SoVY7tc1OeI0mWRtLamnXn9x3XFe/VMJl0ulFA6idpQ11GT6f9vr/QB721tR53BcUWpBJhye3I+uX2tKQzbGa6tBhb6WAjdSv+NWie+4qA/YoSThBXqNl1MayJdn1d6cd1/OIIyXd+e8qGtVWQkYyN/ryfBwlBh2kxUOsSWLhTO8fCqOsjNO0aEA7srTpQsPn7yX/HzzI3rozjfsitOrlw7pwpIj4ljwG2pONtQP1H/8RbZw3kDoNcqdPDoeS2qz656gbBf06bxxtvqP5momefNIE/ygSsqW2kLWUBdIS5/F0IFNfwKvRJ/OTxPO03rUdSST2NGnbGdIK++IEOrdhLLWXSMlh0ja6kCSnhLMbaKydhKSdp9D2c7GUFv0rbZnQkSTSzjTZ+ze68yCSfNa/RXYSKXWa7E2+ySUU9WkfMrYdSNPmf0hLl31IMye70Sfn0mpfPtObKzmS3z5Ja96wJYnEjlzXnaTI6uSmqUMBObVRUfLhf5LMpjXJJu2gsCKhOVRdkXyY/imzodaySbQjrIi4TP1+mWNIrw1ZP/TlH63Y1ei8OIHObhhLdhIpdZ6ync7FplH0r1toQkcJSTtPJu/f7tCDSB9a/5YdSaSdaLK3L8VEa+adcrqxdjB16fsGeXy8kTavXkgLva9RzuPG951cLrB2kdqO3459mdqN20cpWm8jqijl9+9o4zsyMhGJyabvZJr3/vvqFx3nzaSxPVrRS++eIHlDYk4TfXmVOOFcKFgrZApfW49Kw3GhzwcM+c/9OI24LWtQbhS0U12Ud+i/q0ap9e32JZ2PS6Sgg4tpiLWELJzfp0NhWcJ6KPmDzm6dSSP+MZwmenxIixZ8QFvO3a96oVZPPdPYHPk4mLaO6UhWVnbkNPUL8r+4kpxfHUFzNh4n/6D/0lqXtiQxktH0HRcpPuk6HVo0mKzF5uQ0/zsKzsho8FjaObRYq14UqmHq55VCYb01AyKq+1O4Eaii16P/oDMYH3ILW5y07lk836iisb7/IJwZH4JbW5y077gwGE2gIngtPrg1H98v7qx5ivE3gE/fB49tbbBr/5Tn5KMLulAhen1/DDozHiG3tuBFS80MxrOBxQXjz+fptogA0H4e9CLxQk+e8RzBy0Nw4HxrzJzNiuu/FxyKCxQo44sRsvcKbGe+/RwX1/Vh2Y3B0IbFBePPoskFtqqgAI+5QsgVQp8fek5RFaDgMYdCuQIv4OwZzxu8ArHRPMZtXI6RL0r1xWgQqphtGGnbFm3bvYZFBbOxdEgDPsf7l6JCQcFjcIVyvIipmcF4NrC4YPz5SDZu3LhR86AhypOv4OjlPLzSrwdaFKSD2vdGZ5s6fxTyeaY8GVeOXkbeK/3Qo0UB0qk9ene2qfn7lAxGoxGZoV3njrBmjx3/dohbO8C+dWt0n7IO/141Gvpeun8+KEfylaO4nPcK+vVogYJ0QvvenfGipGYG49nA4oLx19DkPdgMBoPBYDAYDAZDm+f6fgyDwWAwGAwGg/GiwQpsBoPBYDAYDAajGXlxCuyyTMTezX1mbwDzhamIDA5FXE7ZMx/rz6EMmbF3kVtHiJK0KNzJqPNtViFK0hB1JwMNbG0YvggpsclQvthKfT4xaCseRSmxSG6S8p/mWkYtz4Men4c5vCjwKEyNRHBoHHLKnv368+dTgrSoOxBaDviiFMQmK5+RzPrHr7cWG8xtLyia6+HfVc4/FQ6Ke7F4UKJ5/K/j+S+weSWiji+Di6MjRm4NfgZ/9YPDA5+P4bn9HEJ/W4XRndqhXfvOz2isPwMeyqjjWObiCMeRWxFcLQSfigOzB2HwgqPIMZgxeaQemI1BgxfgqOHGBuCQ8fsOeAzohB5uB5Ao8PHLFwXu3jeY1LUfZh+9b/Cz0M8eYVtxGb9jh8cAdOrhhgONVP7TXPu3pfw61g3uiuEr/JCnrW6dPA96fB7m0CQqUuB/5DMseGsYhgwdjgn/+hwHL8ajSLNdc8I9gM/Hnth+LhRn1o1BF4du6O7Q5QVeE7ThUw9g9qDBWHA0R7uA5jLw+w4PDOjUA24HEp9JjtM9fp21+MwncJX1xKSFU/XmthcTXeuhcA5nGIZL+x07ZvdDp97zcCKtId9n/5PQ/PLMcwmXTrtGmZCN+y/qrw81I1zODzS5/Vt0QE5E3CO6unEyDXnN6JmM9efBUfquUWRi406/1BGiOPU2Rac3UKriVLodnV5HBxzlRd6kZK2vfzWEcgpeJiOT11ZSaLnmuRcNjh58/Sb1nPsLPdTx0a1njw47aNmqPuXBy0hm8hqtbILyn+bavyPlN1ZQ/0HrKKiRH/p6HvT4PMyhaZTRtQ/sSWI8nHY8eNZBx1HOD5Op/VsHSL0kXKXNM2bSPwcYv+BrgibFlHo7mvQuB+XBtExmQq+tDKXm8BYuL5Ju1k9aWuNrrcWbZ5Ln3quCue3FRMd6aCCHNw4da8T/AGW/f0gOJv1pS/zzI/jzfwcbAMRWsLQQaR5tFirCriK4xAJWpgDEreGy4TDmOb7of79HDCtLC2hqzMLeCX06NPDv+FrYw6lPB9S0LgnHrvVHcK9JtzMksLa20prPi0khEiRTcPybKbD7K6JHlx00baWBxNoaVk1U/tNc+/eDQ3raK/j4x00Y1lLznDDPgx6fhzk0DQmsbKwgFlmhVetnHXQVCLsajBILK6iXBBd8evwbjGn7rMf9s7GAvVMf6F0OJNawbjZnKUH4rvU4Uj9paY2vtRZ/egx7PV0Ec9uLiY710EAObxS61oj/ASQWlrB4zsL0qadTkZeI0IAAhCcroHljnlOkIPJ6EMIS87QerZWkxyJJzgMVuYgPCUFCnpA3iCHSEesq+T2E+19DwM0UKOsNzkN5PxyB16ORXihHVrauTTnlSI+4hMth91HIPULCVV9cCklGkZ6xAA6KlEhcDwpDYp6mNKVIj01EPleGrDsRSCyonUxpVixuBAThVlpRvUdxvPI+wgOvIzq9EPKsbOiaIQy14xRIibyOoLBEaE5JrEuIskzEJGg8EqzIQ2JoAALCk6Gop8MyZMYkIIcH+Pww7J4zEzsiUhF92Q/+cflVfaggvxcO/2sBuJmi1LI/VAVIjghEUFQGnmieE7qWV+J+eCCuR6ejUJ4FbfPxkMcHwM/XF76+vrgUnopSAChNRfglX/j6BSBerv9RW0lmDIKDQnE3rxwVuSlILeKRHX0Ffr6+8LueCCUPcFm3cMnXF76XwvCgtO7VJug7ogcUkbeQVqR/DDUVyEsMRUBAOJLrK1fAd0uQHpsEdWjEIyQkAdWhod8OtbaqRYWC5AgEBkUhQ1v5AuPD4LX1EY41ff6vi6bmktKMGNzN5QFOiZTIEESlV8+hArkJIQi+k1VvbyNf9ADxKUXgOQWSw4IQnqzhf6XpiE3MB1eWhTsRiagTzmj9+hC0S7+pIwfowpAeS5EVewMBQc/Kl2BwDsLXAkBDY0O/31ZjeCxD6MhpGugfQ9hPAQDl6Yi4dBlh9wvBPUrAVd9LCEku0rv+PJdrQiN8qiwzBgkaWxJUBcmICAxClC5nEZi73vWcz0fY7jmYuSMCqdGX4ecfh/yqC2vH17cWQ09ua0osGPbP+pQiI0b9DhOnTEFkSBRq00ouEkKCcSdLx47p0izE3ghA0K00aKlfcD3UlrMpsuhfIwzMrS5a629Dc4Am+udZi3AMNcoGIlFVhiCo8u8iLCxe/f5EHUrTY5GYz6Es6w4iEgtq835DddNIml5g8/kI2DYbHv++irS8GOyZIEN/rzPI5gFAibCvPfD/7J15WBRX1sZfuptdEFyISBREbAejEZRx34nhM3HBSRSDUTEuYUxwiZq4jBtqGJMhmWgSReMWRRNmjOMKbiMgAioqsgkGkUV2mm6UrZeq8/3RDTS9VANiNJn+PU+ex3RX3XvuOe8593bVLcpvTQRS87NweuVo9PMJxtVyFmz5TRxePh5uwkkIOb4fi33ehv+ct+ExwBdh2S2tugxyjs7DsHe+wb2KEsSH+EA4agsSagFAhpSdAQg6VgBFfQYOzB6Gd3/I1bGPjCCrqYKkRg6QHDVVEkie1IPR5VxJIv4Z4Ic1EanIzzqNlaP7wSf4KspZFmWJB7BsvBuEEzdjz453MWrEcAyZfwQithhRWxdhZVgMUm79jJWjhBiz/rJSbCk7ERB0DAWKemQcmI1h7/6AXG0DOY+TJP4TAX5rEJGaj6zTKzG6nw+Cr6olkzqsGHePf4o33XpjzJZY1WKDRXn0dswN+Acu55UhZddUCL2CcKpYAfHd4/j0TTf0HrMFsfUsJEUiWNp3AMtKUSORoKpWATA5ODpvGN755h4qSuIR4iPEqC0JyoUugNrUvZjjsxD7kwuRfWYdgsIeNImZ61xZCnYGBOFYgQL1GQcwe9i7+EHLOTxYdqjBpQ0zMdl/N3Iduip/+Vt0Bv/6Nqw7WwO7DjqkXZuOQ4FvY86OC0jPjMVXszzRq9907M1k0annqyj9cTGmLdqPDAXA79QDDlk7MXvqJ4goUlrOFkdh66KVCItJwa2fV2KUcAzWXxbp9DlbHo3tcwPwj8t5KEvZhalCLwSdKgarV7ssym8exvLxbhBOCsHx/Yvh87Y/5rztgQG+YchmdMVBphErVee1qdg7xwcL9yejMPsM1gWF4UGT8/X035JzNeHINQ79a9HWWlKZhKMr34Cwz1hsjjiBTbNnIeCDdzDcfRhWRiXhyJLJmD7/Q8wY5o7RmxJQyxQgdtdCDHHuB/9d4djy5iAMnfgGhrsLMSH4OqrYMiQeWIbxbkJM3LwHO94dhRHDh2D+ERFHDdAcjAoDfny+WlKdyGmDgXMb4RnIDbkB3bamr2eBqw8OnapDMtRUSaCcEmpQJZHgST2jMyb69fDi5oSWaooV38XxT9+EW+8x2NJUNJC6dw58Fu5HcmE2zqwLQlhzweq0vbyUez5nJUUQWdqjA8tCWiOBpKoWMq3+dc3FtRDd1q5trc8FQ3W1aYiqHlCZdBQr3xCiz9jNiDixCbNnBeCDd4bDfdhKRCUdwZLJ0zH/wxkY5j4amxpFzKI4aisWrQxDTMot/LxyFIRj1uOyquDpnw9ZHTW8rWPRNUcoDNrWDJ3zb8vmxyYM2ak6jCOH2hYDACCUngvCCM8R8B41AC7u0/BNUjXYskQcWDYebsKJ2LxnB94dNQLDh8zHEVErfNMWNPeMtAyGio/5kZvPd5THEBHJKe3LsdSp+zw6WU0kPv8hCd2XU0zDhqKaOFrpbkaOs36iEoZI8fBLGmlmS17LTlGOlIgk/6bZDuY06suHpHv3zBM6OMWiaQ+c4j59PtSKBm9JJTkRyW+upf4WHrTxrpxIGk+r+nvQZ4nKzpmScNq2K53kmk2qqPlxGlnY+VFETcMnGn2RmM5/KCT35TGN+6Nq4laSu5kjzfqphBhiKO/rcWRmOYCWXSwjcfplirpXTsXHZ9P4NYmq/WsM5X09lsxMPWnj3RqKX9WfPD5LVLbHlFD4tl2UrmWgVP9x4vP0odCdljc5mOJWupOZ4yz6qUS5R/HJwSlkob4Hmymm77zNyXbmz1RDREzxMfJz86HvlAEkedqXNLZTd5p3sloZ3++8ydx2Jv1cQ0TEUNG33mThtJDO1yubU9z/nIZaDaYtqXIiktPNtf3JwmMj3ZUr4736dVeaf0qs6ryazi5wIlPVnjOuc6Xxq6i/x2ekDB9DJeHbaJe2c4iIqCZmOQnN3Wl1vMoopoQOz5lFe/J17dN8Sv9d3p88V1+nhlBL41fRn8z709qbciJSUMa2IWTRdxVdV+2Lk15fRX0th9Pff1UQMaV0fPZ4WpOo+pLJo6/HmpGpp2rM6jDFdMzPjXy+yyNleqTRl2M7Ufd5J6maS7ukoIdfjiQzWy9adiqHlKkxmxzMR9GXDxU646AdqxqKW/06uc4/RY3eP7uAnExVe285+zdwriZ6c42hUr3613LWM9USpuhb8ja3omFrY6hYQUTSO7TBw5Q6Dv+MLj5W6uvuBg8ydw2iq/Uqm/uakuOETRT1WE5Uk0H7pjsR32wwbb4nV8Z1nBlZDlhGF8vElH45iu6JRAZqgCYG/PibaMmADZznamIgNwzptlV96UJOt9YPIFPzKXTwieZ3Krj60KtTXdTQj9MsyM4vorFO/C7mhNZoioiY4u/I29yWZiqLBtXErabXXedTU8k+SwucTFV7sLnz2dB8zhR9S94WTrSwqWhp9U8652KN2tbmXDCgTy2UddbcahitjSkmZVnZQB6mHWn4ZxdJWVbu0gYPc3INukr1RMSUHqfZ49dQk/u/prFmpuS58S7JDcyHWuN8prFozxGctqksakD//GuoBmhiyE7DOdTaGMhvrqX+Zk40dedNEimIqlP30QwXUzL3CqYUuXLc48wsacCyi1QmTqfLUfeovLjlvmkLOi7ztQQxIo9HwdzTC914ACDAa6uiISo8BF/rSpzZ9xMK3AbCs2FDkdVQ+PkKUXH2GCIlAL9DB1jzbeDh44NeZgCshejTg4cqSSVa9FpJvhCBh2MRHuSCgugD2HEwEWJWirp6FhA4Qeich6+mjsG8z08g3dQP6z/uhza/xbryDPb9VAC3gZ6N+6OshvrBV1iBs8ciIQEPlpZm4Nl6wXt0V9j184bP6xaIPRmFwgdnERoSgpCQHQiv88Hm4LkYbCmAk9AZeV9NxZh5n+NEuin81n+MfloG6j+u8sw+/FTghoFNDsZQP18IK87iWKREox0VPBvYdGi6zymOPI4oc094KQMIwWurEC0qxCFfawA82Nh04LwhyxcG4nBsOIJcChB9YAcOJorBSutQzwLVUbtxKGcAxo23Ux1tgV4ujo2vo+c6V+AkhHPeV5g6Zh4+P5EOU7/1+FjbOQAAq5FB+HhUIQ5/dUJ5GykvAudMp2NGDx2yrjqHPUefYuibg2Gl+ojfsSN0XejWSW00TkYV4sHZUISEhCBkRzjqfDYjeO5gWGoeK47E8ShzeHp1U94iEryGVdEiFB7yhTWXdsFHhw7W4Nt4wMenF5Sp0Qc9eFWQVOrLDI1YVUdh96EcDBg3Ho3e7+UCxybn6+/f0Lma6M21WkTr1b9mI89WS3gdrGFlYoZeg7zQjQ/ATAg3ZwHQYxBGOgkACODi3B0mVWKICQDPEpYWfHQdMQ3eTgLAyh0BWxbBg1IRE1MKlmcJSzMebL28MbqrHfp5++B1nDNQAzQw5MffQkuGbOA6t9UY0G279qUHrj706rSNvIRzQqs0BYBnY4Om6aAaUbsPIWfAODSV7F5waRIsZz63ZT5v3r8+NGpbW3PBkD614KGDtRVMzHphkFc3KMuKG5RlZSSUZcUFzt1NUCUWgwDURp9EVOEDnA0NQUhICHaE18FnczDmDrY0OB9qjbNdx8JtmyatmX+5MWBnC3KotTFQduuIP3sPQic+YN3/A4R+MgomqbG4VsGCZ2kJM54tvLxHo6tdP3j7vA6L2Jb7pi20dHnRHEaEsop6SCrVBtb4XSnyH9eClcnU9j0K4OLsBJ5MAvETVm2vjAoTPvgmALFaremBB0FdMnYuCsSBooH4IHACHHmqc3k9seDIJezxs0HM9pkY1HcElp3M19rT2VKY0nw8rmUhk6lt5hG4wNmJB5lEjCcstPcGsk9RLqqDubsvVq9di7UN/61Zjql9zdBzwRFc2uMHm5jtmDmoL0YsO4l8LQN5eo5jUJr/GLWsDM1NcoYTTwaJ+InWLUElJjBp3EjIQFRWgXpJpXLRoQMTzRhpwhOgLnknFgUeQNHADxA4wRHKEDAoyPwVEvAh0KcuvecCvJ4LcOTSHvjZxGD7zEHoO2IZTmo7RwnfFXNXzIDFua+wJ7Ue6Uev4pVZk9FJ8zgATNFD5FYLYGbKOSq9sE/LIaozh7vv6qZ4rl2LNcunoq9G/WFEZaiol6BSp3M5tKvyuzomfD5MQOBKDfVYMQWZ+FUC8PU7X2//hs/VQF+ucepfy1ntW0tgAp4JmrVlwuMBpNV6I4Ler6GPNSCXSpXnaUikZTWgCUN+/C20ZMgGrnPbArdu27cv3XD0oU+nmk20kJbp4becE1qnKQDKvGkqGshUikX3goDTdoF2DrZkPlfvn4Nmta2NuQCD+tRG83iY8GDSvKqgqayweFouQp25O3xXq/ln7Rosn+qGYkPzocY423csXLb11fqR2ar51wBcdrYkhzTP546BLnjo6toLdiYMFHLlJ81bbJ1v2gJHyDngv4KeTpYojfwZFyobPmQhigxDePYr6NPbFkx6Em43bo1hIZPKwHt1IDwd29ZlM6rPY8W0dRDN+BZb/QfDocETpCwWaY97IGDnFWSmn8G61/OxO2g7Lks12mgh/O590NuWQXrS7cb9xWBlkMp4eHWgJ3QOh2eL7o5WyIzYjyvipo+ZnEicS5GiIO0xegTsxJXMdJxZ9zrydwdhu5aBjJ7jFOjepzdsmXQkNTkYrEwKGe9VDPR0bEFQ+XilpxMsSyPxc1MAwYoiERae1aKJp/r8CkxbJ8KMb7fCf7BDoxgJJujUpRME9Wm4nawxJmLBcp4LMAVpeNwjADuvZCL9zDq8nr8bQdsvQ9M7DXT0WY4PX7+PfX8Pxnd3XsP74xuuTzfHxM4eHfEYSYmP9I6PL+ADxGos9AjEADzb7nC0ykTE/itoCimDnMhzSNHYK8l/pSecLEsR+fMFNKWHCJFh4ciq4tBuO2DSqQs6CeqRdjtZw2cEVul8vf0bPFcTfbkm59K/lrNeSC0hUhuQvBb1rAPc+3dXu6rURGtrgCE//hZaMmQDlw50wZUbBmllX62DwcNjh3C5lKMPfTrVV1QM0Fo9AM97TpC2SlNamHRCl04C1KfdhnbJZg3Ybqjx9qOtufD84cG2uyOsMiOwv7mDEHkuFbYG5kMt2jVfuGxL0XoOgWv+faYaoEGbcqgN1JZXoK6nBwa9oqvB1vmmLejqtQV0xKT5M9Gj5Ag+/MtyfB/xC8JDP0JAhAAj3Dph8tJADBCfwNcHspRP/LMluBRdgJFLl2C0OcAyDBTEqv3CJRAILKtHcGDAMMpkZwGwVQ+RU1qN/KxHqK4vQMyZBBQztagqTsaNlCxEfBGGO7WAhctbWLdhBlyszGGh59eyTCYHyWSQNnbcvC90nIylgQMgPvE1DmQpn3JlSy4humAkli4ZDXNAqXyFXC0g1pg43x+9csPgN242gn+IwInDIVj4WTysXU1QEPEFwpQG4q11GzDDxQrmWgYyeo/rOHkpAgeIceLrA1CaxKLkUjQKRi7FktFKixjlINQWRiwYlpQFE0DHSfMxs0cJjnz4Fyz/PgK/hIfio4AICEa4gQ+AZVhQYwHgwcLCHHhSjKLKctyIS0bJwxyUVucj61E16gticCahGExtFYqTb6F0whxM7pKD/SvW4Wy+DJDm4U5aGRhxIfJKxBzn3kBKVgS+CLuDWljA5a112DDDBVbmFprXg5oQ9MOi5ZMh/9c/kT78fQzW87OT5/B/+Ms4S9z4+2ws2X0BN2//F4cO/hfFjcWBDwenbjArTMTFO6Uou38Ouw9dh0hRjoJHFXjKn4j5/r2QG+aHcbOD8UPECRwOWYjP4q3hqtlnx0mYP7MHSo58iL8s/x4Rv4Qj9KMARAhGwLWaQ7tpT8AwChCrdjWCSBVHVkccUlCrESte1ymYM7kLcvavwLqz+ZBBirw7aShjxCjMK4G4RH//t0oncJ5bpflQGlOgJ9e49K/lrGeqJWBYsBo/AAgAqV3WICKAZdV+WLEoz8tFterfRadPI6V/IJZMUN2sJEAhVyuvLaoBTRiKQZXJ89eSoVhy6eBGmtIzTRjIjXqWU7ec9TqtGqzoErb4vYdtV9UmuWawkNXLQFSHutrmM0Rt2h5sTrCEp4Kjj1bNCTLI5ASZTKo2F738cwKsW6EpAGAZsKTKG15XTJkzGV1y9mPFurNQluw7SCtjIC7MQ0mVCYftAoPzOc/CAuZ4guKiSpTfiEOKsmg19a9Cey7WmIfamAuG66o2DMtqLIBJOa7GsqL8N8sqq4r1xPnw75WLML9xmB38AyJOHEbIws8Qb+0Gxylc82GVVg3nzhdDY9GeI0z02uaqdZWWKdA3/xqqARoNgbsmtCSHWhsD5Ue1qJKofsjUp2L/0Yf4vw3LMNys4QwF1Eu7/rhp+6ZNaG7Kbjk1lBEeRBOEXcmmoxN5+YfStbKGx33klHt6PU0d7EnjZi2iv34whwK/iqFShogkKXRinTc58E1JOCuUzqdn0bUDS2mEHY+sPBfSvrhCjX7qKPPsRvLpxie+sy9tP5VGxBTSyaVDqJuNPfUes5B2X/2RApztyHXyF5RQdp3WjehNHm8E0Kebg2nN4sUUckXXg0hyyrnyPS0d1Zl4PAcavzqM/pWQTemafRERyXPp9PqpNNhzHM1a9Ff6YE4gfRVTSgwxJLpznNa+4Uh8vhP5rD9OSRUNPdVQxtEgmuBmT+ZmttRz5GI6lFZDRFK6vm4E9fZ4gwI+3UzBaxbT4pArpHo2UQ3u4+S5p2n91MHkOW4WLfrrBzQn8CuKKVV+WZd5ljb6dCM+35l8t5+itCfVlHFmE03qzieBiy9tP5dFREQ1GeEUNEFIXW06kpOXP4VeKyOGiKozztCmSd2JL3Ah3+3nKKueSJF9kN4T2lNnoS+FJj4lpvAkLR3SjWzse9OYhbvp6o8B5GznSpO/SCAJMSS++R0FDHMmezsX8pryMW1eMIx6Dfenvx1MoMIC/eeWXV9HI3p70BsBn9Lm4DW0eHEIXdF2TnPqY2j54Cm0t5D7OEXRRdo0xZ26drAll/ErKCJyE3lZNjzkSERP4mjbxJ5ka+tEnjO+oKvnV9PgPmNp3uajdKuCIarJoKNBE8jN3pzMbHvSyMWHKK3pGZ3m1GRQeNAEEna1oY5OXuQfeo3KGOLU7qXrJ2idtwPxTYU0K/Q8pWddowNLR5Adz4o8F+6juEJGKw66YsWIb9J3AcPI2d6OXLym0MebF9CwXsPJ/28HKaGwQG//CRID5xZr+FfKlWv69K+LNtaS6gw6vWkSOfEF5PrODjqTmkfJv2ylqT35JHCdTiH/uUePkiJo41tOxBf0oukhkZRdc5c2DDQjx2EzaeFHK+iTj96n6X5/ozN5CiJGRHeOr6U3HPnEd/Kh9ceTqDGd9dYA3Rj043PWksFYGtCBFhy5cTX2X9y6LeDuS5H9HU16pRtN3pOj2SuR9CFdPRxCM4SmZGJiRo4Dx5PPpEk0aZIPeY96nbpb2ZHvoTJuX7R0TpDn0JXvl9KozjziOYyn1WH/ooTH1drzD3Hp4cXNCS3WVHUGndk0ibrzBeTiu53OKYsG3fwugIY525OdixdN+XgzLRjWi4b7/40OJhTrt70l87kimw6+JyT7zkLyDU2kp1r9V+uYix9TlY7a1pZcaEldbe6e07RpkhPxBa70zo4zlJqXTL9snUo9+QJynR5C/7n3iJIiNtJbTnwS9JpOIZHZJCWimoyjFDTBjezNzci250hafChN9aAs93z4ME1jnLXPNhbNOYI4bWuOlGv+5agBtxo1rkSSYthO/TnUxhjU/Eqnt71PY/88hqYFfERLFy2hrWceUh0RMaI7dHztG+TI55OTz3o6nlTRmP8t9U1bMCH1Sz1GjPwOYfP3IGB7V3wT9g7sNb/kgMnYhmFeP2NizF18/ud2+b1q5GVHkYyNXsNxako8bm/1bJ+rFEaMGDFixIgGbdwiYsTIi4ZBdaUY9Ww14ndfguP7b7dqcW3kfx3dt4aNGDFixIiR9sC4wDbyu0SRsh3jHB3g0O1PWFo5FytGtv4ls4qKClQpqiF50h6PMxj5XaCoROUTBlUisdYbIY0YMWLEiJH2wrhFxMjvE0UeLuwJR1qXNzF3phe6tvKnIlN4HUeOXUCWSA5Te1dM8PsA41x0/Q0JI38YpNm4dOhfiM2tgkJgB5dxMzHf2xWq51+MGDFixIiRdsO4wDZixIgRI0aMGDFipB1p5XU/I0aMGDFixIgRI0aMcPHcFtg1eXdxr0DrjyP+BrCoyk1CXEIaSupfpB2GeZltezlgIH6Qikc1mp8baW/qC1Nxv/QlefCvJg937xWovb3xGWGfIic1G5KXZHh/DJrXWdQXIvV+qfHRUSN/CNpzbmaf5iA1W/Ly5kZ711sNXvrxP0eezwKbzcXeucMxYtFhlDwnr1b9568Y6D4J2xOfNn3IPELEp4HYcSYBp/7mA2F/XyyeMey52gE2D3tn9MXAWXuR2Zqnpn4DH/2eYfL+i9C5g9Dr9QUIz2vDq6JeYti8vZjRdyBm7c184Q/asZK7OPqJN9zcxmFb3Iu2BgBY5O6di+EjFuHwMycGg4L/hiJgSC+85rcXmX/EZ1llObh66HMsems0Ro4ag6l//Tv2n0+HWlVsf9Tr7PqJ6O3ijn4uvTFuW9wL17MRI89Me83NTAH+GxqAIb1eg9/ezHZ5M2D70571VoN2HH9t1iX8sHk+3hw1EqPGeGPKO+/A13cGFm3Yj+vFz9Lyc0bzD2O3F9W5dyg5v07z4zbCUFnSLcpWNPz/Uzo57zXy+WcKNfXAUMmP06n7W3tJRERMxWUKfj+Qdl++1Y52aMMU7qa3+/lTeG6jcS2mfX30x6P+vx+Ri7kXbU1vvW9fXhgq3P029fMPpzZI5rnA5H9D483tyf/fL4kWq3PpTnK+Wm4/C1KK+0RI5n9aTQlSze9eLExZEt1qKmrPQD1dWeJMfLMxFPpI6+0k7YyOOjv7fXpviBnZ+/+7nWL2ctF+cTLye6Hd5mZpHH0iNKc/rU6glpSfF6K1dq23GrRy/JxUn6DZXfjUafYJqiOiukenaekgazLr+S4d+q191kKezxVsANbOnhjYo/V/Ok0nNTfwzcZDeNDwQ0WWAdGgb3AkaACaepAh8XIcaqxtYQGA19kbG47sRqC3V/vZoYPadBZvHwqDv3Pr/wJFu/roDwjf2gbWz02hL4papLNv41CYP9ogmecCz9YG1ppvZX6RWDvDc2APtdx+Fviws7PFyzQ8JTW48c1GHGosas8CH7b2tuCZ2KJT5+edMDrq7NFvMdHheff7omjPOBn5vdBuczPfDna2La0+L0hr7VpvNWjV+A0gsEPHDiaAqppbuEzB9g1/gf3jkwj+Jk7z6JeCZ66KsrJMJERH40a2GM1u5NcXIiWjRGPfTS2KUq8jOvY28p6qf1OD/NQsiFhAVpqO+PgMlKk0xpYnYue89xF6MxfJF6NwNa0crNkQLFj8J5Rkqfb8SfNx88JFJD6sAlORgcuRFxCfrbpJqssOWRkyE6IRfSMbYs3dB4wYOUnXEJuYiTI99zvZ4mRciopEZNQ1PP5zIP466AluX4hEZOQFJD6qbTyuJj8VWcpBIT0+HhkNg2rgOdimD1byEDdiriE5vwqiomI8VRtDpoQFmCKdY2iO/jg1wUCck4RrsYnI1DKyFgUp91HKAowkB0nxd5HfsL9aVoqM+DjcK1LbCWZiokolgqL8PhIT05X7PdWpzUdqZjmY+iLcu5mJykaf6dOaNno1DIAR5yDpWiwSM8u0bn/XFqQo9y0zEuQkxeNu02BQmhGPuHtFqn1tLIqTLyEqMhJR1x7jz4F/xaAnt3EhMhKRFxLR5O6W+BdgRemIjopEZGQkIi/cQG4tANQi98YFREZGITpdpHmKCj0+4TX4WQ/sUzxKz8FTloE4OxGxN7IhaeaoWuSnZqKcqUfRvZvIbAoCaotScT06FrfznmrvwdOr9XoUpmRo3J7l0pUOFJXIvhmD2LsFqNP8DgBqi5B6PRqxt/OgLQ8WlfdjERWp9HFUXBaqWABPs3H9QiQio+KQpbahW98Y9eY/W47EnfPwfuhN5CZfRNTVNJSzAKCA6MENXL0SjVs5Ei0tGoYzigAAhegBbly9guhbORoxZCF5eAMx15KRXyVCUbGOBx/01lkeTHR1zVWvWp23LbAPAPv0EdJznoJlxMhOjMWNbF1+1NeHho4rSvTEiUM/NflIzRKBhQyl6fGIzyjTvjWu71wAgAxlmQmIjr6BbK0JQJ/dLasbTRjSmXq9yoRyemhbvdKvN13oG5+e2BusS+BoE9y+1jU3c8atOYrKbNyMicXdAp3VR7tm6K0JXP3qrrstn5ca0K63emtXAwoRHty4iivRt5Cj7XTu8Rs4tzVY9OoFRz4LUWlp42f6NafbX+1pjyZtX2Cz5YjePhcB/7iMvLIU7JoqhFfQKRQrxLh7/FO86dYbY7bENgaSLY7C1kUrERaTgls/r8Qo4Risv1yO0puHsXy8G4STQnB8/2L4vO2POW97YIBvGLIZFpIiESztO4BlpaiRSFBVXdHY/tiGPX8kQ02VBDVygOQ1qJJI8KRWhNtadrAoj96OuQH/wOW8MqTsmgqhVxBOFSuVJUn8JwL81iAiNR9Zp1didD8fBF8t11oY8Dr1xKulP2LxtEXYn6EA+J3QwyELO2dPxScRRZCX38Th5ePhJpyEkOP7sdjnbfjPeRseA3wRls0ArC4ftY9tupCl7ERA0DEUKOqRcWA2hr37A/JtucfQXGYsyjnjpDpMkoh/BvhhTUQq8rNOY+XofvAJvopylkVl0lGsfEOIPmM3I+LEJsyeFYAP3hkO92ErEZV0BEsmT8f8D2dgmPtobEpQX+ATSs8FYYTnCHiPGgAX92n4JqkaYMuQeGAZxrsJMXHzHux4dxRGDB+C+UdEerQm0vaVPg2zACBB4j8D4LcmAqn5WTi9cjT6+QTjajkLtjIJR1e+AWGfsdgccQKbZs9CwAfvYLj7MKyMSsKRJZMxff6HmDHMHaM3JaAWPHTq+SpKf1yMaYv2Q+nuHnDI2onZUz9BRJG8Zf5VwbPsgJpLGzBzsj925zqgqwUAWKAz/zq2rTuLGrsOzU/Qm386fNIMBgWxu7BwiDP6+e9C+JY3MWjoRLwx3B3CCcG4XsWiLPEAlo13g3DiZuzZ8S5GjRiOIfOPQMQWI2rrIqwMi0HKrZ+xcpQQY9Zfhkg5m+jRugLiu8fx6Ztu6D1mC2IbiodeXTW3toHa1L2Y47MQ+5MLkX1mHYLCHqjpmUVx1FYsWhmGmJRb+HnlKAjHrMdlpWEqeLDubI7M7xdgyrTtuGPXXXknxeoVdLj5NUKTBOhkxQP0jLG8lDv/WUkRRJb26MCykNZIIKmqhYLJwdF5w/DON/dQURKPEB8hRm1JgL6fuq2HQc7ReRj2zje4V1GC+BAfCEdtgTLVZEjZGYCgYwVQ1GfgwOxhePeHXO2Foa46W8/o1JDeetWmvG2BfUwBYnctxBDnfvDfFY4tbw7C0IlvYLi7EBOCr6NKdZjuPspRokPHf56zF48046RPP+WluHl4Oca7CTEp5Dj2L/bB2/5z8LbHAPiGZav0p+dclfbY8mhsnxuAf1zOQ1nKLkwVeiHoVDFYDru55081/zTQIp21R73i0ps2usenL/YP8YizLhlqk8PXeuZmrrg1pxape+fAZ+F+JBdm48y6IIQ9UAuEvppRqaMm6O1XobPu/nl2MHa3al5iteota2jtAoDJOYp5w97BN/cqUBIfAh/hKGxpDCz3+LnPbS0sym7dQS5jhUHDB3NoTv88Vdau9uhAc89Iy2Co+Jgfufl8R3kMEZGc0r4cS526z6OT1UTEFNN33uZkO/NnqiEiYkrp+OzxtCZRtQuHyaOvx5qRqedGuitX0MMvR5KZrRctO5VDUiKS/Hs2OZiPoi8fKoiIoaJvvcnCaSGdr2/oXtl+8z1/NfTjNAuy84tQ9ql2XIMdTPEx8nPzoe+URpM87Usa26k7zTtZTSQ+Tx8K3Wl5TEOLNRS30p3MHGfRTyXa+xoVGdtoiEVfWnVdNSbpdVrV15KG//1XUhCR4uGXNNLMlryWnaIc5aBotoM5jfryISno+drWHCnFr+pPHp8lKn3FlFD4tl2ULjc8huYYipOYzn8oJPflMY0xqYlbSe5mjjTrpxJiVHE0txpGa2OKSUFE0jsbyMO0Iw3/7CI9lhOR/C5t8DAn16CrVE9E8ptrqb+ZE03deZNECqLq1H00w8WUzL2CKUWu0tE4M7IcsIwulokp/XIU3Ssv5tCa+ni4NSw+/yEJ3ZdTk8vjaKW7GTnO+olKGCKm6FvyNreiYWtjqFg5GNrgYUodh39GF5WDobsbPMjcNYiu1hMRKShj2xCy6LuKmty9ivpaDqe//6pogX81qImh5UJzcl8dT8q0YKjk8ByatSeftBTBmX9E9OQgTbHQtwdbSvGr+pKp4wTaFPWY5FRDGfumkxPfjAZvvkdyYijv63FkZjmAll0sI3H6ZYq6V07Fx2fT+DWJqn13DOV9PZbMTD1p4105t9aJoeLvvMncdib9XEMt0JUGNXG0+nVXmn9KrPqgms4ucCJT1R5spvQ4zR6/hppc8TWNNTMlz413qZk8iEieupX+bOlE809JVAcX0cGPVlPkUyIihko5xmgo/5mib8nbwokWqoqa4v7nNNRqMG1JVWrn5tr+ZOGhqVl9yOnW+gFkaj6FDj7R/E6F4j59PtSKBm9JJXlDbll40Ma7ciJpPK3q70GfJSo9zJSE07Zd6Vr+UKKjztITOjjFoqkeG6pXrc3bmhbaJ42nVX1NyXHCJop6LCeqyaB9052IbzaYNt+TG8gDXToWkVwjTpz6UTykL0eaka3XMjqlDDr9e7YDmY/6kh4qDJzLFNMxPzfy+S5PqWl5Gn05thN1n3eSqjntbl3daLnOnrFecelNE67x6Y29gbrE1aaUw9dE2nMzV9yUHzVSE7eaXnedT03l5ywtcDJV7UHmrhmaNYG7Xw69tmpe0qy3htYuCrr/+VCyGryFlBK6SWv7W5CHyhfc4+c+1yD1V2iJi4Csh6+gIydPUnjoQvpz5470p1l7KbXOQI3T6a8ySn8We1pAG69gixF5PArmnl7oxgMAAV5bFQ1R4SH4WgPg2cCmg9o9w9ponIwqxIOzoQgJCUHIjnDU+WxG8NzBsAQfHTpYg2/jAR+fXjADYC3sgx68Kkgq9bwDh2cDmw4tMF3DDnHkcUSZe8JLaTQEr61CtKgQh3ytUXlmH34qcMNAz4adSFYY6ucLYcVZHIuUNLbRUvgdOsCabwMPHx/0Ug4KfXrwUCWpBOG3tE0AJ6Ez8r6aijHzPseJdFP4rf8Y/QSaxxnCQJwqz2DfTwVwG+jZuJfLaqgffIUVOHssEhLw0MHaCiZmvTDIqxv4AMyEbnAWAD0GjYSTAIDABc7dTVAlFit9BAB8R/zZexA68QHr/h8g9JNRMEmNxbUKFuBZwtKMB1svb4zuaod+3j543SKWQ2vqcGm4Emf2/YQCt4FocvlQ+PkKUXH2GCIlAK+DNaxMzNBrkBe6KQcDN+VgMFI5GLg4d4dJlRhiPTJujgH/amI1EkEfj0Lh4a9wopQFmDxEnDPF9Bk9tG9LceafIXiwtLQAv+sITPN2ggBWcA/YgkUehNSYGJSyPFhamoFn6wXv0V1h188bPq9bIPZkFAofnEVoSAhCQnYgvM4Hm4PnYrAlt9YBHmxsOjRtdjCoq+ZUR+3GoZwBGDfeTvWJBXq5OKJhu3tt9ElEFT7A2dAQhISEYEd4HXw2B2PuYG1PCPotQOAbtTgZFoFCFmAeHMeNV2ZiQgcAqEU0xxgN5r8GfGEgDseGI8ilANEHduBgohistA71ui6StQW+EIGHYxEe5IKC6APYcTARYlaKunoWEDhB6JyHr6aOwbzPTyDd1A/rP+6HVpcIFQbrVWvztqX28SxhacFH1xHT4O0kAKzcEbBlETwoFTExpWA580CXjjtp5RKnfvgd0MGaDxsPH/gogw5hnx7gVUlQSQbOFUfieJQ5PL26KfsUvIZV0SIUHvKFNafdrasb7aczA/1y6U0TrvHpjb2BulTN0SaXr6E9N3PGrRnViNp9CDkDxqGp/PSCi2Nj9eGsGZpw96tbr4JWz0sa9dbg2oUPYeBhxIYHwaUgGgd2HESimIW0rh6swfFzndtyzJz64XWnTnhl4BzsvpWHtOOL0N/CQI3T6a+u+FM72MOFZv1oGYwIZRX1kFSqLYSaYQITtU157NNyiOrM4e67GmvXrm38b83yqegrQLNjAcCEz4cJCKzuxlXta36mC3U7GIjKKlAvqdSx4GFQmv8YtawMMrXNSQIXZzjxZJCIn7Te4Y37hxv+nw++CUCNg/qtbOOh54IjuLTHDzYx2zFzUF+MWHYS+bpuHxqAK05MaT4e17KQNTcSzk48yCRiPGG1z4cJDybNFGQCHg/Q/25RHrq69oKdCQOFXPWRRpOGtNYIl4aZUuQ/rgUrk6ntVRPAxdkJPJkEYuVgNLo2Ac8EzUfDPRgtNP3DnQd8uM5dgRkW5/DVnlTUpx/F1VdmYXInzeNa4ZOWIuiN1/pYA3IppARdQUC5qA7m7r5Yrdbf2jXLMbWvCYfWlZio+bYlumqCQUHmr5CAD4HOysbiabkIdebu8F2tZtfaNVg+ta+OBZsjZga+A5urYdifVoObPz1E/9meylerc45RoK0PrfzXgCdAXfJOLAo8gKKBHyBwgiN4eg5tGzwI6pKxc1EgDhQNxAeBE+DY0AGvJxYcuYQ9fjaI2T4Tg/qOwLKT+Tr25raEFtYrLclwaNSs7fYJer8GpVSlYLj6EEDbKC0M6UdzXjIBXxl0kIFzTURlqKiXoFJHUnD6prXzZzvqjLtfDr1pwDm+1sRerS7VPdHfpluVfl8rUZ+buePWrGYwBcj8VQLwBboXVoZqRvODW9CvDr1q1p0WzEvq9Vb1AWft4gnqkLxzEQIPFGHgB4GY4MhTtm9o/FzntgIT884Q/nkMvL3HYHCvjo0XTwxrTttf7WEPF/r8wA3/FfR0skRp5M+4UNnwIQtRZBjCs7Slz7PtDkerTETsvwJx46cMciLPIUVro9/zgo9XejrBsjQSPzcZDVYUibDwbLzSpzdsmXQk3W7af8PKpJDxXsVAT0dtR/EF4OsoYkTa4zdMO9vWDAYFaY/RI2AnrmSm48y615G/OwjbL0vbdQz87n3Q25ZBetLtpv18rAxSGQ+vDvSEI7eRLaa2vAJ1PT0w6BXdDbZYa1wazn4FfXrbgklPQpPLWcikMvBeHQjPNg6GL+CrJlt1CG1wt5KOPlj+4eu4v+/vCP7uDl57fzysNI9pjU+4IFL7ISdHbT0LB/f+6K7rL6HwbNHd0QqZEftxpalDMDmROJdCHFrP0po4W6crE3Tq0gmC+jTcTpaqfwEQCxY82HZ3hFVmBPY3NwyR51K09xwD6PBmIAKE6Tj4VTCOV43FLFfVgDnHqKslbqrPr8C0dSLM+HYr/Ac7NE7cz17sGTw8dgiXS89jxbR1EM34Flv9B8NBvQOmAGmPeyBg5xVkpp/ButfzsTtoOy5ruLBl8NG9DfWKU6PS1tlHpParS16LetYB7v27w5SrjxaFrPX6aYL7XHqlJ5wsSxH58wU0lSMRIsPC8av1s9rdRGt09kz1qppDbxo8U+z11KVX7fW3md5Zv6+1ly/ccWvmfpNO6NJJgPq029AuP2wra0Yr+v1Nqcb5FdOwTjQD3271x2D1wBoaP9e57UErNKfkOdvT5gU2OmLS/JnoUXIEH/5lOb6P+AXhoR8hIEKAEW58ACwYllROBWA9EfP9eyE3zA/jZgfjh4gTOByyEJ/FW8NVwIJhFCBWbaFHpJwQWeWlfQsLc+BJMYoqy3EjLgW1YMGwyl9UTcklg0xOkMmkap81t6PjpPmY2aMERz78C5Z/H4FfwkPxUUAEBCPc0GnyUgQOEOPE1weQJVOeW3IpGgUjl2LJaPPGFhvgOzihm1khEi/eQWnZfZzbfQjXRQqUFzxCxdN6sAwDBbFqV6wIBALLsir72tG22lvYNW8y3gu+oHpATx0GBRFfIOxOLWDhgrfWbcAMFyuYW5gYHENzDMSp42QsDRwA8YmvcUBpJNiSS4guGImlS0bDHADDsqqFTgOk9EujnpX/Zlm1Kke1qJKosrU+FfuPPsT/bViG4WaNp0AhVys3nFprOoxbw50weWkgBohP4OsDWcoHadkSXIouwMilSzBaORiwIDRIHA2jUbsyQMrBqBaNfDg4dYNZYSIu3ilF2f1z2H3oOkSKchQ8qsDTegP+1YkA/RYtx2T5v/DP9OF4f7DmVRAVhnzCMGBU2tQHW56H3GrVv4tO43RKfwQumaDatkGAQq5W9K0xcb4/euWGwW/cbAT/EIETh0Ow8LN4WLsKOLXOB8AyLKhBJy3QVRM8dJ0yB5O75GD/inU4my8DpHm4k1YGRlyIvJIqmEycD/9euQjzG4fZwT8g4sRhhCz8DPHWrtpXsAFA4IkFi0dDdOwEaMpkdG78gnuMhvKfZ2EBczxBcVElym/EIuF+Dkqr85H1qBr1BTE4k1AMprYKxck3kPZEhEtb/PDetqtqiwV1WMjqZSCqQ11t8xjWpu3B5gRLeCoeIqe0GvlZj1BdX4CYMwkoZmpRVZyMGylZiPgiDMoS8RbWbZgBFytzWGhf8NFTZxkwjHISZQF0NFSv0Mq8NSlohX0syvNyoZQqi6LTp5HSPxBLJlhw9yGADh1rxikOD0dy6IdlwCgIrNqiVJnCLFgWsObSXsdJmD+zB0qOfIi/LP8eEb+EI/SjAEQIRsDNlsvu1tQNFlUPOXSmym8lz1av2CoOvTXviDsuBmKvty5xtdmZw9d8aM3NnHFrGgXA64opcyajS85+rFh3FsrycwdpZQzEhXkoqTLhrBmt0hqgU6+tn5c06i3AXbvYKjzMKUV1fhYeVdejIOYMEooZ1FYVI/lWKff4xSX6z72RBlZ0CVv83sO2q7qrHCCFTE6QS9VrTxOGNafhL66x3Ehr3nhb0dyU3XJqKCM8iCYIu5JNRyfy8g+la2UMEVVTxplNNKk7nwQuvrT9XJbq8Aw6GjSB3OzNycy2J41cfIjSaogkKSdonbcD8U2FNCv0PKVnXaMDS0eQHc+KPBfuo7hChhTZB+k9oT11FvpSaGJJU/u9ptPn57OI5Dl05fulNKozj3gO42l12L8o4XGVTjtqMsIpaIKQutp0JCcvfwq9Vtb4oJQ89zStnzqYPMfNokV//YDmBH5FMaVaj1GpeEJx2yZST1tbcvKcQV9cPU+rB/ehsfM209GrsXRinTc58E1JOCuUzqdn0bUDS2mEHY+sPBfSvrhf29U2pvAgTe9mR10cRlJwqub2fCldXzeCenu8QQGfbqbgNYtpccgVUj4byTGGWxXNWmlJnEieS6fXT6XBnuNo1qK/0gdzAumrmFJiiKg64zRtmuREfIErvbPjDKXmJdMvW6dST76AXKeH0H/uPaKkiI30lpMyriGR2SSt+ZVOb3ufxv55DE0L+IiWLlpCW888VD2sKaI7x9fSG4584jv50PrjSVTR4Cw9WtNGn4aJiOSUe3o9TR3sSeNmLaK/fjCHAr+KoVLlYOj0pknkxBeQ6zs76ExqHiX/spWm9uSTwHU6hfznHj1KiqCNbzkRX9CLpodEUraUiJ7E0baJPcnW1ok8Z3xBV8+vpsF9xtK8zUfpauy/DPtXJ/UUs3wwTdlbqP3Anzr6fFKXSWc3+lA3Pp+cfbfTqTTNp+TkdHfDQDJzHEYzF35EKz75iN6f7kd/O5NHCmJIdOc4rX3Dkfh8J/JZf5ySmoJAGUeDaIKbPZmb2VLPkYvpkFoQ9Gm9OuMMbZrUnfgCF/Ldfo6y6olTV9owJL75HQUMcyZ7OxfymvIxbV4wjHoN96e/HUygYoaoJuMoBU1wI3tzM7LtOZIWH0pTe2BPB+JfaMHkYLqnmVr6xihJMZD/hUSKbDr4npDsOwvJNzSRqgpP0tIh3cjGvjeNWbibrv4YQM52rjT5iwSSKLLpu0mvULfJeyhH87k16UO6ejiEZghNycTEjBwHjiefSZNo0iQf8h71OnW3siPfQ2VETCGdXDqEutnYU+8xC2n31R8pwNmOXCd/QQll12ndiN7k8UYAfbo5mNYsXkwhV3Q8QKqzzlZT5tmN5NONT3xnX9p+Kk15qL561Za8lbbUvru0YaAZOQ6bSQs/WkGffPQ+Tff7G53JU3Oazj44dKwRp6ekTz8SSjmxjrwd+GQqnEWh59Mp69oBWjrCjnhWnrRwXxwVGtJeTQaFB00gYVcb6ujkRf6h16ixHOm0u4V1WQ2GS2fNjnzGelVQoF9vWh3pH5/+2HPVJQNtqr7T7Wvd6xfOuKnDiOnmdwE0zNme7Fy8aMrHm2nBsF403P9vdDChWH/NoNZoTY9e2zAvpSRr1NtSQ7WrgApPLqUh3WzIvvcYWrj7Kv0Y4Ex2rpPpiwSJgfEXcp6ryP6OJr3SjSbvydH0KtVkXqYDm6eSs8CE+N0m0Oo9ZylVU0d6a9zfKSpGh7+I4bSnPTAh9Z82Rn7HyBC3bgluLwzDsobb2Eb++LD52BOwHV2/CcM79ppftgcKJG/0wvBTUxB/eys8dV7mNWLkJUCRjI1ew3FqSjxub/XUfUfCyB8EY10y8vLTxi0iRl4uWIji9+Js5/cx17i4/p+Aqa6EuJ5FdfxuXHJ8H28/l8V1c3TdljNi5OXDqNT/JYzRNvKyYlxg/wFgxalIZidj88px+A3WWUZeNIoUbB/nCAeHbvjT0krMXTHy+bzmFgCgQGXlEzBVIog138ZnxMjLhKISlU8YVInEWm9dNfJHw1iXjLz8GLeIGDHyu0OBvAt7EJ7WBW/OnQmvrs/rd7IU2ZcO4V+xuahSCGDnMg4z53vDteEBUyNGXhak2bh06F+Iza2CQmAHl3EzMd/bVfknFY38wTDWJSO/D4wLbCNGjBgxYsSIESNG2pHndenLiBEjRowYMWLEiJH/SV6OBTb7FDmp2ZD87p9WqEHe3Xso0PwT0i8t9ShMvY/S373fn4H6QqTeL315HpRhxHiQ+gg1mp+3IzV5d3GPS6TPOR/19s9WITcpDglpJah/rrn0PNvWx/9arrF4mpOK7GcUEVuVi6S4BKSV1L/wXNWr2+dIfWEq7v9ORfOb++s5162XMxYvopZx0IYc/aPpRJ0XvMBmUPDfUAQM6YXX/PYi88W9nqhdYHP3Yu7wEVh0uKRVAvvtYSG5exSfeLvBbdw2xP0vPiTCSnD36CfwdnPDuG1xL8FDUQzy/huKuYN64fUF4cjTeqNYO8HmYu/c4Rix6DBKtET6G+Sjnv6ZRxH4NHAHziScwt98hOjvuxgzhj2fXPpt87T9co158C18+w7C3MMPX+Cb3AzDFPwXoQFD0Os1P+xts4gYPIr4FIE7ziDhP59hQq9u6Nbd9cXlqh7dAoD02nqM6DsGq6LK2k1PrOQujn7iDTe3cdj2LKJ5Ufym/nq+detljoX+WibFtfUj0HfMKkSVtY+XOWnrfMqhk/bn+epEJ5p/GPu3R0pxnwjJ/E+rKUGq+d3vjWrKvZNM+XWan7+MMJT/zXgyt/enf/8u7H0OMPn0zXhzsvf/t/LlNS+cevrvRy5k7rWV0jVfKNKOVOfeoWS9Im3vfGSoLOkWZauNR6t/poR+nN6d3torIiKGKi4H0/uBu+nyrXbKJaaMkm5lN72A4jfP0/bINYYe/fNN6j//3/RY6w0rLx/SuE9IaP4nWt1GETElP9L07m+RUhIVdHnzdBr5J9MXmqtauiVSvshrlRcNXx+r/aKWZ4TJ/4bGm9uTf9tF03q0cqXt/Lb+au+61Zz2jgVTlkS31Itim9FTy6TXaZXXcFof275e5qQl86kOfenWyfPi+epEkxd8BRsA+LCzs4XOt97+7rCGs+dA9Hh+fzOtHeHB1sb6D+L3NsKzhY31y+QBPqxtrJ/7bSVrZ08M1CvSds7Hmhv4ZuMhPFB/K7Zm/7JEXI6rgbWtBQAeOntvwJHdgfD2ap9cqrnxDTYeetDsVe6/bZ62R65VIYP/Do5++w6cnrdA2gG+nR1sn2HAssTLiKuxhlISneG96SAWKN9j/cLQ0i0AMPnIe/VTHNsyGh2bf/PM8Gxt8FuXJ+1caTu/rb/auW5p0L6xqMGNbzbikHpRbDO6axmTn4dXPz2GLaPb18uctGA+1aUvnTp5bjxfnWjyzKVaVpaJhOho3MgWN77bHgCgEOHBjau4En0LORId97sVlci+GYPYuwWo0/wOCoge3MDVK9G4lSNp3q4uaouQej0asbfz8FT9NgMrwcMbMbiWnI8qURGKVRtb2aePkJ7zFCwjRnZiLG5k6+hDX5sAABnKMhMQHX0D2eLmZ9YXpiBD415HbVEqrkfH4nbe09bdEtNjP2DIPnX0+5Jnoi2z2oIU5T4zRoKcpHjczW/oVIbSjHjE3StC891S+tsHAMjKkJkQjegb2dBwFYBaFKVeR3TsbeQ1G0QN8lOzIGIBWWk64uMzUKZRixSiB7hx9Qqib+VAl7yao68fHnS4oDk1+UjNEoGFDKXp8YjPKNOefBgxcpKuITYxE2Wa98ZqC5ByvxQsGEhykhB/N79xf7WsNAPxcfdQpOZQkwaDSIHy+4lITC/R8Hct8lMzUc7Uo+jeTWRWNg2+xTqrL0RKhsYtRc585NKb/lix5YnYOe99hN7MRfLFKFxNK1f2qda/NP8mLlxMxMMqBhUZlxF5IR7ZT5Xn68ol/XrSpUMW5Yk7Me/9UNzMTcbFqKtIK1e219g2W4n7sVGIjIxEZGQU4rKqwAJ4mn0dFyIjERWX1bRXjyvOBtCVa63TsDk8xr4GcZKGhtmneJSeg6csA3F2ImJvZOtoi4E4JwnXYhORqdNw/fWsdTYqUJl9EzGxd1GgW0R68lAdKfJvXsDFxIeoYiqQcTkSF+Kz8VRvrnKNTU+uGJib9M5puvIGnTF0ZDfk39KhiZbUDi54JjoWArp0zoG+vNWaW/TnykvtrzbXLQ0M5ZGuWHD4pSY/FVnKooj0+HhkNBVFJO6ch/dDbyI3+SKirqZB6WZDcdWfozrrZOehGNktH7cyy7S2a+i1rRXonmv05Sg4a7GmTlq0PmttLW4vnbSSti+w2XJEb5+LgH9cRl5ZCnZNFcIr6BSKWYDJOYp5w97BN/cqUBIfAh/hKGxJqG08tTZ1L+b4LMT+5EJkn1mHoLAHTQ5kcnB03jC88809VJTEI8RHiFFbEtB0tjosiqO2YtHKMMSk3MLPK0dBOGY9LotYQJaCnQFBOFagQH3GAcwe9i5+ePgIsbsWYohzP/jvCseWNwdh6MQ3MNxdiAnB11FlqE0AbHk0ts8NwD8u56EsZRemCr0QdKoYCvFdHP/0Tbj1HoMtsaolEVuMqK2LsDIsBim3fsbKUUKMWX8Zqqa40WV/rsKgfc1ohS/ZyiQcXfkGhH3GYnPECWyaPQsBH7yD4e7DsDIqCUeWTMb0+R9ixjB3jN6kaoOzfRbl0dsxN+AfuJxXhpRdUyH0CsKpYpUfi6OwddFKhMWk4NbPKzFKOAbrL5ej9OZhLB/vBuGkEBzfvxg+b/tjztseGOAbhmwGABjkHJ2HYe98g3sVJYgP8YFw1BaoyasZuvsRcS9AodT3zcPLMd5NiEkhx7F/sQ/e9p+Dtz0GwDcsu1GvksR/IsBvDSJS85F1eiVG9/NB8NVysGwlko6uxBvCPhi7OQInNs3GrIAP8M5wdwxbGYWkI0swefp8fDhjGNxHb2puP5XiXNAIeI7wxqgBLnCf9g2SqlmUJR7AsvFuEE7cjD073sWoEcMxZP4RiFqqM1aMu8c/xZtuvTFmS2zjwp0zH/XqTYFyzlixkBSJYGnfASwrRY1EgqrqCq3+SVaDKkkN5CDIa6ogkTxBrei2di5x6UmfDlkJikSWsO/AgpXWQCKpQnWFRp7yrNHZPBPfL5iCadvvwK678g6C1SsdcPPrUCQJOsGKxxHnRj+1hvbQcBnyYndh4RBn9PPfhfAtb2LQ0Il4Y7g7hBOCcV1ZzABJIv4Z4Ic1EanIzzqNlaP7wSf4qmpS11/P2FbaiNpU7J3jg4X7k1GYfQbrgsLwQG1W1D0GXXlIkNVUQVIjB0iOmioJJE/qwWgfyDE2/blSxjU36ZvTFLrzRq8mWlg7Wo0+nWseB3DkrZ65MadCK1dqFQbm8hfsr7bVLU0hMShoSR5poM8vbPlNHF4+Hm7CSQg5vh+Lfd6G/5y34THAF2HZDFhJEUSW9ujAspDWSCCpqoXCQFz15ajONQckSPxnAPzWRCA1PwunV45GP59gXC1nDdrWIlo612iioxbXyjR0whS0YH3GoSONLhtoH520Ec09Iy2DoeJjfuTm8x3lMUREckr7cix16j6PTlYr6P7nQ8lq8BZKlROR/Cat7W9BHhvvkpyIqCaOVr/uSvNPiVVtVdPZBU5kqtoTo7j/OQ21GkxblCfTzbX9ycJjI92VNzOAiIiY0uM0e/waSlTtpWHyvqaxZqbkufEu1cSvov4en1FiHRERQyXh22hXupxIGk+r+pqS44RNFPVYTlSTQfumOxHfbDBtvifnbFPOFNMxPzfy+S6PlMNOoy/HdqLu805SNRExxd+Rt7ktzfy5hogYKj0+m8avSSRlUwzlfT2WzEw9aaOuwWgg1WM/p30abRjy5ZODU8hCbV8oU/QteZtb0bC1MVSsICLpHdrgYUodh39GFx8r27i7wYPMXYPoaj13+0zxMfJz86HvlAIhedqXNLZTd5p3spqIKaXjs8fTmqZB0NdjzcjUcyPdlSvo4ZcjyczWi5adyiEpEUn+PZsczEfRlw8VRIr79PlQKxq8JZWU8lpL/S08dPuUsx8ioid0cIqF/j1jiof05UgzsvVaRqdypEQkoX/PdiDzUV/SQwURic/Th0J3Wh7TcHYNxa10JzPHWfRTCUPEFNG33uZkNWwtxSgdSnc2eJBpx+H02cXHSvvvbiAPc1cKulrf6EMzp6m086aIFFRNqftmkIupOXkFp5CcGMr7ehyZWQ6gZRfLSJx+maLulVNxa3TGFNN33uZkO/NnqiHD+citNwOxIoaKvvUmC6eFdL5eT/9ERDU/0jQLO/KLaPxEI5e49cSlQ2UMLMhp4XlqMqF520RySt36Z7J0mk+nVFsWmaKD9NHqSHpKLYhzC2iWa+2mYSnFr+pLpo4TaFPUY5JTDWXsm05OfDMavPkeyUlM5z8UkvvymEZ918StJHczR5r1UwkxXPWsNTZSDcWtfp1c55+iRhWdXUBOpqo92JxjUG+niZofp5GFnR81SUIzVw2MTWeulFG63rmJa07ToVtDmjBUO1rCk4M0xaJp3y+nzjXgylu9c6NWrnDN5S/YX89UtzQxlEeaseDyC5Hi4Zc00syWvJadIuVQ/k2zHcxp1JcPSUGqedbCiRaqiiJnXLlyVEctE5//kITuy6nJzXG00t2MHGf9REo3c9vGjaE1jWaOaqClLx06MbA+M6gjTdpVJ62njVewxYg8HgVzTy904wGAAK+tioao8BB8rfkQBh5GbHgQXAqicWDHQSSKWUjr6sECqI7ajUM5AzBuvJ2qLQv0cnFEw+46vjAQh2PDEeRSgOgDO3AwUQxWWod6HT8oaqNPIqrwAc6GhiAkJAQ7wuvgszkYcwdbQuAkhHPeV5g6Zh4+P5EOU7/1+LifAOBZwtKCj64jpsHbSQBYuSNgyyJ4UCpiYkpRzdEmxJE4HmUOT69uykv/gtewKlqEwkO+sAbAs7FBh8ZbJLWIPhmFwgdnERoSgpCQHQiv88Hm4LkYbNlsGDrRZz/XmDVpjS8BgNfBGlYmZug1yAvd+ADMhHBzFgA9BmGkkwCAAC7O3WFSJYaYuNsXRx5HlLknvJQCgeC1VYgWFeKQrzVQG42TUYV4cDYUISEhCNkRjjqfzQieOxiW4KNDB2vwbTzg49MLZgCshX3Qg1cFSSUBfCECD8ciPMgFBdEHsONgIsSsFHW6BsXZTwvgd0AHaz5sPHzg08sMgDWEfXqAVyVBJQGVZ/bhpwI3DPRs2D9mhaF+vhBWnMWxSAnA6wBrKxOY9RoEL6VDIXRzhgA9MGikEwQABC7O6G5SBbG46X1PfMc/w3tQJ/Bhjf4fhOKTUSZIjb2GCpYHS0sz8Gy94D26K+z6ecPndQvEtkZnPBvYNInUYD5y681ArHSh0b8+mucSt564dKgLzbYBAfotCMQbtScRFlEIFgweHL+BV2ZOQAe0IM6tpd00zIOlpQX4XUdgmrcTBLCCe8AWLPIgpMbEoLTiDPb9VAC3gZ5otHyoH3yFFTh7LBISrnrWGhuro7D7UA4GjBuPRhX1coFjk4g4xtBGKg2MDbpypSv+pHdu4prTtHVrUBMGakdbaI3OufJW39yiDddc/mL99Wx1SxMDeaTlXy6/APwOHWDNt4GHjw+UQxGiTw8eqiSV0DEU7rhy5ahWLavEmX0/ocBtIJrcPBR+vkJUnD0GpZtbZ1tznm1NoxPN+cDA+qzCkI40aF+dtJ62LbAZEcoq6iGpFOsMCk9Qh+SdixB4oAgDPwjEBEee6jgGBZm/QgI+BPp65glQl7wTiwIPoGjgBwic4Aierk7A4mm5CHXm7vBdvRZr1zb8twbLp/aFWc8FOHJpD/xsYrB95iD0HbEMJ/N13wYR9H4NfawBubQOTzjaNBGVoaJegkq1xVAzTEya9iCxT1EuqoO5uy9WN7azFmvXLMfUvrqKWXN4Ou2Xc45Zq9UW+1KFieY+MxPwTNAsxiY8HtDw8k+97TMQlVWgXlIJXa5in5ZDVGcOd9/VamNYizXLp6KvQG0fsgoTPh8mILAEADwI6pKxc1EgDhQNxAeBE+CoZ1CG+jGMWjxV/8/nmwDEgsCgNP8xalkZZGqbpAUuznDiySARPwGrdT5gou1Q8EA68wgAwOsK1152MGEUkAOA5k7AVuvMRM2/hvKRO8cE6nvGVTSPlS7U++dAPZcM6Em/DvXQrG0lPMeZCHzHBlfD9iOt5iZ+etgfsz3NgBbFubU8Rw0LeuM1ZTFDbUk+HteykDU3HM5OPMgkYojLuepZy21kCjLxqwTg6xZR68fQAphS7rE9YaGdK1xzk4E5TTNvDGtCU2PqtaONtFjn3Hnbmrnx5fTXs9ctg6jlkVTbAP1+gaq+qB9swodyKDoaAndcmdasOZhS5D+uBSuTqT23I4CLsxN4MgnET9jW26ZOq+ealmB4Pmhan9WixKCO1PkNdGIAnd0ahP8KejpZojTyZ1yobPiQhSgyDOFZVTi/YhrWiWbg263+GOzQYCYBMEGnLp0gqE/D7WRpU3sAQKzyCvf5FZi2ToQZ326F/2CHxkFqh58H2+6OsMqMwP4r4qaPmRxEnkuBtCANj3sEYOeVTKSfWYfX83cjaPtlNPRKpBYKeS3qWQe4938V9hxt0is94WRZisifL6Bp2CJEhoUjS7M+8WzR3dEKmRH70bypSJxLMfxQAaPT/v/CnMM+zVZb7su2ob99Pl7p6QTL0kj83CQQsKJIhIVngWy7w9EqExH7r6BpFAxyIs/BoGuqz2PFtHUQzfgWW/0Ho5m8NOA9Sz8G4aN7n96wZdKRdLtpFyQrk0LGexUDPR3bmFya1KK8og49PQbhFV0NPpPODOUjd44Zar394NZTlV4dtoYOeDMwAML0g/gq+Diqxs6CKx/PJ87trWEitYlFjtp6Fg7u/dGjRx/0tmWQnnS7aZ8uK4NUxsOrAz3xqiNHPatquY0mnbqgk6AeabeTG+urEgLLtnAMrYTfnXtsjjqDUq1/buKc0zSL+3PQRAvQX2814c5bQ3NjEy+rv55T3dKTR921/ngNh1/aAFdc+a1Zc/C7o09vWzDpSWhyMwuZVAbeqwPhqTspWs4zzTWtQ/f6rAd6tEpHz0knraCNHu+ISfNnokfJEXz4l+X4PuIXhId+hIAIAUa4VuNhTimq87PwqLoeBTFnkFDMoLaqGMk3MtB1yhxM7pKD/SvW4Wy+DJDm4U5aGRhxIfJKxCh5mIPS6nxkPapGfUEMziQUg6mtQnHyDaRVN7fCeuJ8+PfKRZjfOMwO/gERJw4jZOFniLd2hUlBBL4Iu4NaWMDlrXXYMMMFVuYWql9vLMrzcqFsjkXR6dNI6R+IJRMsONsUdJyE+TN7oOTIh/jL8u8R8Us4Qj8KQIRgBNz4AFgGLCknFcAaE+f7o1duGPzGzUbwDxE4cTgECz+Lh7WrAKi9hV3zJuO94AtQPffXDEaP/R247GvWAosqA75kGEYptIb+GRasalJsgABQwxXrhn+zLBgD7ReMno+ZPUpw5MO/YPn3EfglPBQfBURAMMINfOuJmO/fC7lhfhg3Oxg/RJzA4ZCF+CzeGq4CFgyjALFqV0GJVHayYKseIqe0GvlZj1BdX4CYMwkoZmpRVZyMG9oC4egHABgoXaD8cacFy4BREFi1qyhKU5Q+6zh5KQIHiHHi6wPIkgEAi5JL0SgYuRRLRpsDYMCyyuMbUTq0qRQTgcCCVSuWVFsFiaoe1Kfux9GH/4cNy4bDTPktoJA3+5NznDrTggXDksomnoF8rIIJp964YwXwYGFhDjwpRlFlOW7EpaC2Wf8qZDLISQaZVO2zZrkEdJykT0+uqObQYVqtBZQmFKGy/AbiUmq12m5A4LkAi0eLcOwEYcrkzo2fG4yzgVwGmuda+2oYYMvzkKs6jS06jdMp/RG4ZAIsOk7G0sABEJ/4GgeUhoMtuYTogpFYumQ0zDnqmWt1y23kdZ2COZO7IGf/Cqw7mw8ZpMi7k4YyRozCvBJUmRgegyYymRwkk6FJEhq5amhsgHausFUcc1OB/jlNWdyb6dagJgzUDqAWt3bNw+T3gnFBv2jAgFS5xF1vtWWjP2/1zo08jVxJLnmJ/KXOs9Yt3ejNI2jEglNHaWAZBgpi1a4KE0h1LguAZ2EBczxBcVElym/EIuE+R1z5+nNUe83REZOXBmKA+AS+PpCl/OshbAkuRRdg5NIlULqZ27baW7swb/J7CL5QrPpeHUNzjYH5VFNfKbVaOlGif31mUEfNeD46aRWam7JbTg1lhAfRBGFXsunoRF7+oXStjCEihgpPLqUh3WzIvvcYWrj7Kv0Y4Ex2rpPpiwQJETEkvvkdBQxzJns7F/Ka8jFtXjCMeg33p78dTKDCgpO0dEg3srHvTWMW7qarPwaQs50rTf4iQecfpq/JOEpBE9zI3tyMbHuOpMWH0qiGiKTX19GI3h70RsCntDl4DS1eHEJXShgi+V3aMNCMHIfNpIUfraBPPnqfpvv9jc7kNW3x19em6ksKD5pAwq421NHJi/xDr1EZQ0TVGXRm0yTqzheQi+92OpdVr/TR0SCa4GZP5ma21HPkYjqUpnpoq/AgTe9mR10cRlJwqvZ2er32G7JPDaZQvy9LMs/SRp9uxOc7k+/2U5RWnEGnN00iJ76AXN/ZQWdS8yj5l600tSefBK7TKeQ/9+hRUgRtfMuJ+IJeND0kkh480t++hIhqMsIpaIKQutp0JCcvfwq9VqZ8UIOUfjwaNIHc7M3JzLYnjVx8iNJqiCQpJ2idtwPxTYU0K/Q8pWddowNLR5Adz4o8F+6juIICOrl0CHWzsafeYxbS7qs/UoCzHblO/oISdAtEZz9EdZR5diP5dOMT39mXtp9K0zhRQikn1pG3A59MhbMo9Hw6ZV07QEtH2BHPypMW7oujQoZInnua1k8dTJ7jZtGiv35AcwK/ophShoiqKeP0JprkxCeB6zu040wq5SX/Qlun9iS+wJWmh/yH7j1KooiNb5ETX0C9podQZLaUan49TdveH0t/HjONAj5aSouWbKUzD+uIiCHRneO09g1H4vOdyGf9cUqqaPCmfp01p5oyzmyiSd35JHDxpe3nsgzmYzGjX28GY1XIkCL7IL0ntKfOQl8KTSzR6l+ec4W+XzqKOvN45DB+NYX9K4EeV+nKJf164tK5hBSUffA9Etp3JqFvKCWW6G67AfEvC2hysOrBJjX0x9lwLtdp5pqksJ00LKe7GwaSmeMwmrnwI1rxyUf0/nQ/+tuZvKYHluS5dHr9VBrsOY5mLforfTAnkL6KKW2WhzrrGdM6GxnxTfouYBg529uRi9cU+njzAhrWazj5/+0gJShFpGcMmsgp58r3tHRUZ+LxHGj86jD6V0I2pevKVb1j05crhuYmfXOarrzh0kQLaoe8kA5O70Z2XRxoZHBqcxcQEdVl0tmNPtSNzydn3+10Ku2JAZ1roy9v9c8tGrny9CXyV6NgG2h73dLGQB5pxUKi3y+XrtOJdd7kwDcl4axQOp+eRdcOLKURdjyy8lxI++IKiRTZdPA9Idl3FpJvaCJVGYqrvhzVueaQU+7p9TR1sCeNm7WI/vrBHAr8KoaUbk4xYFsBFR6cTt3supDDyGBNJ6nQN9cYmk9Jh7506KQF6zP9OtJFe+qk9ZiQ+uXJ/wUUydjoNRynpsTj9lbP9vmV0mZkiFu3BLcXhmGZ8n60ESNGfpe8iFxWIHmjF4afmoL421vh+WKLmZE2IItbhyW3F+KHZa6aXxn5zTDmUTNkcVi35DY+/2GZ5jfPn5dqffbstHGLyB8BnTcxfkNYiOL34mzn9zH3N5uQjRgx0v68+Fx+0dXMSOthRfHYe7Yz3p9rXFy/LPzP5xErQvzes+j8/lzNb35j/hiR+N9bYCsqUfmEQZVIrPWGo98SVpyKZHYyNq8cB3vNL40YMfK74cXlsgKVlU/AVIkgfpHFzEjrYcVITWYxefNKjPttRWNEC2MeKWEhTk0GO3kzVr4oUb4k67P24n9ri4g0G5cO/QuxuVVQCOzgMm4m5nu7qh4eM2LEiJHfC1JkXzqEf8XmokohgJ3LOMyc7w1XYzEzYqQVGPPopeEPuD7731pgGzFixIgRI0aMGDHynPnf2yJixIgRI0aMGDFixMhzxLjANmLEiBEjRowYMWKkHXkJF9j1KEy9j9I/xkOkAICavLu4V6D2bs9WweJpTiqyJS+HQ+oLU3G/VcGpQd7de2jz8F84L5f/24NW6bEmD3fvFai9etfIs8A+zUFqtqRNz8g/y7m/LSyqcpMQl5CGknoA9YVIvV/6jHb/3uvI86FVuawTzfpm9HNbYatykRSXgDSl6F+ydczLZs//Bi/RApuF5O5RfOLtBrdx2xD3R3iEFADYXOydOxwjFh1GSSvFzRT8F6EBQ9DrNT/szWyPF3e2HVZyF0c/8Yab2zhsa0Vw2Ny9mDt8BBYdLnnGCfa352Xyf7vRKj2yyN07F8NHLMJhrYOluLZ+BPqOWYWoMs3vjGjBFOC/oQEY0us1+O3NbN1reJ/lXF3IcnD10OdY9NZojBw1BlP/+nfsP5+Op5rHtQXmESI+DcSOMwk4tX4ieru4o59Lb4zbFvdMfxXgN68jVf/BXwe6Y9L2xPbxy/OgVbmsja769pv7+Q8Bg0cRnyJwxxkknFqPib1d4N7P5SVZx/xB11W/FzTfPPNiYSj/m/Fkbu9P/67T/O73S3XuHUrOb9uApHGfkND8T7Q6Qar51W8Ok/8NjTe3J3+O4DBlSXQru+mtS0TVlHsnmdo4/BfOy+T/9qJVeqzOpTvJ+aR1tPQ6rfIaTutjdb1DzohOpHH0idCc/rQ6gVqtpmc5Vyf1dGWJM/HNxlDoI31vQWstDJX8OJ26v7WXRETEVFym4Nnv03tDzMje/9/aGmoVragjTBkl3cpueptlG3h6ch695vNPSmlJfy+QVuWyDrTrWyv8bISIiJiSH2l697dor1L0dDl4Nr3/3pCXaB3zkq6r2iFPX3ZeoivYAMCDrY01TDQ//p1j7eyJgT0sND9uEXw7O9i+JA7h2drAmtOWGtz4ZiMOPVC/xmYNZ8+BaOPwXzgvk//bi1bp0doZngN7QPNoJj8Pr356DFtGd9T4xohe+Hawa6uYnuVcnfBha28LnoktOnVur2lAhsTLcaixtoUFAF5nb2w4+i0mOrRH+y2vIzU3vsHGQw+e4Uq/DBmiQfjmSBAGtKC/F0mrclkH2vWt5X42okSWeBlxNdawVYoe3huO4tuJDi/ROublXFc9e56+/DxT5WMlD3Ej5hqS86sgKipGDVuM5EtRiIyMwrVMCVgwKLp9AZGRkbiQ+Ai16ifXFiH1ejRib+fhqdq9KJ6JLhkwEOck4VpsIjLLDN/jUIge4MbVK4i+lQMJo/4Ni6eP0pHzlAUjzkZi7A1kNz8AtfmpyCxnUF90DzczK9HwLSPOQdK1WCRmlmnc6jTcJuoLkZLR/Jabfhuh/MP32TcRE3sXBXWa36GF/mAhSo9GVGSk0v83cpX+r83FjQuRiIyKRrpI303AWhSlXkd07G3kNQ+O/iRly5G4cx7eD72J3OSLiLqahnLVqfWFKcjQuIdZW5SK69GxuJ33tJlfagtSlHu8GQlykuJxN79G9Y0MpRnxiLtX1Hw/MPsUj9Jz8JRlIM5OROyNbB3+bIm/1DHkfz3+0Yn2sdUP43FBFZeo6DSUSwtw60IkIiMv4Fa+yr5nHhcLycMbiLmWjPwqEYqKG/yoW4+QlSEzIRrRN7IhbtZPPQpTMrRvQXceipHd8nFLKx+AmvxUZIlYQFaK9Ph4ZJRxl1B9OaevRgBc9gJgxMhJuobYxExouaW2ACn3S8GCgSQnCfF389GosNIMxMfdQ5GO/af69NqSsSoqs3EzJhZ3dYlJIcKDG1dxJfoWcrQDzH0uZ11qKXozuhHuWqVCmo+bFy4i8WEVmIoMXI68gPjspwB40FnSObVbi/zUTJQz9Si6dxOZlcpOteoIK8HDGzG4lpyPKlERimtYlCfuxLz3Q3EzNxkXo64iraEIccRQW39mGLJgMf5UktVsz2qL/AAAqEF+ahaUskhHfHwGtGXBNX6O3NVEK5db0jd3fdPyMwBZWSYSoqNxI1vclJ8wrF8tagqREheLhPtlkMpKkZP7FGxxMi5FRSIy6hoyJSzAFOG2qh4mPmq2atAbwwZa2pbBvG3RuKTIv3kBFxMfooqpQMblSFyIz8ZTvesY7nzV1qEOtDSv9h1H3WuLPc1pwTqHIz7Nx1aBEr15qj1fKmmJrvWdq0SvhjnsflbavMCWpexEQNAxFCjqkXFgNoa9+wNy2U7o+Wopflw8DYv2Z0ABPjr1cEDWztmY+kkEihgAYFEctRWLVoYhJuUWfl45CsIx63FZ32JPkoh/BvhhTUQq8rNOY+XofvAJvtq4eGsOg5yj8zDsnW9wr6IE8SE+EI7agoRagCmIxa6FQ+Dczx+7wrfgzUFDMfGN4XAXTkDw9SqwZYk4sGw83IQTsXnPDrw7agSGD5mPIyIJEv8ZAL81EUjNz8LplaPRzycYV8tZg22CFePu8U/xpltvjNkSq1oY6rcRAFCbir1zfLBwfzIKs89gXVAYHqirocX+4MGyQw0ubZiJyf67kevQVXkV0qIz+Ne3Yd3ZGth10A4/WxyFrYtWIiwmBbd+XolRwjFYf1lkUHSspAgiS3t0YFlIaySQVNVCJr6L45++CbfeY7AlVrVqYYsRtXURVobFIOXWz1g5Sogx6y+jvCIJR1e+AWGfsdgccQKbZs9CwAfvYLj7MKyMSsKRJZMxff6HmDHMHaM3JaAWDApid2HhEGf089+F8C1vYtDQiXhjuDuEE4JxvUplWIv9pcKA/1vjH33HmndxgCLuc8yePA2bYgk2plbIC1+J7VfrYW9v0g7jkiFlZwCCjhVAUZ+BA7OH4d0fcqHQqUcW5dHbMTfgH7icV4aUXVMh9ArCqWIFxHeP49M33dB7zBY0hA/Qnw9s+U0cXj4ebsJJCDm+H4t93ob/nLfhMcAXYdmaJQ0cOcdVI/TZq4yAJPGfCPBbg4jUfGSdXonR/XwQfLUcLFuJpKMr8YawD8ZujsCJTbMxK+ADvDPcHcNWRiHpyBJMnj4fH84YBvfRm5ryUZ9eS1sy1lqk7p0Dn4X7kVyYjTPrghCmJiYm5yjmDXsH39yrQEl8CHyEo7ClqRBwnssVh/bDQK1Sh2SoqZKgRg6QvAZVEgme1DM680K/dlmUJR7AsvFuEE7cjD073sWoEcPx59nbsFezjshSsDMgCMcKFKjPOIDZw97FDzkVKBJZwr4DC1ZaA4mkCrUKjhiW6NJfAPZcVel+bMOe1Zb6gUX5zcNYPt4NwkkhOL5/MXze9sectz0wwDcMjbLQO37oz93mHemYW1rYN0d9Y3XW63JEb5+LgH9cRl5ZCnZNFcIr6BSKWUP61aQW6YcC8facHbiQnonYr2bBs1c/TN+bCbZTT7xa+iMWT1uE/RkKgN8JPRyysHP2VHwSUaRcDOmJoeaygWegLXkLalTLx0WQ1VRBohQ9aqokkDypB6Nb9HrzVX8d1GhCl+ZzlcrQW/c0mmhCvz2aGFznQH98dObYn+dg7yPtPNU9X5ajtAW61n2ual7m0LA+uzV11WY094y0DCnFr+pPHp8lKvfVMSUUvm0XpcuJSJFB24ZYUN9V11V7BaV0fVVfshz+d/pVQcSUHqfZ49dQomrLF5P3NY01MyXPjXdJTkRPDk4hi8a9QmI6/6GQ3JfHNO7fq4lbSe5mjjTrpxLS2jmouE+fD7WiwVtSSU5E8ptrqb+FB228KyciImn8Kupr6kgTNkXRYzlRTcY+mu7EJ7PBm+meXGnLODNLGrDsIpWJ0+ly1D3KOfshCd2XU0yTAbTS3YwcZ/1EJYzhNokppu+8zcl25s9UY9DGGopb/Tq5zj9FYlV31WcXkJNpwx65VvqDiGpilpPQ3J1Wx9crP2BK6PCcWbQnX8fRTCkdnz2e1jQFh74ea0amnhvprjI4NMVC/x5spuhb8rZwooXnVX0REVP8HXmb29LMn2uIiKHS47Np/JpElTYYyvt6LJmZetLGu3Ll+eZWNGxtDBUriEh6hzZ4mFLH4Z/RxcdyIpLT3Q0eZO4aRFfrSaXDvmTqOIE2RT0mOdVQxr7p5MQ3o8Gb75G81f4y4H9D/lHH0LGKR3TAtxuZ9Qmk03GhNG9JBD1uNOgZxyWNp1X9PeizROW3TEk4bduVTnLS1iNTfIz83Hzouzxl5/K0L2lsp+4072Q1ETFU/J03mdvOpJ9rlP2Iz3Png+LhlzTSzJa8lp2iHCkRSf5Nsx3MadSXD3XutdOVc+XF+muElMte8Xn6UOhOy5uMo7iV7mTmOIt+KmGImCL61tucrIatpRilwOjOBg8y7TicPrv4WJmPdzeQh7krBV2tN6hXQ2OtiVtNr7vOp1NNYqIFTqaqfdQKuv/5ULIavIVSlYWA1va3IA9VHeQ+13AcDCOnW+sHkKn5FDr4RPM7FZy1Shc19OM0C7Lzi1DWOiIiekIHp1io7cE2oF1iKO/rcWRmOYCWXSwjcfplironInmzOqKsu/09PiOlxBkqCd9Gu9LlqhhbkNPC86SsQtwx1KU/EaPSfcM81Co/KOjhlyPJzNaLlp3KIaUsZpOD+Sj68qHC8Pi5clcTzbnFYN8G6htp1+viY37k5vMdKdNNTmlfjqVO3efRyWpu/Wry9L/Lqb/narreIAxpPK36kzn1X3uT5ESkyNhGQyz60qrrqqSXXqdVfS1p+N9/JYWBGGrC3ZahGtW6cRER1fw4jSzs/CiiSfQa6xjD+apbh03tEZfmDdW9NtijCfc6hzs+Oscm18hTzvnSgK45z+XSMLfd7YH2JcwWIYCT0Bl5X03FmHmf40S6KfzWf4x+As3jtKmNPomowgc4GxqCkJAQ7Aivg8/mYMwdbKl5KFB5Bvt+KoDbQM/GPaBWQ/3gK6zA2WORkGgcDr4QgYdjER7kgoLoA9hxMBFiVoq6euXPEZ6lJSz4XTFimjecBICVewC2LPIApcYgppQFz9ISZjxbeHmPRle7fvD2eRVx+39CgdtAeDYZAD9fISrOHkOkxHCb4NnApoPa7RkuG6ujsPtQDgaMGw871eEWvVzgyFf9T2v9AcBqZBA+HlWIw1+dQCkLMHkROGc6HTN66Ah9bTRORhXiwdlQhISEIGRHOOp8NiN47mDoiE6L4NnYoGn4tYg+GYXCB2cRGhKCkJAdCK/zwebguRhsCfA6WMPKxAy9BnmhGx+AmRBuzgKgxyCMdBIAEMDFuTtMqsQQE5RX6S0twO86AtO8nSCAFdwDtmCRByE1JgalFa30lyH/t8Y/ho7lu2Dezi8xtWY//Bdl492tM+DUGJJnHJfACULnPHw1dQzmfX4C6aZ+WP9xPwgALT2KI48jytwTXt2UnQteW4VoUSEO+VoD4MHGpoPaJoJKnNnHnQ/8Dh1gzbeBh48PepkBsBaiTw8eqiSV0PXKWO2cex0WsfprBJe9lWf24acCNwxsMg5D/XwhrDiLY5ESgNcB1lYmMOs1CF5KgUHo5gwBemDQSCcIAAhcnNHdpApiMRnUK/dYqxG1+xByBozD+CYxwaVRTHwIAw8jNjwILgXROLDjIBLFLKR19WANnms4Du0CV61qKwZrGA+Wlmbg2XrBe3RX2PXzhs/rnSBoVkcAgZMQznlfYeqYefj8RDpM/dbjY50TEHcMdemvE0+p+8Z0bJUf+OjQwRp8Gw/4+PSCUhZ90INXBUklGR4/V+5qojm3GOrbUH3TqtdiRB6PgrmnF5TpJsBrq6IhKjwEX2su/WpShXN7juLp0Dcx2Er1Eb8jOuq4g6ob7hi2Fu68bc24WorhfNWtw+at6NO8wbqnhWF7NOFe51RzxqclY+OeLw3omvNcLg23r650oTnMFsJDzwVHcGmPH2xitmPmoL4Ysewk8rXvAmvA4mm5CHXm7vBdvRZr1zb8twbLp/bVKiJMaT4e17KQydQ2RQpc4OzEg0wixhMtxfMgqEvGzkWBOFA0EB8EToAjT9e03oAAvV/rA2vIIZUqj2u2U4kpRf7jWrAymdq+XwFcnJ3Ak0kg1jZAR5smMGm2/0m/jUxBJn6VAHyB7rC03h8A+K6Yu2IGLM59hT2p9Ug/ehWvzJqMTprHAWCflkNUZw5339VqsVmLNcunoq9mcFqKiUnTHkz2KcpFdTB398VqtfbXrlmOqX0FymObnwyeCZotzEx4PIA4Yirojdf6WANyKWpLWucvQ/5vjX9acizPaRJm+TiBybmKi3d0VDV1WjMu9MSCI5ewx88GMdtnYlDfEVh2Ml+170xdjwxEZRWol1SqfrBoY6Iek5bkg2YMTfjgmwDE6ulAM+c4a4QbqvTay6A0/zFqWRmau8UZTjwZJOInYKGmRRUm2gIDD6T8qLV6VR8rU4BMpZj0FlmeoA7JOxch8EARBn4QiAmOPGW/hs5tSRzaBf21qq20rIZpBAkadQQAr+cCHLm0B342Mdg+cxD6jliGk7omIEMx1N1bi2u2LpqfC5jw+TABgaUWjJ8zdzXRnFsM9G2gvgEafmZEKKuoh6RSrPvHsT79asIU4WFuNQRmpjp9bZAWxLBVcOVta8bVUlqYr4Z8o1vzshbUPQ1aaA83auucuicG42NobIbmSy5dc55rwqHh9taVDjgyjQsGBWmP0SNgJ65kpuPMuteRvzsI2y9LAfAh4OuYUInAgAfb7o6wyozA/ivipu+YHESeS9HaZ8bv3ge9bRmkJ91uekCSlUEq4+HVgZ5w1LS++jxWTFsH0YxvsdV/MBwafNTMFAKp6UdeWw/WwR39u6v9jG+A3x19etuCSU/C7SYDIJPKwHt1IDwbDWhFmxw2mnTqgk6CeqTdToa02UkElm2DP1R09FmOD1+/j31/D8Z3d17D++MbLiM0h2fbHY5WmYjYfwVN0WGQE3kOKZrBaQs8W3R3tEJmxH40D38kzj1LB0RqRUSO2noWDu790aNH6/xlyP+t8Y/hY1kU/nsrLvz5CA751WHfkjWIrNQobG0dFxUg7XEPBOy8gsz0M1j3ej52B23H5eaDAsDHKz2dYFkaiZ8vVDZ+yooiERaepT2ptzgfngWuGpGOznrtzcYrfXrDlklHUpNxYGVSyHivYqCnY+uL3bPo1aQTunQSoD7tNpI1/E4sC6Aa51dMwzrRDHy71R+DmxcC7nOfexwYPDx2CJdL9deqttLWGqYJU5CGxz0CsPNKJtLPrMPr+bsRtP2yRt4+Ywwb4KjZrcXg+Fucu63HUH3Tgv8KejpZojTyZzSlGwtRZBjCs6r061cTEzvYdwQeJyXikVZRUcEXgK9aMKlDxLQ+hlxtGYQjL9tKO+Wrbs1fRefW1r0226NnnfOqfeviowPD86V+OM8lDg3/av3MdhtCnycNwKAg4guE3akFLFzw1roNmOFiBXMLE4DvAKduZihMvIg7pWW4f243Dl0XQVFegEcVT8GfOB/+vXIR5jcOs4N/QMSJwwhZ+BnirV0hAMAwDECsMuE7TsbSwAEQn/gaB7KUz7iyJZcQXTASS5eMhrmGVWzVQ+SUViM/6xGq6wsQcyYBxUwtqoqTcSOtWnVQOfJyG/5dhNOnU9A/cAkmqG6VEBSQN/q2IyYvDcQA8Ql8fSBL+ZQtW4JL0QUYuXQJRjcYwNkmC4Yl1aTKbeOt0gmYM7kLcvavwLqz+ZBBirw7aShjxCjMK0GVaev80YigHxYtnwz5v/6J9OHvY7C+H2fWEzHfvxdyw/wwbnYwfog4gcMhC/FZvDVclcEBAwKrsxoDPAsLmOMJiosqUX4jDim1AFgGLDUUcGtMnO+PXrlh8Bs3G8E/RODE4RAs/Cwe1q4CgGHBahR7AkBqV6yJCGDZZos/tjwPTe4/jdMp/RG4ZAIsWqkfXtcp3P43MeAfdQz4UnY/DJuuDcemD0fh3X/8E7NkB/HRqtPN/mpBm8fFFCDiizAo0/MtrNswAy5W5rAwgZYeO06aj5k9SnDkw79g+fcR+CU8FB8FREAwwg18ACzDgohVLfQN5wPLMFAQq/YDm0AqzehWjWbOAdYcNaIzh72dJi9F4AAxTnx9AEq3sCi5FI2CkUuxZLQ5AAYs27DAbewcINUVazT8mwXLwKBeOcfK64opcyajS85+rFh3FvkyQJp3B2llDMSFeSgRl+BhTimq87PwqLoeBTFnkFDMoLaqGMm3SrnPrTI1HAfRJWzxew/brqrNHM1gIauXgagOdbXNI1ObtgebEyzhqdBfqxrraTNkkMkJMplULdYMlCVdFX9D2gWUQVHIm19waVZHAKYgAl+E3UEtLODy1jpsmOECK3MLmPAsYGEOPCkuQmX5DcSlmHDGUNlbc/0pu2MBYkEsd83W9gMLhlGAWLUFHpFqTmMNj58zdzVpnsuG+jZY37TqdUdMmj8TPUqO4MO/LMf3Eb8gPPQjBEQIMMK1Wr9+b6Q1mQgAPAf831/GwfLG3zF7yW5cuHkb/z10EP8tbqrifAcndDMrROLFOygtu49zuw/hukiB8oJHqHjKNxhDdbjbqufOW7aq5eNSIZPJQTIZpGpp1Gwd04K6CT06VEef5u0M1r222aOF3nUOd52ErrFp5unDkRzzJbeuuedaDg272Rq0+5nR3JTdMqR0fd0I6u3xBgV8upmC1yymxSFXGjfHP4nbRhN72pKtkyfN+OIqnV89mPqMnUebj96iCoaoJuMoBU1wI3tzM7LtOZIWH0qjGiKqyzxLG326EZ/vTL7bT1HaEyKS59Lp9VNpsOc4mrXor/TBnED6KqZUxwNqRMQU0smlQ6ibjT31HrOQdl/9kQKc7ch18heUIFE+wDTQzJGGzVxIH634hD56fzr5/e0M5SmIGNEdOr72DXLk88nJZz0dT6pQ9SGn3NPraepgTxo3axH99YM5FPhVDJWqDOBqk6iaMs5soknd+SRw8aXt57IM2siIb9J3AcPI2d6OXLym0MebF9CwXsPJ/28HKaGYaZ0/1KmPoeWDp9DeQgNH1mTQ0aAJ5GZvTma2PWnk4kOUpgwOnd3oQ934fHL23U6n0nQ8GaXIpoPvCcm+s5B8QxPpaXUGndk0ibrzBeTiu53OZdUTUQ1lHA2iCW72ZG5mSz1HLqZDaTVE1Rl0etMkcuILyPWdHXQmNY+Sf9lKU3vySeA6nUL+c48eJUXQxreciC/oRdNDIilbKqe7GwaSmeMwmrnwI1rxyUf0/nQ/+tuZvKYH6lrpL4P+1+cfXeg5tjp5H73n3pWGfBJF+QoipvAKrRlhSya8rjR6+VG6K5Y+27ik12ndiN7k8UYAfbo5mNYsXkwhV0qI0aVHIqrJCKegCULqatORnLz8KfRaGTFEVJ1xhjZN6k58gQv5bj9HWfXEnQ+SFDqxzpsc+KYknBVK59Oz6NqBpTTCjkdWngtpX1xhk2+IK+f01wjld7rtJSKS556m9VMHk+e4WbTorx/QnMCvKKaUUebi6U00yYlPAtd3aMeZVMpL/oW2Tu1JfIErTQ/5D917lEQRG98iJ76Aek0PochsqX69tmSsjJhufhdAw5ztyc7Fi6Z8vJkWDOtFw/3/RgcTCqnw5FIa0s2G7HuPoYW7r9KPAc5k5zqZvlAWAo5zi7njQESK7O9o0ivdaPKeHJVn1JA+pKuHQ2iG0JRMTMzIceB48pk0iSZN8iHvUa9Tdys78j1UZrBWNUOeQ1e+X0qjOvOI5zCeVof9ixIeV1Pm2Y3k041PfGdf2n4qTXWsPu0yJLpznNa+4Uh8vhP5rD9OSRUMkY46Ir2+jkb09qA3Aj6lzcFraPHiELpSwhCRgrIPvkdC+84k9A2lxKekN4b69Nek+140/fPzlFXbcj9IUk7QOm8H4psKaVboeUrPukYHlo4gO54VeS7cR3GFBmq43tzVRDuXW9I3Z317mKblZ6IayggPognCrmTT0Ym8/EPpWhlDRAy3fjVRFNHFTVPIvWsHsnUZTysiImmTl2XjQ45ETyhu20TqaWtLTp4z6Iur52n14D40dt5mOnqrQm8MdcPR1tVYA3lb0IpxySnnyve0dFRn4vEcaPzqMPpXwmOq1rWO4chXfTrURL/mueqennUVhz264F7nkN746B+bjjzVM1+2RNf6zm20TaeG9dvdXpiQ+uXBPziK5I3wGn4KU+JvY6tn+/xCeR5tPg/Y/D0I2N4V34S9A3vNL3+3KJC80QvDT01B/O2teInd30r+qOMyYsSIEQBMBrYN88LPE2Nw9/M/az1/ZeTl4veyznnZaOMWkd85+u5VPwvPo81nhkF1pRj1bDXid1+C4/tv/4EW1815Kd3fDvxRx2XEiBEjRn5nGCekVvE/tcBWVFbiCVMFkZj7nUWt4Xm02V4oUrZjnKMDHLr9CUsr52LFyIa/yfNHQYHKyidgqkR4Cd3/DPxRx2XEiBEjABQVqKhSoFryROuPGxh5+XiZ1zkvM/zNmzdv1vzwj4g0+xIOXyzDq4NeQ4fKfFD31+Fqr+OvfLSC59Fme8Lr7ALnzp3R7531+MdnE/DKH+rnlBTZlw7jYtmrGPRaB1TmE7q/7oqXyP1t5I86LiNGjBgBwBTiengUHjt4oJ+NGAUmr2KwS8Nf5jbysvGyr3NeZv6n9mAbMWLEiBEjRowYMfK8+UNd0zRixIgRI0aMGDFi5EVjXGAbMWLEiBEjRowYMdKO/HEX2Gwe9s7oi4Gz9iKzNfvy2Vx8PdYC1v8XhpI/8hOz/yvjNNKusLlfY6yFNf4vrOQlfqCcQcF/QxHg1QWW/T5FYmvy/38ctiwR+4PGwtGiGz44o/bu5ecCg0cRn2Lxul3YtXoCHK27wb1fN1h2no0Tz7trI0aMGHnO/GEX2GxJJE5neOGzHQvwJzPNbznguWDxjwmI3zcP3f6w3vkfGqeRdoXnshg/JsRj37xuL3Hx4KPHhCAsGtsZbX7ChC3H7aSH2q+L/4PDcxiGgOWT0Vvzi+cAW3oMK1ek48+rghC04184uuYNeHk4tz1mRowYMfIS8fLOkc9IbTqLtw+Fwd+59U+7Wjt7YmCPP9qftNPmf2WcRtoTazh7DsTLLxs+7OxsofMN0y2g5sY32Hjowf/knxDj29jAuq2OawWyxMuIq7GGrQUAXmd4bziKbyc6tDlmRowYMfIy8Wx/pk8hwoNbN5CcXQHYdYO9hfZ6nS1OxuXrd/EguwRMlx7oYlqM25ficO/XHIgE3fGqvSkAoCY/FY8UXdFFUIb0GymoMHdEV2u19lrZF3/oXzDJRdS2vuoLkfKgFl27dlAr9jKUZd7ErbQiKDo6opNl0/EK0QPcupEMpWn20GGaGrUoSr2J21nlMOnUDXbmTT2wkoe4eSMdFTw7mNaIQTY2MAOLp48yUCjoAtvah7h561fUd3REJ41OaotScfN2FspNOqGbnXmzSUpWlombt9JQpOgIx06WTb+qdI5Tv32csE/xKKMQgi62qH14E7d+rUdHx04avtDXdi3yUx9C1qUDqlLvoNCsG7qo/MuIc3AnKRX5dZZw6GINwz+XalCYchPJOTWwdOiI6vwCUMc63L98HXcfZKOE6YIeXUxRfPsS4u79ihyRAN1ftYdSGQBqi5B68zayyk3QqZsdtIbPFiO5JW3V5CP1kQJduwhQln4DKRXmcOxqrfaLVgHRg1u4kZyNCtihm70F969dfXaxEjy8eQPpFTzYmdZATDawMXvWeIBT7/WFKXhQ2xVdO6gdr88+Ddinj5BRKEAX21o8vHkLv9Z3hGMnC/Ba6lcY6EtRieykm0grM4HJg3/hYGovBPx1Il5tEA7XuQAAFuWJu7Dw/WDEm/ZF/04KyDs6w0G14tSXZwZrCse5tfmpeCjrgg5VqbhTaIZuXdRytIHaAqRk16NrV0tU5dzBnVwFOjl2hBkAWWkGbiQXge/QDTaCltdc6KsNtbcR/nU0bGYsx7ReFUhLTEGFRcvrse46po4U+Tev4Prl/+DIDSn6ejpAJjLBKz06weTeT/jygjn+svId9FN7YRxXHdDrP32x1pczRowYMdKOaNXxlsLkHMW8Ye/gm3sVKIkPgY9wFLYk1GoeBl6nnni19EcsnrYI+zMUAL8TejhkYefsqfgkogjy8ps4vHw83ISTEHJ8Pxb7vA3/OW/DY4AvwrKVN2h/s75YMe4e/xRvuvXGmC2xaNgGyJZHY/vcAPzjch7KUnZhqtALQaeKwYJBztF5GPbON7hXUYL4EB8IR22BDtMAAGxxFLYuWomwmBTc+nklRgnHYP1lEVgAspSdCAg6hgJFPTIOzMawd3/Aw0ex2LVwCJz7+WNX+Ba8OWgoJr4xHO7CCQi+XtXQKKK2LsLKsBik3PoZK0cJMWb9ZYhY5W3u6O1zEfCPy8grS8GuqUJ4BZ1CsULPODns0w+DgthdWDjEGf38dyF8y5sYNHQi3hjuDuGEYDSZqavtcpQkHsCy8W4QTtyMPTvexagRwzFk/hGIIEHiPwPgtyYCqflZOL1yNPr5BONquX5ratMPIfDtOdhxIR2ZsV9hlmcv9Ju+F5lsJ/R8tRQ/Lp6GRfszoAAfnXo4IGvnbEz9JAJFDACwKI7aikUrwxCTcgs/rxwF4Zj1uCzS6I9noC15OW4eXo7xbkJMCjmO/Yt98Lb/HLztMQRIrEQAABF0SURBVAC+YdnKLQdMDo7OG4Z3vrmHipJ4hPgIMWpLAnTLhsMuWQp2BgThWIEC9RkHMHvYu/ghV/oM8VDGWp/eFeK7OP7pm3DrPQZbYhtVo98+dZgCxO5aiCHO/eC/Kxxb3hyEoRPfwHB3ISYEX0eVIb+2IEa1qXsxx2ch9icXIvvMOgSFPVDb4sF9btNhEhSJLGHfgQUrrYFEUoVahf48Ky81UFPAcW5JIg4sGw834URs3rMD744ageFD5uOISN2eSiQdXYk3hH0wdnMETmyajVkBH+Cd4e4YtjIKSUeWYPL0+fhwxjC4j96EhFrDdVDpSj21Qc0dskc/YcXM2QhcPA2eA6Zj30PD9VhXHcvVug1AkNVUQVIjB0iOmioJJE/qwehMbf11gC3T5z+OWOvMGS0DjRgxYuTZoTahoPufDyWrwVsoVU5E8pu0tr8FeWy8S3LNQ4lIkbGNhlj0pVXXpcoPpNdpVV9LGv73X0lBRIqHX9JIM1vyWnaKcqREJPk3zXYwp1FfPiTFb9oXETHF9J23OdnO/JlqVP9/zM+NfL7LI4aISJ5GX47tRN3nnaRqxX36fKgVDd6SSkrT1lJ/Cw/aeFeHZUwpHZ89ntYkquxi8ujrsWZk6rmR7sqlFL+qP3l8lkh1RERMCYVv20XpciJp/Crqa+pIEzZF0WM5UU3GPpruxCezwZvpnpyh0uOzafyaRFK2ylDe12PJzNSTNt6VUvExP3Lz+Y7ylIZT2pdjqVP3eXSyWtc4uexrGIQ+pBS/qi+ZOk6gTVGPSU41lLFvOjnxzWjw5nsk52ybobyvx5GZ5QBadrGMxOmXKeqeiETnPySh+3KKqVN1URNHK93NyHHWT1TCqPet4ul/aXl/T1p9vUb1gZTiV/2JzPuvpZtyIlJk0LYhFtR31XWVr6R0fVVfshz+d/pVQcSUHqfZ49dQk4lf01gzU/LUpTMDbZHiIX050oxsvZbRKaXI6N+zHch81Jf0UEGkuP85DbUaTFuUgqaba/uThYduP3PZVRO/ivp7fEaJStFQSfg22pUuf7Z4SDn0TkRM8XfkbW5LM39W+pnLPq3hSONpVV9TcpywiaKUYqZ9052IbzaYNt+TG/QrZ181cbT6dVeaf0qs6qyazi5wItM/raYEqYFzVWc0whTRt94W5LTwPNUrP+DIM7mBmsJ9LpP3NY0zs6QByy5SmTidLkfdI5Gmvpki+tbbnKyGraWYYgURSenOBg8y7TicPrv4WFl77m4gD3NXCrqqtJi7DjLctaFsD/lY2NDw9TFUxhDR0//QPEcLGvtVLjGc9Vh/HdNFzY/TyMLOjyIaUpaInhycQhb2/vRvVd6LDdQBXf4rL9Yfa/05Y8SIESPtSxuvYPMhDDyM2PAguBRE48COg0gUs5DW1Ru42qkbfocOsObbwMPHB73MAFgL0acHD1WSStBv2hcAng1s1G99iyNxPMocnl6qh7oEr2FVtAiFh3xhzRci8HAswoNcUBB9ADsOJkLMSlFXr8Oy2micjCrEg7OhCAkJQciOcNT5bEbw3MGwhABOQmfkfTUVY+Z9jhPppvBb/zH6CQCepSUs+F0xYpo3nASAlXsAtizyAKXGIKa0GtEno1D44CxCQ0IQErID4XU+2Bw8F4MtxYg8HgVzTy/VQ4wCvLYqGqLCQ/C11jFOTvsMwYOlpQX4XUdgmrcTBLCCe8AWLPIgpMbEoLSaq20eLC3NwLP1gvforrDr5w2f14Fz+35CgdtAeDbs9bUaCj9fISrOHkOkRKN7AFXn9uDo06F4c7CV6hM+Onbs0OJbNLXRJxFV+ABnQ0MQEhKCHeF18NkcjLmDDY9eC34HdLDmw8bDBz5KkUHYpwd4VRJUEsAXBuJwbDiCXAoQfWAHDiaKwUrroFs2+u0SOAnhnPcVpo6Zh89PpMPUbz0+7id4tnhw6R0Az8YGzWWj3z4teJawtOCj64hp8FaKGQFbFsGDUhETU2own7n6qo7ajUM5AzBufMMb4SzQy8WxcSsB17mGqeXIM0M1hftcnqUlzHi28PIeja52/eDt8zo6aYqW1wHWViYw6zUIXt34AMwgdHOGAD0waKQTBAAELs7oblIFsbglTwgaqA0AACv8aegQdOUBsOiJng6ARCwGy1mP9dextlGJMwbqgC7/WcTqj7X+nDFixIiR9kWzlLcYnqAOyTsXIfBAEQZ+EIgJjjzlArUtmJg0f7DFhA++CUCsssXfsi/ABCYmTUcwojJU1EtQqXPi4kFQl4ydiwJxoGggPgicAEeeruMA9mk5RHXmcPddjbVr1zb+t2b5VPQV8NBzwRFc2uMHm5jtmDmoL0YsO4l8nX/CQIDer/WBNeSQ1j1BuagO5u6+WK3W5to1yzHVrQplFfWQVIr1+Kr5OLnta3ZiyxD0xmt9rAG5FHVPDLWtsRGWKUX+41qwMlnj9hVAABdnJ/BkEoifaC7FGBQ9zEW1wAymWntqWwKLp+Ui1Jm7w3e1mh/XrsHyqX3R+uGbQM21AEzAV4pM9SNOgLrknVgUeABFAz9A4ARH6JYNt11mPRfgyKU98LOJwfaZg9B3xDKc1C2aFsfDrYpL76r8aRwbt30t8Zug92tQmiXVo9MGuPpyQ3Hmr5CAD4HOisZ1bgvsZJ/qz7O+Au6aYuhcbfXrQFNPgAnPBM0cZsIDD2TAhyoYkYHaoAkfPD7AKOQAZz1uTR1rAS2sA81dwx3rVuWMESNGjDwDOqcjw1Tj/IppWCeagW+3+mOwQ8MUpadc8wXgg9C4hlVB1JLC9lv2pQ3/lZ5wsixF5M8XUNnwIStCZFg4sqrOY8W0dRDN+BZb/QeDyzSebXc4WmUiYv8ViBs/ZZATeQ4pCgYFaY/RI2AnrmSm48y615G/OwjbL0tVxxFIbU0pr60H6+CO/q/ao7ujFTIj9uNKU6NgciJxLr0zejpZojTyZ1xoMhyiyDCEZ2n7gtu+Zofqh0jtKqQctfUsHNz741X7VrbN744+vW3BpCfhduPGZBYyqQy8VwfC01FTtiaws+8IPE5C4iPtsSnhQ8BX/yGlgggMeLDt7girzAjsb+5IRJ5L0fGXJLjaMkz1+RWYtk6EGd9uhf9gh8YFnrZsuO2SFqThcY8A7LySifQz6/B6/m4Ebb+MBtW0JR7pnTn0rjU4bvu0/aaEmosZ9awD3Pt3B5/Tr1x9pcK2SycI6tNwO7lx9EqIBct5rn47G+HZ6s8znQJW41nOfRa46iD/lVbVhuZw1WNDdayVtLoOwKAmDeaMESNGjLQTuiqUYdgqPMwpRXV+Fh5V16Mg5gwSihnUVhUj+Uaa5tHgOzihm1khEi/eQWnZfZzbfQjXRQqUFzxCxdN6sAwDBbFqEyuBQGBZFuxv2RcAgAXDEohVLQI6TsL8mT1QcuRD/GX594j4JRyhHwUgQjACrtUPkVNajfysR6iuL0DMmQQUM7WoKk7GjbTqJqMAwHoi5vv3Qm6YH8bNDsYPESdwOGQhPou3hquAQUHEFwi7UwtYuOCtdRsww8UK5haqazNsOfJyVe2xRTh9OgX9A5dggoU1Js73R6/cMPiNm43gHyJw4nAIFn4WD2vXzpg0fyZ6lBzBh39Zju8jfkF46EcIiBBghBtfe5yc9tXi1q55mPxeMC6oPwWlAVuehyYzT+N0Sn8ELpkAC862oZycFXK1hU5HTF4aiAHiE/j6QBZkAMCW4FJ0AUYuXYLR5o0HquDB4f/+gnGWN/D32Uuw+8JN3P7vIRz8b3HTgpfvAKduZihMvIg7pWW4f243Dl0XQVFegEcVT8GfOB/+vXIR5jcOs4N/QMSJwwhZ+BnirV21r3AaaKueZcAoCGzDFWvlGhHEsmBZFlUPc1BanY+sR9WoL4jBmYRiMLVVKE6+AW3Z6LfLpCACX4TdQS0s4PLWOmyY4QIrc4vGK3ptikdn/XpXyoYBS4Qm2ei3T8tvAAAW5Xm5UJrFouj0aaT0D8SSCRYG/ao/Rm5wnDIHk7vkYP+KdTibLwOkebiTVgZGXIi8kiqY6D1Xh508C1iYA0+Ki1BZfgNxKSYceSYwUFO4clTZM0EBOedamwHLKvXTCClF1bh+JgKBBasSPHcdNOesDUq7tRfnhutxCncd00Amk4NkMkjVhsUwjPJHEYsW1wFN/3FpUn/OsBBd2gK/97bhqtq63IgRI0bajOam7JbBUOHJpTSkmw3Z9x5DC3dfpR8DnMnOdTJ9kSDRPJiInlDctonU09aWnDxn0BdXz9PqwX1o7LzNdPRqLJ1Y500OfFMSzgql8+lZdO3AUhphxyMrz4W0L67gN+zrV8o4s4kmdeeTwMWXtp/LUjZZk0HhQRNI2NWGOjp5kX/oNeXDP0whnVw6hLrZ2FPvMQtp99UfKcDZjlwnf0E6TavJoKNBE8jN3pzMbHvSyMWHKK2GlA9zrRtBvT3eoIBPN1PwmsW0OOQKlTDKh5cGmjnSsJkL6aMVn9BH708nv7+doTxFY6OUcTSIJrjZk7mZLfUcuZgOKRtVfhceRBOEXcmmoxN5+YfStTKGiKr1jlOnfUwhHZzejey6ONDI4NSGjtWQ090NA8nMcRjNXPgRrfjkI3p/uh/97Uye8sFR0tc2Q6I7x2ntG47E5zuRz/rjlFTR8ISXnHJPr6epgz1p3KxF9NcP5lDgVzFUqvkAWCMKKrq4iaa4/397dxvT1BXGAfyBy1zckLQhYwgEsG58kIQBVgNqpmwagwEDMZvOGEcywhLdMM7oJnOFDJXMxY/u3ReMxkwSlcF0gRiiIpgps04kmjQuA52G9AUq+1C9l/8+dIa09JZEr6XB/+/r6W2e3ufck6fnnpPzCuITMlG0+TjO1Fox/fEmRwDezp1Ylp6AhNQ8vLOnA6e3zsXri99H3ZHLcGrAv31H8PFbr8H84jQkpC9E1aFe/wbQEPS/qwPnm2rwdpKCF7LWYO/pG7h14QCqF5gQ+1IeKn/sxMDASVTPT8YM82y8WfktOg5XIMNkQcmeboTuNqHj8l2swYLZuVhasQ11X36GqqoGnL2vPUU+xtpC9veRPrTUFiNFiUNm2S78esu/oU4vvnEeXcUXb0zDzIJ3UblxMz7ZuA7lq3egZawzh7mvE+VIg+f3fagoyIDZlAlr6Ueo+6AAswrXYsfBbtwLe20wFY6D7yHLnIissr249AD6z9nQnxOMKXd1r9Vcf+DY9qWYqShIXf45jl1x+jeWBhhB3y+1KE5VEGdZha9aruNv+wnUr0yHEmdBecMpXPvrCo7bViBVicOs8gaccfjCj4OXnfpjw9A1NH1a5P89q79Ga+9NnN+/CQtNCl6e+yEOXPonzHg8qDuOBXqE22e/QfWiRMTGJqFo6/do6r6DkZutsC1PhqJkoGxXM3q9/s/qjQPh7p9ervWfGRWOfcV4NbkE390e649ERE8qBuC5WdFMtdvEWtgspV09Up83bq4toh521siGnkr5aZMlqEUVu80qhc2l0tVTL5Mc5v806dtZINafl8m5q7tlXlTEFCnRmA8RUe1isxZKc2mX9NTnjZ85JiIimiKebIkIRZ7+yoyIGHV1yQ+tibJufXBxHWiSw6Qg0ZmP6IyKiIjIKCywo5zqdotXGxaX52FwU+SMeuS6fVRK6rbIEnNwo4iIKm63V7Rhl0xmmIFUcTqHRR0ZEm/Y9a1TUTTmw3/KoturybDL419PS0RENEU93VHp9Ez5HO3S2DYoafnZEu/uF6TkiMU88WHhhouZLsmWdDGFfKfvE0d7o7QNpkl+dry4+yEpORaZjDDHaHL34lH57U6S5M6ZIZ6BGEnLzRTTc/F3MhrzISI+h7Q3tslgWr5kx7ulHymSYzEHHHlNREQ0VXANNhERERGRgZ6LOT0iIiIiokhhgU1EREREZCAW2EREREREBmKBTURERERkIBbYREREREQGYoFNRERERGQgFthERERERAZigU1EREREZKD/ADz/NAB/AjGbAAAAAElFTkSuQmCC;" parent="1" vertex="1">
          <mxGeometry x="428.5" y="-150" width="728" height="218" as="geometry" />
        </mxCell>
      </root>
    </mxGraphModel>
  </diagram>
</mxfile>
